<?xml version="1.0" encoding="utf-8"?>
<!-- Generator: Adobe Illustrator 19.0.0, SVG Export Plug-In . SVG Version: 6.00 Build 0)  -->
<svg version="1.1" id="Capa_1" xmlns="http://www.w3.org/2000/svg" xmlns:xlink="http://www.w3.org/1999/xlink" x="0px" y="0px"
	 viewBox="0 0 118.9 248.5" style="enable-background:new 0 0 118.9 248.5;" xml:space="preserve">
<style type="text/css">
	.st0{fill-rule:evenodd;clip-rule:evenodd;fill:url(#XMLID_6_);}
</style>
<g id="XMLID_3_">
	
		<linearGradient id="XMLID_6_" gradientUnits="userSpaceOnUse" x1="59.9346" y1="-27.7213" x2="59.9346" y2="282.7923" gradientTransform="matrix(-1 0 0 -1 119.8692 250.0566)">
		<stop  offset="0" style="stop-color:#FFD400"/>
		<stop  offset="0.1969" style="stop-color:#FFCF00"/>
		<stop  offset="0.4174" style="stop-color:#FFC200"/>
		<stop  offset="0.6492" style="stop-color:#FFAC00"/>
		<stop  offset="0.8875" style="stop-color:#FF8C00"/>
		<stop  offset="1" style="stop-color:#FF7B00"/>
	</linearGradient>
	<rect id="XMLID_461_" x="0.5" y="0.8" class="st0" width="118.9" height="248.5"/>
	<path id="XMLID_400_" d="M64.2,150.1c-0.3,0-0.6,0.3-0.6,0.6c0,0.3,0.3,0.6,0.6,0.6c0.3,0,0.6-0.3,0.6-0.6
		C64.8,150.3,64.5,150.1,64.2,150.1z M64.2,115.3c-0.7,0-1.2,0.6-1.2,1.2c0,0.7,0.6,1.2,1.2,1.2c0.7,0,1.2-0.6,1.2-1.2
		C65.4,115.8,64.9,115.3,64.2,115.3z M34.3,158.7c-0.3,0-0.5,0.2-0.5,0.5c0,0.3,0.2,0.5,0.5,0.5c0.3,0,0.5-0.2,0.5-0.5
		C34.8,158.9,34.6,158.7,34.3,158.7z M64.2,132.7c-0.5,0-0.9,0.4-0.9,0.9s0.4,0.9,0.9,0.9c0.5,0,0.9-0.4,0.9-0.9
		S64.7,132.7,64.2,132.7z M64.2,167.4c-0.2,0-0.4,0.2-0.4,0.4c0,0.2,0.2,0.4,0.4,0.4s0.4-0.2,0.4-0.4
		C64.6,167.6,64.4,167.4,64.2,167.4z M68.5,89c-1,0-1.8,0.8-1.8,1.8c0,1,0.8,1.8,1.8,1.8s1.8-0.8,1.8-1.8C70.3,89.8,69.5,89,68.5,89
		z M64.2,80.2c-1.2,0-2.1,0.9-2.1,2.1c0,1.2,0.9,2.1,2.1,2.1c1.2,0,2.1-0.9,2.1-2.1C66.3,81.1,65.4,80.2,64.2,80.2z M64.2,184.7
		c-0.1,0-0.2,0.1-0.2,0.2s0.1,0.2,0.2,0.2s0.2-0.1,0.2-0.2S64.3,184.7,64.2,184.7z M64.2,201.9C64.2,202,64.2,202,64.2,201.9
		C64.2,202,64.2,202,64.2,201.9C64.2,201.9,64.2,201.9,64.2,201.9C64.2,201.9,64.2,201.9,64.2,201.9z M68.5,76.1
		c1.3,0,2.3-1,2.3-2.3c0-1.3-1-2.3-2.3-2.3c-1.3,0-2.3,1-2.3,2.3C66.2,75,67.2,76.1,68.5,76.1z M55.7,184.7c-0.1,0-0.2,0.1-0.2,0.2
		s0.1,0.2,0.2,0.2c0.1,0,0.2-0.1,0.2-0.2S55.8,184.7,55.7,184.7z M59.9,76.1c1.3,0,2.3-1,2.3-2.3c0-1.3-1-2.3-2.3-2.3
		c-1.3,0-2.3,1-2.3,2.3C57.6,75,58.7,76.1,59.9,76.1z M59.9,176.1c-0.1,0-0.2,0.1-0.2,0.2c0,0.1,0.1,0.2,0.2,0.2
		c0.1,0,0.2-0.1,0.2-0.2C60.2,176.2,60.1,176.1,59.9,176.1z M55.6,201.9C55.6,202,55.6,202,55.6,201.9C55.7,202,55.7,202,55.6,201.9
		C55.7,201.9,55.7,201.9,55.6,201.9C55.6,201.9,55.6,201.9,55.6,201.9z M59.9,106.5c-0.8,0-1.4,0.6-1.4,1.4c0,0.8,0.6,1.4,1.4,1.4
		c0.8,0,1.4-0.6,1.4-1.4C61.4,107.1,60.7,106.5,59.9,106.5z M59.9,193.3C59.9,193.3,59.8,193.3,59.9,193.3c-0.1,0.1-0.1,0.2,0,0.2
		C60,193.5,60,193.4,59.9,193.3C60,193.3,60,193.3,59.9,193.3z M59.9,124c-0.6,0-1.1,0.5-1.1,1.1c0,0.6,0.5,1.1,1.1,1.1
		c0.6,0,1.1-0.5,1.1-1.1C61,124.4,60.5,124,59.9,124z M59.9,158.7c-0.3,0-0.5,0.2-0.5,0.5c0,0.3,0.2,0.5,0.5,0.5
		c0.3,0,0.5-0.2,0.5-0.5C60.4,158.9,60.2,158.7,59.9,158.7z M77,158.8c-0.2,0-0.4,0.2-0.4,0.4c0,0.2,0.2,0.4,0.4,0.4
		c0.2,0,0.4-0.2,0.4-0.4C77.5,159,77.3,158.8,77,158.8z M68.5,106.5c-0.8,0-1.4,0.6-1.4,1.4c0,0.8,0.6,1.4,1.4,1.4
		c0.8,0,1.4-0.6,1.4-1.4C69.9,107.2,69.3,106.5,68.5,106.5z M72.8,150.1c-0.3,0-0.6,0.3-0.6,0.6c0,0.3,0.3,0.6,0.6,0.6
		c0.3,0,0.6-0.3,0.6-0.6C73.3,150.4,73.1,150.1,72.8,150.1z M72.8,184.7c-0.1,0-0.1,0.1-0.1,0.1c0,0.1,0.1,0.1,0.1,0.1
		c0.1,0,0.1-0.1,0.1-0.1C72.9,184.8,72.8,184.7,72.8,184.7z M72.7,201.9C72.7,202,72.7,202,72.7,201.9C72.8,202,72.8,202,72.7,201.9
		C72.8,201.9,72.8,201.9,72.7,201.9C72.7,201.9,72.7,201.9,72.7,201.9z M72.8,167.4c-0.2,0-0.3,0.1-0.3,0.3c0,0.2,0.1,0.3,0.3,0.3
		c0.2,0,0.3-0.1,0.3-0.3C73.1,167.6,72.9,167.4,72.8,167.4z M77,76c1.3,0,2.3-1,2.3-2.3c0-1.3-1-2.3-2.3-2.3c-1.3,0-2.3,1-2.3,2.3
		C74.8,75,75.8,76,77,76z M77,124c-0.6,0-1,0.5-1,1c0,0.6,0.5,1,1,1c0.6,0,1-0.5,1-1C78,124.5,77.6,124,77,124z M77,141.4
		c-0.4,0-0.7,0.3-0.7,0.7c0,0.4,0.3,0.7,0.7,0.7c0.4,0,0.7-0.3,0.7-0.7C77.7,141.7,77.4,141.4,77,141.4z M77,106.5
		c-0.8,0-1.4,0.6-1.4,1.4c0,0.8,0.6,1.4,1.4,1.4c0.8,0,1.4-0.6,1.4-1.4C78.4,107.2,77.8,106.5,77,106.5z M77,89
		c-1,0-1.8,0.8-1.8,1.8c0,1,0.8,1.8,1.8,1.8c1,0,1.8-0.8,1.8-1.8C78.8,89.9,78,89,77,89z M72.8,132.7c-0.5,0-0.9,0.4-0.9,0.9
		s0.4,0.9,0.9,0.9c0.5,0,0.9-0.4,0.9-0.9S73.2,132.7,72.8,132.7z M68.5,158.8c-0.2,0-0.5,0.2-0.5,0.5c0,0.2,0.2,0.5,0.5,0.5
		c0.2,0,0.4-0.2,0.4-0.5C68.9,159,68.7,158.8,68.5,158.8z M55.7,167.4c-0.2,0-0.4,0.2-0.4,0.4c0,0.2,0.2,0.4,0.4,0.4
		c0.2,0,0.4-0.2,0.4-0.4C56,167.6,55.9,167.4,55.7,167.4z M68.4,193.4C68.4,193.4,68.4,193.5,68.4,193.4c0.1,0.1,0.1,0,0.1,0
		C68.6,193.4,68.5,193.3,68.4,193.4C68.4,193.3,68.4,193.4,68.4,193.4z M68.5,124c-0.6,0-1,0.5-1,1s0.5,1,1,1c0.6,0,1-0.5,1-1
		S69.1,124,68.5,124z M68.5,141.4c-0.4,0-0.7,0.3-0.7,0.7c0,0.4,0.3,0.7,0.7,0.7c0.4,0,0.7-0.3,0.7-0.7
		C69.2,141.7,68.9,141.4,68.5,141.4z M72.8,115.3c-0.7,0-1.2,0.5-1.2,1.2c0,0.7,0.5,1.2,1.2,1.2c0.7,0,1.2-0.5,1.2-1.2
		C74,115.8,73.4,115.3,72.8,115.3z M68.5,176.1c-0.1,0-0.2,0.1-0.2,0.2c0,0.1,0.1,0.2,0.2,0.2c0.1,0,0.2-0.1,0.2-0.2
		C68.7,176.2,68.6,176.1,68.5,176.1z M72.8,97.8c-0.9,0-1.6,0.7-1.6,1.6c0,0.9,0.7,1.6,1.6,1.6c0.9,0,1.6-0.7,1.6-1.6
		C74.4,98.5,73.6,97.8,72.8,97.8z M72.8,80.2c-1.1,0-2.1,0.9-2.1,2.1c0,1.1,0.9,2.1,2.1,2.1c1.1,0,2.1-0.9,2.1-2.1
		C74.8,81.2,73.9,80.2,72.8,80.2z M59.9,141.4c-0.4,0-0.7,0.3-0.7,0.7c0,0.4,0.3,0.7,0.7,0.7c0.4,0,0.7-0.3,0.7-0.7
		C60.7,141.7,60.3,141.4,59.9,141.4z M42.8,88.9c-1.1,0-1.9,0.9-1.9,1.9c0,1.1,0.9,1.9,1.9,1.9c1.1,0,1.9-0.9,1.9-1.9
		C44.8,89.8,43.9,88.9,42.8,88.9z M38.6,184.7c-0.1,0-0.2,0.1-0.2,0.2c0,0.1,0.1,0.2,0.2,0.2c0.1,0,0.2-0.1,0.2-0.2
		C38.8,184.7,38.7,184.7,38.6,184.7z M42.8,123.9c-0.6,0-1.1,0.5-1.1,1.1c0,0.6,0.5,1.1,1.1,1.1s1.1-0.5,1.1-1.1
		C44,124.4,43.5,123.9,42.8,123.9z M55.7,150c-0.3,0-0.6,0.3-0.6,0.6c0,0.3,0.3,0.6,0.6,0.6c0.3,0,0.6-0.3,0.6-0.6
		C56.3,150.3,56,150,55.7,150z M42.8,106.5c-0.8,0-1.5,0.7-1.5,1.5s0.7,1.5,1.5,1.5c0.8,0,1.5-0.7,1.5-1.5S43.7,106.5,42.8,106.5z
		 M42.8,176c-0.1,0-0.3,0.1-0.3,0.3c0,0.1,0.1,0.3,0.3,0.3c0.1,0,0.3-0.1,0.3-0.3C43.1,176.2,43,176,42.8,176z M42.8,141.3
		c-0.4,0-0.8,0.4-0.8,0.8c0,0.4,0.4,0.8,0.8,0.8s0.8-0.3,0.8-0.8C43.6,141.7,43.3,141.3,42.8,141.3z M42.8,193.3
		C42.8,193.3,42.7,193.3,42.8,193.3c-0.1,0.1-0.1,0.2,0,0.2C42.9,193.5,42.9,193.4,42.8,193.3C42.9,193.3,42.9,193.3,42.8,193.3z
		 M42.8,158.7c-0.3,0-0.5,0.2-0.5,0.5c0,0.3,0.2,0.5,0.5,0.5c0.3,0,0.5-0.2,0.5-0.5C43.3,158.9,43.1,158.7,42.8,158.7z M42.8,76.1
		c1.3,0,2.4-1.1,2.4-2.4c0-1.3-1.1-2.4-2.4-2.4c-1.3,0-2.4,1.1-2.4,2.4C40.4,75.1,41.5,76.1,42.8,76.1z M38.5,201.9
		C38.5,202,38.5,202,38.5,201.9C38.6,202,38.6,202,38.5,201.9C38.6,201.9,38.6,201.9,38.5,201.9C38.5,201.9,38.5,201.9,38.5,201.9z
		 M34.3,176c-0.2,0-0.3,0.1-0.3,0.3c0,0.2,0.1,0.3,0.3,0.3c0.2,0,0.3-0.1,0.3-0.3C34.6,176.1,34.5,176,34.3,176z M38.6,80.1
		c-1.2,0-2.2,1-2.2,2.2c0,1.2,1,2.2,2.2,2.2c1.2,0,2.2-1,2.2-2.2C40.7,81.1,39.8,80.1,38.6,80.1z M34.3,193.3
		C34.2,193.3,34.2,193.3,34.3,193.3c-0.1,0.1-0.1,0.2,0,0.2C34.4,193.5,34.4,193.4,34.3,193.3C34.4,193.3,34.4,193.3,34.3,193.3z
		 M38.6,97.7c-1,0-1.7,0.8-1.7,1.7c0,1,0.8,1.7,1.7,1.7c1,0,1.7-0.8,1.7-1.7C40.3,98.4,39.5,97.7,38.6,97.7z M38.6,150
		c-0.4,0-0.6,0.3-0.6,0.6c0,0.4,0.3,0.6,0.6,0.6s0.6-0.3,0.6-0.6C39.2,150.3,38.9,150,38.6,150z M38.6,115.2c-0.7,0-1.3,0.6-1.3,1.3
		c0,0.7,0.6,1.3,1.3,1.3c0.7,0,1.3-0.6,1.3-1.3C39.9,115.8,39.3,115.2,38.6,115.2z M38.6,167.4c-0.2,0-0.4,0.2-0.4,0.4
		c0,0.2,0.2,0.4,0.4,0.4c0.2,0,0.4-0.2,0.4-0.4C38.9,167.5,38.8,167.4,38.6,167.4z M38.6,132.6c-0.5,0-1,0.4-1,1c0,0.5,0.4,1,1,1
		c0.5,0,1-0.4,1-1C39.5,133,39.1,132.6,38.6,132.6z M47.1,80.2c-1.2,0-2.1,1-2.1,2.1c0,1.2,1,2.1,2.1,2.1c1.2,0,2.1-1,2.1-2.1
		C49.2,81.1,48.3,80.2,47.1,80.2z M51.4,193.3C51.3,193.3,51.3,193.3,51.4,193.3c-0.1,0.1-0.1,0.2,0,0.2
		C51.4,193.5,51.5,193.4,51.4,193.3C51.5,193.3,51.4,193.3,51.4,193.3z M51.4,158.7c-0.3,0-0.5,0.2-0.5,0.5c0,0.3,0.2,0.5,0.5,0.5
		s0.5-0.2,0.5-0.5C51.9,158.9,51.7,158.7,51.4,158.7z M51.4,141.4c-0.4,0-0.8,0.3-0.8,0.8c0,0.4,0.3,0.8,0.8,0.8
		c0.4,0,0.8-0.3,0.8-0.8C52.1,141.7,51.8,141.4,51.4,141.4z M51.4,176c-0.1,0-0.3,0.1-0.3,0.3c0,0.1,0.1,0.3,0.3,0.3
		c0.1,0,0.3-0.1,0.3-0.3C51.6,176.2,51.5,176,51.4,176z M55.7,115.2c-0.7,0-1.3,0.6-1.3,1.3c0,0.7,0.6,1.3,1.3,1.3
		c0.7,0,1.3-0.6,1.3-1.3C56.9,115.8,56.4,115.2,55.7,115.2z M51.4,124c-0.6,0-1.1,0.5-1.1,1.1c0,0.6,0.5,1.1,1.1,1.1
		c0.6,0,1.1-0.5,1.1-1.1C52.5,124.4,52,124,51.4,124z M55.7,132.6c-0.5,0-0.9,0.4-0.9,0.9c0,0.5,0.4,0.9,0.9,0.9
		c0.5,0,0.9-0.4,0.9-0.9C56.6,133.1,56.2,132.6,55.7,132.6z M55.7,97.7c-0.9,0-1.7,0.7-1.7,1.7c0,0.9,0.7,1.7,1.7,1.7
		c0.9,0,1.7-0.7,1.7-1.7C57.3,98.5,56.6,97.7,55.7,97.7z M55.7,80.2c-1.2,0-2.1,0.9-2.1,2.1c0,1.2,0.9,2.1,2.1,2.1
		c1.2,0,2.1-0.9,2.1-2.1C57.8,81.1,56.8,80.2,55.7,80.2z M47.1,97.7c-0.9,0-1.7,0.8-1.7,1.7c0,0.9,0.8,1.7,1.7,1.7s1.7-0.8,1.7-1.7
		C48.8,98.5,48,97.7,47.1,97.7z M51.4,106.5c-0.8,0-1.5,0.7-1.5,1.5s0.7,1.5,1.5,1.5c0.8,0,1.5-0.7,1.5-1.5S52.2,106.5,51.4,106.5z
		 M47.1,167.4c-0.2,0-0.4,0.2-0.4,0.4c0,0.2,0.2,0.4,0.4,0.4c0.2,0,0.4-0.2,0.4-0.4C47.5,167.5,47.3,167.4,47.1,167.4z M47.1,132.6
		c-0.5,0-0.9,0.4-0.9,0.9c0,0.5,0.4,0.9,0.9,0.9c0.5,0,0.9-0.4,0.9-0.9C48.1,133.1,47.6,132.6,47.1,132.6z M47.1,115.2
		c-0.7,0-1.3,0.6-1.3,1.3c0,0.7,0.6,1.3,1.3,1.3c0.7,0,1.3-0.6,1.3-1.3C48.4,115.8,47.8,115.2,47.1,115.2z M47.1,150
		c-0.4,0-0.6,0.3-0.6,0.6c0,0.4,0.3,0.6,0.6,0.6c0.4,0,0.6-0.3,0.6-0.6C47.8,150.3,47.5,150,47.1,150z M51.4,76.1
		c1.3,0,2.3-1.1,2.3-2.3c0-1.3-1.1-2.3-2.3-2.3c-1.3,0-2.3,1.1-2.3,2.3C49,75.1,50.1,76.1,51.4,76.1z M47.1,201.9
		C47.1,202,47.1,202,47.1,201.9C47.1,202,47.2,202,47.1,201.9C47.2,201.9,47.1,201.9,47.1,201.9C47.1,201.9,47.1,201.9,47.1,201.9z
		 M51.4,89c-1,0-1.9,0.8-1.9,1.9c0,1,0.8,1.9,1.9,1.9c1,0,1.9-0.8,1.9-1.9C53.3,89.8,52.4,89,51.4,89z M47.1,184.7
		c-0.1,0-0.2,0.1-0.2,0.2s0.1,0.2,0.2,0.2c0.1,0,0.2-0.1,0.2-0.2S47.2,184.7,47.1,184.7z M64.2,97.8c-0.9,0-1.6,0.7-1.6,1.6
		c0,0.9,0.7,1.6,1.6,1.6c0.9,0,1.6-0.7,1.6-1.6C65.8,98.5,65.1,97.8,64.2,97.8z M106.9,97.9c-0.8,0-1.5,0.7-1.5,1.5
		c0,0.8,0.7,1.5,1.5,1.5c0.8,0,1.5-0.7,1.5-1.5C108.5,98.6,107.8,97.9,106.9,97.9z M106.9,80.3c-1.1,0-2,0.9-2,2c0,1.1,0.9,2,2,2
		c1.1,0,2-0.9,2-2C108.9,81.2,108,80.3,106.9,80.3z M102.6,193.4C102.6,193.4,102.6,193.4,102.6,193.4
		C102.7,193.4,102.7,193.4,102.6,193.4C102.7,193.4,102.7,193.3,102.6,193.4C102.6,193.3,102.6,193.4,102.6,193.4z M102.7,176.1
		c-0.1,0-0.2,0.1-0.2,0.2c0,0.1,0.1,0.2,0.2,0.2c0.1,0,0.2-0.1,0.2-0.2C102.9,176.2,102.8,176.1,102.7,176.1z M106.9,115.3
		c-0.6,0-1.1,0.5-1.1,1.1s0.5,1.1,1.1,1.1c0.6,0,1.1-0.5,1.1-1.1S107.6,115.3,106.9,115.3z M106.9,67.7c1.3,0,2.4-1.1,2.4-2.4
		c0-1.3-1.1-2.4-2.4-2.4c-1.3,0-2.4,1.1-2.4,2.4C104.5,66.6,105.6,67.7,106.9,67.7z M106.9,184.8
		C106.9,184.8,106.8,184.8,106.9,184.8c-0.1,0.1-0.1,0.2,0,0.2C107,184.9,107,184.9,106.9,184.8C107,184.8,107,184.8,106.9,184.8z
		 M106.9,132.8c-0.4,0-0.8,0.4-0.8,0.8c0,0.4,0.4,0.8,0.8,0.8c0.4,0,0.8-0.4,0.8-0.8C107.7,133.1,107.4,132.8,106.9,132.8z
		 M106.9,167.5c-0.2,0-0.3,0.1-0.3,0.3c0,0.2,0.1,0.3,0.3,0.3c0.2,0,0.3-0.1,0.3-0.3C107.2,167.6,107.1,167.5,106.9,167.5z
		 M106.9,150.2c-0.3,0-0.5,0.2-0.5,0.5c0,0.3,0.2,0.5,0.5,0.5c0.3,0,0.5-0.2,0.5-0.5C107.4,150.4,107.2,150.2,106.9,150.2z
		 M102.7,141.5c-0.4,0-0.6,0.3-0.6,0.6c0,0.4,0.3,0.6,0.6,0.6c0.4,0,0.6-0.3,0.6-0.6C103.3,141.8,103,141.5,102.7,141.5z
		 M98.4,201.9C98.4,202,98.4,202,98.4,201.9C98.4,202,98.4,202,98.4,201.9C98.4,201.9,98.4,201.9,98.4,201.9
		C98.4,201.9,98.4,201.9,98.4,201.9z M98.4,184.7c-0.1,0-0.1,0.1-0.1,0.1c0,0.1,0.1,0.1,0.1,0.1c0.1,0,0.1-0.1,0.1-0.1
		C98.5,184.8,98.5,184.7,98.4,184.7z M98.4,167.5c-0.2,0-0.3,0.1-0.3,0.3c0,0.2,0.1,0.3,0.3,0.3c0.2,0,0.3-0.1,0.3-0.3
		C98.7,167.6,98.5,167.5,98.4,167.5z M102.7,71.6c-1.2,0-2.2,1-2.2,2.2c0,1.2,1,2.2,2.2,2.2c1.2,0,2.2-1,2.2-2.2
		C104.9,72.5,103.9,71.6,102.7,71.6z M102.7,158.8c-0.2,0-0.4,0.2-0.4,0.4c0,0.2,0.2,0.4,0.4,0.4c0.2,0,0.4-0.2,0.4-0.4
		C103,159,102.9,158.8,102.7,158.8z M102.7,124.1c-0.5,0-1,0.4-1,1s0.4,1,1,1c0.5,0,1-0.4,1-1S103.2,124.1,102.7,124.1z M111.2,71.6
		c-1.2,0-2.2,1-2.2,2.2c0,1.2,1,2.2,2.2,2.2c1.2,0,2.2-1,2.2-2.2C113.4,72.6,112.4,71.6,111.2,71.6z M102.7,89.1
		c-1,0-1.7,0.8-1.7,1.7c0,1,0.8,1.7,1.7,1.7c1,0,1.7-0.8,1.7-1.7C104.4,89.9,103.6,89.1,102.7,89.1z M102.7,106.6
		c-0.7,0-1.3,0.6-1.3,1.3c0,0.7,0.6,1.3,1.3,1.3c0.7,0,1.3-0.6,1.3-1.3C104,107.2,103.4,106.6,102.7,106.6z M115.5,184.8
		C115.4,184.8,115.4,184.8,115.5,184.8c-0.1,0.1-0.1,0.2,0,0.2C115.5,184.9,115.6,184.9,115.5,184.8
		C115.6,184.8,115.5,184.8,115.5,184.8z M115.5,150.2c-0.3,0-0.5,0.2-0.5,0.5c0,0.3,0.2,0.5,0.5,0.5c0.3,0,0.5-0.2,0.5-0.5
		C116,150.4,115.8,150.2,115.5,150.2z M115.5,167.5c-0.1,0-0.3,0.1-0.3,0.3c0,0.1,0.1,0.3,0.3,0.3c0.1,0,0.3-0.1,0.3-0.3
		C115.7,167.6,115.6,167.5,115.5,167.5z M115.5,115.4c-0.6,0-1.1,0.5-1.1,1.1c0,0.6,0.5,1.1,1.1,1.1c0.6,0,1.1-0.5,1.1-1.1
		C116.6,115.9,116.1,115.4,115.5,115.4z M115.5,132.8c-0.4,0-0.8,0.4-0.8,0.8c0,0.4,0.4,0.8,0.8,0.8c0.4,0,0.8-0.3,0.8-0.8
		C116.3,133.1,115.9,132.8,115.5,132.8z M98.4,150.1c-0.3,0-0.5,0.2-0.5,0.5c0,0.3,0.2,0.5,0.5,0.5c0.3,0,0.5-0.2,0.5-0.5
		C98.9,150.4,98.7,150.1,98.4,150.1z M4.4,7.7c0.8,1.5,2.4,2.6,4.2,2.6c1.9,0,3.5-1.1,4.3-2.6c0.8,1.5,2.4,2.6,4.3,2.6
		c1.9,0,3.5-1.1,4.3-2.7c0.8,1.6,2.4,2.6,4.2,2.6c1.9,0,3.5-1.1,4.3-2.7c0.8,1.6,2.4,2.7,4.3,2.7c1.9,0,3.5-1.1,4.3-2.8
		c0.7,1.6,2.4,2.7,4.2,2.7c1.9,0,3.6-1.2,4.3-2.8c0.7,1.6,2.4,2.8,4.3,2.8c1.9,0,3.6-1.2,4.3-2.8C56.4,8.9,58,10,59.9,10
		c1.9,0,3.6-1.2,4.3-2.9c0.7,1.7,2.3,2.9,4.3,2.9c2,0,3.6-1.3,4.3-3c0.6,1.7,2.3,3,4.2,3c2,0,3.7-1.3,4.3-3.1
		c0.6,1.8,2.3,3.1,4.2,3.1c2,0,3.7-1.3,4.3-3.2c0.6,1.8,2.2,3.2,4.3,3.2c2.1,0,3.8-1.4,4.3-3.3c0.5,1.9,2.2,3.2,4.2,3.2
		c2.1,0,3.8-1.4,4.3-3.4c0.5,1.9,2.2,3.3,4.3,3.3c2.1,0,3.8-1.4,4.3-3.4c0.4,1.8,2,3.2,3.9,3.3V1c-1.9,0.2-3.5,1.5-3.9,3.3
		C115,2.4,113.3,1,111.2,1c-2.1,0-3.8,1.4-4.3,3.3c-0.5-1.9-2.2-3.4-4.3-3.4c-2,0-3.7,1.4-4.2,3.2c-0.5-1.9-2.2-3.3-4.3-3.3
		c-2,0-3.7,1.3-4.3,3.2c-0.6-1.8-2.3-3.2-4.3-3.2c-2,0-3.6,1.3-4.2,3.1C80.7,2.2,79,0.8,77,0.8c-2,0-3.6,1.2-4.2,3
		c-0.6-1.8-2.3-3-4.3-3c-1.9,0-3.6,1.2-4.3,2.9C63.8,2.6,63,1.8,62,1.3c0.7,0.3,1.4,0.5,2.2,0.5c1.1,0,2.2-0.4,3-1h-6
		c0.2,0.2,0.5,0.3,0.8,0.5c-0.6-0.3-1.3-0.5-2-0.5c-0.6,0-1.1,0.1-1.7,0.3c0.2-0.1,0.3-0.2,0.5-0.3h-6.1c0.1,0.1,0.2,0.2,0.3,0.2
		c-0.3-0.1-0.7-0.2-1-0.2H51c-0.3,0-0.7,0.1-1,0.2c0.1-0.1,0.1-0.1,0.2-0.2H44c0.1,0.1,0.1,0.1,0.2,0.2c-0.2-0.1-0.4-0.1-0.7-0.2
		h-1.4c-0.2,0-0.4,0.1-0.6,0.1c0,0,0.1-0.1,0.1-0.1h-6.3c0,0,0,0,0,0c-0.1,0-0.1,0-0.2,0h-1.9c0,0-0.1,0-0.1,0c0,0,0,0,0,0H0.5v9.5
		C2.2,10.1,3.7,9.1,4.4,7.7z M55.7,1.8c0.6,0,1.2-0.1,1.8-0.3c-0.8,0.5-1.4,1.2-1.8,2.1c-0.3-0.8-0.9-1.5-1.7-2
		C54.5,1.7,55.1,1.8,55.7,1.8z M47.1,1.9c0.6,0,1.1-0.1,1.6-0.3c-0.7,0.5-1.2,1.1-1.6,1.9c-0.3-0.8-0.9-1.4-1.5-1.9
		C46.1,1.8,46.6,1.9,47.1,1.9z M38.6,1.9c0.5,0,1-0.1,1.4-0.2c-0.6,0.5-1.1,1-1.4,1.7c-0.3-0.7-0.8-1.2-1.3-1.7
		C37.7,1.8,38.1,1.9,38.6,1.9z M30,1.9c0.4,0,0.8-0.1,1.3-0.2c-0.5,0.4-0.9,1-1.2,1.6c-0.3-0.6-0.7-1.1-1.2-1.6
		C29.2,1.9,29.6,1.9,30,1.9z M21.5,2c0.4,0,0.7,0,1.1-0.1c-0.4,0.4-0.8,0.9-1.1,1.4c-0.3-0.5-0.6-1-1-1.4C20.8,2,21.1,2,21.5,2z
		 M12.9,2c0.3,0,0.6,0,0.9-0.1c-0.4,0.4-0.7,0.8-0.9,1.3c-0.2-0.5-0.5-0.9-0.9-1.3C12.3,2,12.6,2,12.9,2z M4.4,2.1
		C4.7,2.1,5,2,5.2,2C4.9,2.3,4.6,2.7,4.4,3.1C4.2,2.7,3.9,2.3,3.6,2C3.9,2,4.1,2.1,4.4,2.1z M118.4,107.9c0,0.6,0.4,1.1,0.9,1.2
		v-2.5C118.9,106.9,118.4,107.3,118.4,107.9z M118.8,125c0,0.4,0.2,0.7,0.6,0.9v-1.8C119,124.3,118.8,124.6,118.8,125z M119.4,142.6
		v-1c-0.2,0.1-0.3,0.3-0.3,0.5C119.1,142.3,119.2,142.5,119.4,142.6z M115.5,67.6c1.3,0,2.4-1.1,2.4-2.4c0-1.3-1.1-2.4-2.4-2.4
		c-1.3,0-2.4,1.1-2.4,2.4C113.1,66.5,114.1,67.6,115.5,67.6z M111.2,124.1c-0.5,0-0.9,0.4-0.9,0.9s0.4,0.9,0.9,0.9
		c0.5,0,0.9-0.4,0.9-0.9S111.7,124.1,111.2,124.1z M111.2,158.8c-0.2,0-0.4,0.2-0.4,0.4c0,0.2,0.2,0.4,0.4,0.4s0.4-0.2,0.4-0.4
		C111.6,159,111.4,158.8,111.2,158.8z M111.2,141.5c-0.4,0-0.6,0.3-0.6,0.6c0,0.4,0.3,0.6,0.6,0.6s0.6-0.3,0.6-0.6
		C111.8,141.8,111.6,141.5,111.2,141.5z M111.2,106.6c-0.7,0-1.3,0.6-1.3,1.3s0.6,1.3,1.3,1.3c0.7,0,1.3-0.6,1.3-1.3
		S111.9,106.6,111.2,106.6z M111.2,176.1c-0.1,0-0.2,0.1-0.2,0.2c0,0.1,0.1,0.2,0.2,0.2c0.1,0,0.2-0.1,0.2-0.2
		C111.4,176.2,111.3,176.1,111.2,176.1z M111.2,193.4C111.2,193.4,111.2,193.4,111.2,193.4C111.2,193.4,111.3,193.4,111.2,193.4
		C111.3,193.4,111.2,193.3,111.2,193.4C111.2,193.3,111.2,193.4,111.2,193.4z M111.2,89.1c-0.9,0-1.7,0.8-1.7,1.7
		c0,0.9,0.8,1.7,1.7,1.7c0.9,0,1.7-0.8,1.7-1.7C112.9,89.9,112.1,89.1,111.2,89.1z M115.5,80.4c-1.1,0-1.9,0.9-1.9,1.9
		c0,1.1,0.9,1.9,1.9,1.9c1.1,0,1.9-0.9,1.9-1.9C117.4,81.2,116.6,80.4,115.5,80.4z M115.5,97.9c-0.8,0-1.5,0.7-1.5,1.5
		s0.7,1.5,1.5,1.5c0.8,0,1.5-0.7,1.5-1.5S116.3,97.9,115.5,97.9z M94.1,106.6c-0.7,0-1.4,0.6-1.4,1.4c0,0.7,0.6,1.4,1.4,1.4
		s1.4-0.6,1.4-1.4C95.5,107.2,94.9,106.6,94.1,106.6z M85.6,106.6c-0.8,0-1.4,0.6-1.4,1.4c0,0.8,0.6,1.4,1.4,1.4
		c0.8,0,1.4-0.6,1.4-1.4C86.9,107.2,86.3,106.6,85.6,106.6z M85.6,124c-0.5,0-1,0.4-1,1s0.4,1,1,1c0.5,0,1-0.4,1-1
		S86.1,124,85.6,124z M85.6,141.4c-0.4,0-0.7,0.3-0.7,0.7c0,0.4,0.3,0.7,0.7,0.7c0.4,0,0.7-0.3,0.7-0.7
		C86.3,141.7,86,141.4,85.6,141.4z M98.4,132.8c-0.4,0-0.8,0.4-0.8,0.8c0,0.4,0.4,0.8,0.8,0.8s0.8-0.4,0.8-0.8
		C99.2,133.1,98.8,132.8,98.4,132.8z M85.6,89.1c-1,0-1.8,0.8-1.8,1.8c0,1,0.8,1.8,1.8,1.8c1,0,1.8-0.8,1.8-1.8
		C87.3,89.9,86.6,89.1,85.6,89.1z M89.8,67.7c1.4,0,2.5-1.1,2.5-2.5c0-1.4-1.1-2.5-2.5-2.5c-1.4,0-2.5,1.1-2.5,2.5
		C87.4,66.6,88.5,67.7,89.8,67.7z M85.6,158.8c-0.2,0-0.4,0.2-0.4,0.4c0,0.2,0.2,0.4,0.4,0.4c0.2,0,0.4-0.2,0.4-0.4
		C86,159,85.8,158.8,85.6,158.8z M85.6,176.1c-0.1,0-0.2,0.1-0.2,0.2c0,0.1,0.1,0.2,0.2,0.2c0.1,0,0.2-0.1,0.2-0.2
		C85.8,176.2,85.7,176.1,85.6,176.1z M85.5,193.4C85.5,193.4,85.5,193.5,85.5,193.4c0.1,0.1,0.1,0,0.1,0
		C85.6,193.4,85.6,193.3,85.5,193.4C85.5,193.3,85.5,193.4,85.5,193.4z M81.3,150.1c-0.3,0-0.5,0.2-0.5,0.5c0,0.3,0.2,0.5,0.5,0.5
		c0.3,0,0.5-0.2,0.5-0.5C81.8,150.4,81.6,150.1,81.3,150.1z M81.3,97.8c-0.9,0-1.6,0.7-1.6,1.6c0,0.9,0.7,1.6,1.6,1.6
		c0.9,0,1.6-0.7,1.6-1.6C82.9,98.5,82.2,97.8,81.3,97.8z M81.3,115.3c-0.7,0-1.2,0.5-1.2,1.2c0,0.7,0.5,1.2,1.2,1.2
		c0.7,0,1.2-0.5,1.2-1.2C82.5,115.8,82,115.3,81.3,115.3z M81.3,80.3c-1.1,0-2,0.9-2,2c0,1.1,0.9,2,2,2c1.1,0,2-0.9,2-2
		C83.3,81.2,82.4,80.3,81.3,80.3z M77,176.1c-0.1,0-0.2,0.1-0.2,0.2c0,0.1,0.1,0.2,0.2,0.2c0.1,0,0.2-0.1,0.2-0.2
		C77.2,176.2,77.1,176.1,77,176.1z M81.3,132.7c-0.5,0-0.9,0.4-0.9,0.9c0,0.5,0.4,0.9,0.9,0.9c0.5,0,0.9-0.4,0.9-0.9
		C82.2,133.1,81.8,132.7,81.3,132.7z M81.3,184.7c-0.1,0-0.1,0.1-0.1,0.1c0,0.1,0.1,0.1,0.1,0.1c0.1,0,0.1-0.1,0.1-0.1
		C81.4,184.8,81.4,184.7,81.3,184.7z M81.3,167.4c-0.2,0-0.3,0.1-0.3,0.3c0,0.2,0.1,0.3,0.3,0.3c0.2,0,0.3-0.1,0.3-0.3
		C81.6,167.6,81.5,167.4,81.3,167.4z M81.3,201.9C81.3,202,81.3,202,81.3,201.9C81.3,202,81.3,202,81.3,201.9
		C81.3,201.9,81.3,201.9,81.3,201.9C81.3,201.9,81.3,201.9,81.3,201.9z M89.8,80.3c-1.1,0-2,0.9-2,2c0,1.1,0.9,2,2,2
		c1.1,0,2-0.9,2-2C91.9,81.2,91,80.3,89.8,80.3z M85.6,71.5c-1.2,0-2.3,1-2.3,2.3c0,1.2,1,2.3,2.3,2.3c1.2,0,2.3-1,2.3-2.3
		C87.8,72.5,86.8,71.5,85.6,71.5z M94.1,124.1c-0.5,0-1,0.4-1,1s0.4,1,1,1c0.5,0,1-0.4,1-1S94.7,124.1,94.1,124.1z M94.1,193.4
		C94.1,193.4,94.1,193.4,94.1,193.4C94.1,193.4,94.2,193.4,94.1,193.4C94.2,193.4,94.1,193.3,94.1,193.4
		C94.1,193.3,94.1,193.4,94.1,193.4z M94.1,176.1c-0.1,0-0.2,0.1-0.2,0.2c0,0.1,0.1,0.2,0.2,0.2s0.2-0.1,0.2-0.2
		C94.3,176.2,94.2,176.1,94.1,176.1z M94.1,141.5c-0.4,0-0.7,0.3-0.7,0.7s0.3,0.7,0.7,0.7c0.4,0,0.7-0.3,0.7-0.7
		S94.5,141.5,94.1,141.5z M94.1,158.8c-0.2,0-0.4,0.2-0.4,0.4c0,0.2,0.2,0.4,0.4,0.4c0.2,0,0.4-0.2,0.4-0.4
		C94.5,159,94.3,158.8,94.1,158.8z M89.8,97.8c-0.9,0-1.6,0.7-1.6,1.6c0,0.9,0.7,1.6,1.6,1.6c0.9,0,1.6-0.7,1.6-1.6
		C91.4,98.5,90.7,97.8,89.8,97.8z M98.4,115.3c-0.6,0-1.2,0.5-1.2,1.2c0,0.6,0.5,1.2,1.2,1.2c0.6,0,1.2-0.5,1.2-1.2
		C99.6,115.8,99,115.3,98.4,115.3z M98.4,67.7c1.4,0,2.5-1.1,2.5-2.5c0-1.4-1.1-2.5-2.5-2.5c-1.4,0-2.5,1.1-2.5,2.5
		C95.9,66.6,97,67.7,98.4,67.7z M98.4,80.3c-1.1,0-2,0.9-2,2c0,1.1,0.9,2,2,2s2-0.9,2-2C100.4,81.2,99.5,80.3,98.4,80.3z M98.4,97.9
		c-0.8,0-1.5,0.7-1.5,1.5s0.7,1.5,1.5,1.5c0.9,0,1.5-0.7,1.5-1.5S99.2,97.9,98.4,97.9z M89.8,132.7c-0.5,0-0.8,0.4-0.8,0.8
		c0,0.5,0.4,0.8,0.8,0.8c0.5,0,0.8-0.4,0.8-0.8C90.7,133.1,90.3,132.7,89.8,132.7z M89.8,167.4c-0.2,0-0.3,0.1-0.3,0.3
		c0,0.2,0.1,0.3,0.3,0.3c0.2,0,0.3-0.1,0.3-0.3C90.2,167.6,90,167.4,89.8,167.4z M89.8,150.1c-0.3,0-0.5,0.2-0.5,0.5
		c0,0.3,0.2,0.5,0.5,0.5c0.3,0,0.5-0.2,0.5-0.5C90.4,150.4,90.1,150.1,89.8,150.1z M77,193.4C77,193.4,77,193.5,77,193.4
		c0.1,0.1,0.1,0,0.1,0C77.1,193.4,77.1,193.3,77,193.4C77,193.3,77,193.4,77,193.4z M89.8,115.3c-0.7,0-1.2,0.5-1.2,1.2
		c0,0.7,0.5,1.2,1.2,1.2c0.7,0,1.2-0.5,1.2-1.2C91,115.8,90.5,115.3,89.8,115.3z M94.1,89.1c-1,0-1.8,0.8-1.8,1.8
		c0,1,0.8,1.8,1.8,1.8c1,0,1.8-0.8,1.8-1.8C95.9,89.9,95.1,89.1,94.1,89.1z M94.1,71.5c-1.2,0-2.2,1-2.2,2.2c0,1.2,1,2.2,2.2,2.2
		c1.2,0,2.2-1,2.2-2.2C96.3,72.5,95.3,71.5,94.1,71.5z M89.8,184.7c-0.1,0-0.1,0.1-0.1,0.1c0,0.1,0.1,0.1,0.1,0.1
		c0.1,0,0.1-0.1,0.1-0.1C90,184.8,89.9,184.7,89.8,184.7z M89.8,201.9C89.8,202,89.8,202,89.8,201.9C89.9,202,89.9,202,89.8,201.9
		C89.9,201.9,89.9,201.9,89.8,201.9C89.8,201.9,89.8,201.9,89.8,201.9z M59.9,89c-1,0-1.8,0.8-1.8,1.8c0,1,0.8,1.8,1.8,1.8
		c1,0,1.8-0.8,1.8-1.8C61.8,89.8,61,89,59.9,89z M117.1,56.7c0,1.4,1,2.5,2.3,2.6V54C118.1,54.2,117.1,55.3,117.1,56.7z M116.6,39.6
		c0,1.6,1.2,3,2.8,3.2v-6.3C117.8,36.6,116.6,37.9,116.6,39.6z M118.4,48.1c0-1.6-1.3-2.9-2.9-2.9c-1.6,0-2.9,1.3-2.9,2.9
		c0,1.6,1.3,2.9,2.9,2.9C117.1,51.1,118.4,49.7,118.4,48.1z M119,31c0-1.9-1.6-3.5-3.5-3.5c-1.9,0-3.5,1.6-3.5,3.5s1.6,3.5,3.5,3.5
		C117.4,34.5,119,33,119,31z M116,22.5c0,2,1.5,3.6,3.4,3.8v-7.5C117.5,18.9,116,20.5,116,22.5z M113.9,56.7c0-1.5-1.2-2.7-2.7-2.7
		s-2.7,1.2-2.7,2.7c0,1.5,1.2,2.7,2.7,2.7S113.9,58.1,113.9,56.7z M105.4,56.7c0-1.5-1.2-2.7-2.7-2.7c-1.5,0-2.7,1.2-2.7,2.7
		c0,1.5,1.2,2.7,2.7,2.7C104.2,59.4,105.4,58.2,105.4,56.7z M95.4,48.1c0,1.6,1.3,3,3,3c1.6,0,3-1.3,3-3c0-1.6-1.3-3-3-3
		C96.7,45.1,95.4,46.5,95.4,48.1z M114.4,39.6c0-1.8-1.4-3.2-3.2-3.2c-1.8,0-3.2,1.4-3.2,3.2c0,1.8,1.4,3.2,3.2,3.2
		C113,42.8,114.4,41.3,114.4,39.6z M104,48.1c0,1.6,1.3,3,3,3c1.6,0,3-1.3,3-3c0-1.6-1.3-3-3-3C105.3,45.2,104,46.5,104,48.1z
		 M82.3,39.6c0,1.8,1.5,3.3,3.3,3.3c1.8,0,3.3-1.5,3.3-3.3c0-1.8-1.5-3.3-3.3-3.3C83.8,36.3,82.3,37.8,82.3,39.6z M81.3,27.4
		c-2,0-3.6,1.6-3.6,3.6c0,2,1.6,3.6,3.6,3.6c2,0,3.6-1.6,3.6-3.6C84.9,29,83.3,27.4,81.3,27.4z M73.7,39.6c0,1.8,1.5,3.3,3.3,3.3
		c1.8,0,3.3-1.5,3.3-3.3s-1.5-3.3-3.3-3.3C75.2,36.2,73.7,37.7,73.7,39.6z M106.9,27.5c-2,0-3.5,1.6-3.5,3.5s1.6,3.5,3.5,3.5
		c2,0,3.5-1.6,3.5-3.5S108.9,27.5,106.9,27.5z M68.5,18.5c-2.2,0-4,1.8-4,4s1.8,4,4,4c2.2,0,4-1.8,4-4S70.7,18.5,68.5,18.5z
		 M96.8,56.7c0-1.5-1.2-2.7-2.7-2.7c-1.5,0-2.7,1.2-2.7,2.7c0,1.5,1.2,2.7,2.7,2.7C95.6,59.4,96.8,58.2,96.8,56.7z M69.1,31
		c0,2,1.6,3.6,3.7,3.6c2,0,3.6-1.6,3.6-3.6c0-2-1.6-3.6-3.6-3.6C70.7,27.4,69.1,29,69.1,31z M98.4,27.5c-2,0-3.6,1.6-3.6,3.6
		s1.6,3.6,3.6,3.6s3.6-1.6,3.6-3.6S100.4,27.5,98.4,27.5z M89.8,27.5c-2,0-3.6,1.6-3.6,3.6s1.6,3.6,3.6,3.6c2,0,3.6-1.6,3.6-3.6
		S91.8,27.5,89.8,27.5z M99.4,39.6c0,1.8,1.5,3.2,3.2,3.2c1.8,0,3.2-1.5,3.2-3.2c0-1.8-1.5-3.2-3.2-3.2
		C100.9,36.3,99.4,37.8,99.4,39.6z M90.8,39.6c0,1.8,1.5,3.3,3.3,3.3c1.8,0,3.3-1.5,3.3-3.3c0-1.8-1.5-3.3-3.3-3.3
		C92.3,36.3,90.8,37.8,90.8,39.6z M77,53.9c-1.5,0-2.8,1.2-2.8,2.8c0,1.5,1.2,2.8,2.8,2.8c1.5,0,2.8-1.2,2.8-2.8
		C79.8,55.1,78.6,53.9,77,53.9z M31.4,56.7c0,1.6,1.3,2.9,2.9,2.9c1.6,0,2.9-1.3,2.9-2.9c0-1.6-1.3-2.9-2.9-2.9
		C32.7,53.7,31.4,55,31.4,56.7z M32.7,65.2c0-1.5-1.2-2.7-2.7-2.7c-1.5,0-2.7,1.2-2.7,2.7c0,1.5,1.2,2.7,2.7,2.7
		C31.5,67.9,32.7,66.7,32.7,65.2z M41.2,65.2c0-1.5-1.2-2.7-2.7-2.7c-1.5,0-2.7,1.2-2.7,2.7c0,1.5,1.2,2.7,2.7,2.7
		C40,67.9,41.2,66.7,41.2,65.2z M86.8,48.1c0,1.7,1.3,3,3,3c1.7,0,3-1.3,3-3c0-1.7-1.3-3-3-3C88.2,45.1,86.8,46.5,86.8,48.1z
		 M47.1,67.8c1.5,0,2.6-1.2,2.6-2.6c0-1.5-1.2-2.6-2.6-2.6c-1.5,0-2.6,1.2-2.6,2.6C44.5,66.7,45.7,67.8,47.1,67.8z M20.2,56.7
		c0-1.6-1.3-3-3-3c-1.6,0-3,1.3-3,3c0,1.6,1.3,3,3,3C18.9,59.7,20.2,58.3,20.2,56.7z M12.9,62.4c-1.5,0-2.8,1.2-2.8,2.8
		c0,1.5,1.2,2.8,2.8,2.8c1.5,0,2.8-1.2,2.8-2.8C15.7,63.7,14.5,62.4,12.9,62.4z M22.8,56.7c0,1.6,1.3,3,3,3c1.6,0,3-1.3,3-3
		c0-1.6-1.3-3-3-3C24.1,53.7,22.8,55,22.8,56.7z M51.4,53.8c-1.6,0-2.9,1.3-2.9,2.9s1.3,2.9,2.9,2.9c1.6,0,2.9-1.3,2.9-2.9
		S53,53.8,51.4,53.8z M24.2,65.2c0-1.5-1.2-2.7-2.7-2.7c-1.5,0-2.7,1.2-2.7,2.7c0,1.5,1.2,2.7,2.7,2.7C23,67.9,24.2,66.7,24.2,65.2z
		 M40,56.7c0,1.6,1.3,2.9,2.9,2.9c1.6,0,2.9-1.3,2.9-2.9c0-1.6-1.3-2.9-2.9-2.9C41.2,53.8,40,55.1,40,56.7z M60.5,31
		c0,2,1.7,3.7,3.7,3.7c2,0,3.7-1.7,3.7-3.7s-1.7-3.7-3.7-3.7C62.2,27.3,60.5,29,60.5,31z M84.4,48.1c0-1.7-1.4-3.1-3.1-3.1
		c-1.7,0-3.1,1.4-3.1,3.1c0,1.7,1.4,3.1,3.1,3.1C83,51.2,84.4,49.8,84.4,48.1z M81.3,67.7c1.4,0,2.5-1.1,2.5-2.5
		c0-1.4-1.1-2.5-2.5-2.5c-1.4,0-2.5,1.1-2.5,2.5C78.8,66.6,79.9,67.7,81.3,67.7z M88.3,56.7c0-1.5-1.2-2.7-2.7-2.7
		c-1.5,0-2.7,1.2-2.7,2.7c0,1.5,1.2,2.7,2.7,2.7C87.1,59.4,88.3,58.2,88.3,56.7z M72.8,67.8c1.4,0,2.6-1.1,2.6-2.6
		c0-1.4-1.1-2.6-2.6-2.6s-2.6,1.1-2.6,2.6C70.2,66.6,71.3,67.8,72.8,67.8z M59.9,53.8c-1.6,0-2.8,1.3-2.8,2.8c0,1.6,1.3,2.8,2.8,2.8
		c1.6,0,2.8-1.3,2.8-2.8C62.8,55.1,61.5,53.8,59.9,53.8z M64.2,67.8c1.4,0,2.6-1.2,2.6-2.6c0-1.4-1.2-2.6-2.6-2.6
		c-1.4,0-2.6,1.2-2.6,2.6C61.6,66.6,62.8,67.8,64.2,67.8z M68.5,53.8c-1.6,0-2.8,1.3-2.8,2.8c0,1.6,1.3,2.8,2.8,2.8
		c1.6,0,2.8-1.3,2.8-2.8C71.3,55.1,70,53.8,68.5,53.8z M55.7,67.8c1.4,0,2.6-1.2,2.6-2.6c0-1.4-1.2-2.6-2.6-2.6
		c-1.4,0-2.6,1.2-2.6,2.6C53.1,66.6,54.2,67.8,55.7,67.8z M34.8,31c0,2.1,1.7,3.8,3.8,3.8c2.1,0,3.8-1.7,3.8-3.8
		c0-2.1-1.7-3.8-3.8-3.8C36.5,27.2,34.8,28.9,34.8,31z M98.4,9.8c-2.3,0-4.2,1.9-4.2,4.2s1.9,4.2,4.2,4.2c2.3,0,4.2-1.9,4.2-4.2
		S100.7,9.8,98.4,9.8z M90.3,22.5c0,2.1,1.7,3.9,3.9,3.9c2.1,0,3.9-1.7,3.9-3.9c0-2.1-1.7-3.9-3.9-3.9C92,18.6,90.3,20.3,90.3,22.5z
		 M118,90.8c0,0.8,0.6,1.5,1.4,1.7v-3.3C118.6,89.3,118,90,118,90.8z M81.7,22.5c0,2.1,1.7,3.9,3.9,3.9c2.1,0,3.9-1.7,3.9-3.9
		c0-2.1-1.7-3.9-3.9-3.9C83.4,18.6,81.7,20.3,81.7,22.5z M81.3,9.7c-2.3,0-4.2,1.9-4.2,4.2c0,2.3,1.9,4.2,4.2,4.2
		c2.3,0,4.2-1.9,4.2-4.2C85.5,11.6,83.6,9.7,81.3,9.7z M89.8,9.7c-2.3,0-4.2,1.9-4.2,4.2s1.9,4.2,4.2,4.2c2.3,0,4.2-1.9,4.2-4.2
		S92.2,9.7,89.8,9.7z M98.8,22.5c0,2.1,1.7,3.8,3.8,3.8c2.1,0,3.8-1.7,3.8-3.8c0-2.1-1.7-3.8-3.8-3.8
		C100.6,18.7,98.8,20.4,98.8,22.5z M111.2,18.7c-2.1,0-3.8,1.7-3.8,3.8c0,2.1,1.7,3.8,3.8,3.8c2.1,0,3.8-1.7,3.8-3.8
		C115,20.4,113.3,18.7,111.2,18.7z M115.5,9.8c-2.3,0-4.1,1.8-4.1,4.1c0,2.3,1.8,4.1,4.1,4.1c1.9,0,3.4-1.3,3.9-3v-2.3
		C118.9,11.1,117.3,9.8,115.5,9.8z M106.9,9.8c-2.3,0-4.1,1.8-4.1,4.1c0,2.3,1.8,4.1,4.1,4.1c2.3,0,4.1-1.8,4.1-4.1
		C111.1,11.7,109.2,9.8,106.9,9.8z M73.1,22.5c0,2.2,1.8,3.9,3.9,3.9c2.2,0,3.9-1.8,3.9-3.9s-1.8-3.9-3.9-3.9
		C74.9,18.6,73.1,20.3,73.1,22.5z M92.6,0.8H87c0.8,0.6,1.7,0.9,2.8,0.9C90.9,1.7,91.9,1.3,92.6,0.8z M109.6,0.8h-5.4
		c0.8,0.5,1.7,0.8,2.7,0.8C107.9,1.6,108.9,1.3,109.6,0.8z M59.9,18.5c-2.2,0-4,1.8-4,4s1.8,4,4,4c2.2,0,4-1.8,4-4
		S62.1,18.5,59.9,18.5z M118.1,0.8h-5.3c0.8,0.5,1.7,0.8,2.6,0.8C116.5,1.6,117.4,1.3,118.1,0.8z M101.1,0.8h-5.5
		c0.8,0.6,1.7,0.9,2.8,0.9C99.4,1.7,100.4,1.3,101.1,0.8z M0.7,159.2c0-0.2-0.1-0.3-0.2-0.4v0.9C0.6,159.5,0.7,159.4,0.7,159.2z
		 M119.4,159.3v-0.2c0,0,0,0.1,0,0.1C119.4,159.3,119.4,159.3,119.4,159.3z M75.7,0.8h-5.8c0.8,0.6,1.8,1,2.9,1
		C73.9,1.8,74.9,1.4,75.7,0.8z M34.3,141.3c-0.4,0-0.8,0.4-0.8,0.8c0,0.4,0.4,0.8,0.8,0.8c0.4,0,0.8-0.4,0.8-0.8
		C35.1,141.7,34.7,141.3,34.3,141.3z M4.4,18.5c2,0,3.7-1.3,4.3-3.1c0.6,1.8,2.3,3.1,4.2,3.1c2,0,3.7-1.3,4.3-3.2
		c0.6,1.8,2.2,3.2,4.3,3.2c2.1,0,3.8-1.4,4.3-3.3c0.5,1.9,2.2,3.2,4.2,3.2c2.1,0,3.8-1.4,4.3-3.4c0.5,1.9,2.2,3.3,4.3,3.3
		c2.1,0,3.9-1.5,4.3-3.5c0.4,1.9,2.2,3.4,4.2,3.4c2.2,0,3.9-1.6,4.3-3.6c0.4,2,2.1,3.6,4.3,3.6c2.3,0,4.1-1.7,4.3-3.9
		c0.2,2.2,2,3.9,4.2,3.9c2.4,0,4.3-1.9,4.3-4.2c0,2.3,1.9,4.2,4.3,4.2c2.4,0,4.3-1.9,4.3-4.3s-1.9-4.3-4.3-4.3
		c-2.3,0-4.2,1.9-4.3,4.2c0-2.3-1.9-4.2-4.3-4.2c-2.2,0-4,1.7-4.2,3.9c-0.2-2.2-2-3.9-4.3-3.9c-2.1,0-3.9,1.5-4.3,3.6
		c-0.4-2-2.1-3.6-4.3-3.6c-2.1,0-3.8,1.5-4.2,3.4c-0.4-2-2.2-3.5-4.3-3.5c-2.1,0-3.8,1.4-4.3,3.3c-0.5-1.9-2.2-3.4-4.3-3.4
		c-2,0-3.7,1.4-4.2,3.2c-0.5-1.9-2.2-3.3-4.3-3.3c-2,0-3.7,1.3-4.3,3.2c-0.6-1.8-2.3-3.2-4.3-3.2c-2,0-3.6,1.3-4.2,3.1
		c-0.6-1.8-2.3-3.1-4.3-3.1c-1.7,0-3.1,0.9-3.9,2.3v4.6C1.3,17.6,2.7,18.5,4.4,18.5z M6.1,73.8c0,1.4,1.1,2.5,2.5,2.5
		c1.4,0,2.5-1.1,2.5-2.5c0-1.4-1.1-2.5-2.5-2.5C7.3,71.2,6.1,72.4,6.1,73.8z M34.3,18.4c-2.3,0-4.1,1.8-4.1,4.1s1.8,4.1,4.1,4.1
		c2.3,0,4.1-1.8,4.1-4.1S36.6,18.4,34.3,18.4z M26.2,31c0,2.1,1.7,3.8,3.8,3.8c2.1,0,3.8-1.7,3.8-3.8c0-2.1-1.7-3.8-3.8-3.8
		C27.9,27.2,26.2,28.9,26.2,31z M25.8,18.4c-2.3,0-4.1,1.8-4.1,4.1c0,2.3,1.8,4.1,4.1,4.1c2.3,0,4.1-1.8,4.1-4.1
		C29.9,20.2,28,18.4,25.8,18.4z M17.6,31c0,2.1,1.7,3.9,3.9,3.9c2.1,0,3.9-1.7,3.9-3.9s-1.7-3.9-3.9-3.9
		C19.3,27.2,17.6,28.9,17.6,31z M42.8,18.4c-2.2,0-4.1,1.8-4.1,4.1c0,2.2,1.8,4.1,4.1,4.1c2.2,0,4.1-1.8,4.1-4.1
		C46.9,20.2,45.1,18.4,42.8,18.4z M117.6,73.8c0,1.1,0.8,1.9,1.8,2.1v-4.2C118.4,71.8,117.6,72.7,117.6,73.8z M51.9,31
		c0,2.1,1.7,3.7,3.7,3.7c2.1,0,3.7-1.7,3.7-3.7s-1.7-3.7-3.7-3.7C53.6,27.3,51.9,29,51.9,31z M51.4,18.5c-2.2,0-4,1.8-4,4s1.8,4,4,4
		c2.2,0,4-1.8,4-4S53.6,18.5,51.4,18.5z M43.4,31c0,2.1,1.7,3.7,3.7,3.7c2.1,0,3.7-1.7,3.7-3.7s-1.7-3.7-3.7-3.7
		C45,27.3,43.4,29,43.4,31z M17.2,18.3c-2.3,0-4.2,1.9-4.2,4.2s1.9,4.2,4.2,4.2s4.2-1.9,4.2-4.2S19.5,18.3,17.2,18.3z M1.7,107.9
		c0-0.8-0.5-1.4-1.3-1.6v3.1C1.2,109.3,1.7,108.7,1.7,107.9z M2.2,90.8c0-1-0.7-1.9-1.7-2v4.1C1.4,92.7,2.2,91.9,2.2,90.8z M1.3,125
		c0-0.5-0.4-1-0.9-1.1v2.3C1,126,1.3,125.6,1.3,125z M17.2,76.2c1.4,0,2.5-1.1,2.5-2.5c0-1.4-1.1-2.5-2.5-2.5s-2.5,1.1-2.5,2.5
		C14.7,75.1,15.8,76.2,17.2,76.2z M4.4,22.5c0-2.2-1.7-4-3.9-4.2v8.4C2.6,26.5,4.4,24.7,4.4,22.5z M8.7,18.3c-2.3,0-4.2,1.9-4.2,4.2
		s1.9,4.2,4.2,4.2c2.3,0,4.2-1.9,4.2-4.2S11,18.3,8.7,18.3z M0.5,31c0,2.2,1.8,3.9,3.9,3.9c2.2,0,3.9-1.8,3.9-3.9s-1.7-3.9-3.9-3.9
		C2.2,27.1,0.5,28.9,0.5,31z M9,31c0,2.1,1.7,3.9,3.9,3.9c2.1,0,3.9-1.7,3.9-3.9s-1.7-3.9-3.9-3.9C10.8,27.1,9,28.9,9,31z M1,142.1
		c0-0.4-0.2-0.7-0.5-0.8v1.6C0.8,142.8,1,142.5,1,142.1z M84.2,0.8h-5.8c0.8,0.6,1.8,1,2.9,1C82.4,1.7,83.4,1.4,84.2,0.8z
		 M21.5,115.1c-0.8,0-1.4,0.6-1.4,1.4c0,0.8,0.6,1.4,1.4,1.4c0.8,0,1.4-0.6,1.4-1.4C22.9,115.7,22.2,115.1,21.5,115.1z M21.5,132.6
		c-0.6,0-1,0.4-1,1c0,0.5,0.4,1,1,1c0.5,0,1-0.4,1-1C22.5,133,22,132.6,21.5,132.6z M17.2,210.5C17.2,210.5,17.2,210.5,17.2,210.5
		C17.2,210.5,17.2,210.5,17.2,210.5C17.2,210.5,17.2,210.5,17.2,210.5C17.2,210.5,17.2,210.5,17.2,210.5z M21.5,80
		c-1.2,0-2.3,1-2.3,2.3c0,1.2,1,2.3,2.3,2.3c1.2,0,2.3-1,2.3-2.3C23.7,81.1,22.7,80,21.5,80z M17.2,193.3c-0.1,0-0.1,0.1-0.1,0.1
		c0,0.1,0.1,0.1,0.1,0.1s0.1-0.1,0.1-0.1C17.3,193.3,17.3,193.3,17.2,193.3z M21.5,97.6c-1,0-1.8,0.8-1.8,1.8c0,1,0.8,1.8,1.8,1.8
		c1,0,1.8-0.8,1.8-1.8C23.3,98.4,22.5,97.6,21.5,97.6z M21.4,201.9C21.4,202,21.5,202,21.4,201.9C21.5,202,21.5,202,21.4,201.9
		C21.5,201.9,21.5,201.9,21.4,201.9C21.5,201.9,21.4,201.9,21.4,201.9z M21.5,150c-0.4,0-0.7,0.3-0.7,0.7c0,0.4,0.3,0.7,0.7,0.7
		c0.4,0,0.7-0.3,0.7-0.7C22.2,150.3,21.9,150,21.5,150z M21.5,184.6c-0.1,0-0.2,0.1-0.2,0.2c0,0.1,0.1,0.2,0.2,0.2
		c0.1,0,0.2-0.1,0.2-0.2C21.7,184.7,21.6,184.6,21.5,184.6z M21.5,167.4c-0.2,0-0.4,0.2-0.4,0.4c0,0.2,0.2,0.4,0.4,0.4
		c0.2,0,0.4-0.2,0.4-0.4C21.9,167.5,21.7,167.4,21.5,167.4z M17.2,158.7c-0.3,0-0.5,0.2-0.5,0.5c0,0.3,0.2,0.5,0.5,0.5
		s0.5-0.2,0.5-0.5C17.8,158.9,17.5,158.7,17.2,158.7z M12.9,184.6c-0.1,0-0.2,0.1-0.2,0.2c0,0.1,0.1,0.2,0.2,0.2
		c0.1,0,0.2-0.1,0.2-0.2C13.1,184.7,13.1,184.6,12.9,184.6z M12.9,201.9C12.9,202,12.9,202,12.9,201.9c0.1,0.1,0.1,0,0.1,0
		C13,201.9,13,201.9,12.9,201.9C12.9,201.9,12.9,201.9,12.9,201.9z M17.2,88.8c-1.1,0-2,0.9-2,2c0,1.1,0.9,2,2,2c1.1,0,2-0.9,2-2
		C19.2,89.7,18.3,88.8,17.2,88.8z M12.9,150c-0.4,0-0.7,0.3-0.7,0.7c0,0.4,0.3,0.7,0.7,0.7c0.4,0,0.7-0.3,0.7-0.7
		C13.6,150.3,13.3,150,12.9,150z M17.2,176c-0.2,0-0.3,0.1-0.3,0.3c0,0.2,0.1,0.3,0.3,0.3c0.2,0,0.3-0.1,0.3-0.3
		C17.5,176.1,17.4,176,17.2,176z M17.2,141.3c-0.5,0-0.8,0.4-0.8,0.8c0,0.5,0.4,0.8,0.8,0.8s0.8-0.4,0.8-0.8
		C18,141.7,17.7,141.3,17.2,141.3z M25.8,76.2c1.3,0,2.4-1.1,2.4-2.4c0-1.3-1.1-2.4-2.4-2.4c-1.3,0-2.4,1.1-2.4,2.4
		C23.3,75.1,24.4,76.2,25.8,76.2z M17.2,123.8c-0.7,0-1.2,0.5-1.2,1.2s0.5,1.2,1.2,1.2s1.2-0.5,1.2-1.2S17.9,123.8,17.2,123.8z
		 M17.2,106.4c-0.9,0-1.6,0.7-1.6,1.6s0.7,1.6,1.6,1.6c0.9,0,1.6-0.7,1.6-1.6S18.1,106.4,17.2,106.4z M12.9,167.3
		c-0.2,0-0.4,0.2-0.4,0.4c0,0.2,0.2,0.4,0.4,0.4c0.2,0,0.4-0.2,0.4-0.4C13.4,167.5,13.2,167.3,12.9,167.3z M30,167.4
		c-0.2,0-0.4,0.2-0.4,0.4c0,0.2,0.2,0.4,0.4,0.4c0.2,0,0.4-0.2,0.4-0.4C30.4,167.5,30.2,167.4,30,167.4z M25.8,88.9
		c-1.1,0-2,0.9-2,2c0,1.1,0.9,2,2,2c1.1,0,2-0.9,2-2C27.7,89.7,26.9,88.9,25.8,88.9z M30,150c-0.4,0-0.7,0.3-0.7,0.7
		c0,0.4,0.3,0.7,0.7,0.7c0.4,0,0.7-0.3,0.7-0.7C30.7,150.3,30.4,150,30,150z M30,132.6c-0.5,0-1,0.4-1,1c0,0.5,0.4,1,1,1
		c0.5,0,1-0.4,1-1C31,133,30.6,132.6,30,132.6z M30,184.7c-0.1,0-0.2,0.1-0.2,0.2c0,0.1,0.1,0.2,0.2,0.2c0.1,0,0.2-0.1,0.2-0.2
		C30.2,184.7,30.1,184.7,30,184.7z M34.3,88.9c-1.1,0-1.9,0.9-1.9,1.9c0,1.1,0.9,1.9,1.9,1.9c1.1,0,1.9-0.9,1.9-1.9
		C36.2,89.8,35.4,88.9,34.3,88.9z M34.3,123.9c-0.6,0-1.1,0.5-1.1,1.1c0,0.6,0.5,1.1,1.1,1.1c0.6,0,1.1-0.5,1.1-1.1
		C35.4,124.4,34.9,123.9,34.3,123.9z M34.3,106.4c-0.8,0-1.5,0.7-1.5,1.5c0,0.8,0.7,1.5,1.5,1.5c0.8,0,1.5-0.7,1.5-1.5
		C35.8,107.1,35.1,106.4,34.3,106.4z M34.3,76.2c1.3,0,2.4-1.1,2.4-2.4c0-1.3-1.1-2.4-2.4-2.4c-1.3,0-2.4,1.1-2.4,2.4
		C31.9,75.1,33,76.2,34.3,76.2z M30,115.1c-0.7,0-1.4,0.6-1.4,1.4c0,0.7,0.6,1.4,1.4,1.4c0.7,0,1.4-0.6,1.4-1.4
		C31.4,115.7,30.8,115.1,30,115.1z M30,201.9C30,202,30,202,30,201.9C30.1,202,30.1,202,30,201.9C30.1,201.9,30.1,201.9,30,201.9
		C30,201.9,30,201.9,30,201.9z M25.8,123.9c-0.6,0-1.2,0.5-1.2,1.2s0.5,1.2,1.2,1.2c0.6,0,1.2-0.5,1.2-1.2S26.4,123.9,25.8,123.9z
		 M25.8,158.7c-0.3,0-0.5,0.2-0.5,0.5c0,0.3,0.2,0.5,0.5,0.5c0.3,0,0.5-0.2,0.5-0.5C26.3,158.9,26,158.7,25.8,158.7z M30,97.6
		c-1,0-1.8,0.8-1.8,1.8c0,1,0.8,1.8,1.8,1.8c1,0,1.8-0.8,1.8-1.8C31.8,98.4,31,97.6,30,97.6z M25.8,106.4c-0.9,0-1.5,0.7-1.5,1.5
		c0,0.9,0.7,1.5,1.5,1.5c0.9,0,1.5-0.7,1.5-1.5C27.3,107.1,26.6,106.4,25.8,106.4z M25.8,141.3c-0.4,0-0.8,0.4-0.8,0.8
		c0,0.4,0.4,0.8,0.8,0.8c0.4,0,0.8-0.4,0.8-0.8C26.6,141.7,26.2,141.3,25.8,141.3z M25.8,176c-0.2,0-0.3,0.1-0.3,0.3
		c0,0.2,0.1,0.3,0.3,0.3c0.2,0,0.3-0.1,0.3-0.3C26,176.1,25.9,176,25.8,176z M30,80.1c-1.2,0-2.2,1-2.2,2.2c0,1.2,1,2.2,2.2,2.2
		s2.2-1,2.2-2.2C32.2,81.1,31.2,80.1,30,80.1z M25.8,193.3c-0.1,0-0.1,0.1-0.1,0.1c0,0.1,0.1,0.1,0.1,0.1c0.1,0,0.1-0.1,0.1-0.1
		C25.9,193.3,25.8,193.3,25.8,193.3z M25.7,210.5C25.7,210.5,25.7,210.5,25.7,210.5C25.8,210.5,25.8,210.5,25.7,210.5
		C25.8,210.5,25.8,210.5,25.7,210.5C25.7,210.5,25.7,210.5,25.7,210.5z M8.6,210.5C8.6,210.5,8.6,210.5,8.6,210.5
		C8.7,210.5,8.7,210.5,8.6,210.5C8.7,210.5,8.7,210.5,8.6,210.5C8.6,210.5,8.6,210.5,8.6,210.5z M35.4,48.1c0,1.8,1.4,3.2,3.2,3.2
		c1.8,0,3.2-1.4,3.2-3.2s-1.4-3.2-3.2-3.2C36.8,44.9,35.4,46.4,35.4,48.1z M12.9,132.6c-0.6,0-1,0.5-1,1c0,0.6,0.5,1,1,1
		c0.6,0,1-0.5,1-1C14,133,13.5,132.6,12.9,132.6z M34.3,36.1c-1.9,0-3.5,1.6-3.5,3.5c0,1.9,1.6,3.5,3.5,3.5c1.9,0,3.5-1.6,3.5-3.5
		C37.8,37.7,36.2,36.1,34.3,36.1z M43.9,48.1c0,1.8,1.4,3.2,3.2,3.2c1.8,0,3.2-1.4,3.2-3.2s-1.4-3.2-3.2-3.2
		C45.4,44.9,43.9,46.4,43.9,48.1z M26.8,48.1c0,1.8,1.5,3.2,3.2,3.2c1.8,0,3.2-1.5,3.2-3.2c0-1.8-1.5-3.2-3.2-3.2
		C28.2,44.9,26.8,46.3,26.8,48.1z M25.8,36c-2,0-3.5,1.6-3.5,3.5s1.6,3.5,3.5,3.5c1.9,0,3.5-1.6,3.5-3.5S27.7,36,25.8,36z
		 M61.1,48.1c0,1.7,1.4,3.1,3.1,3.1c1.7,0,3.1-1.4,3.1-3.1c0-1.7-1.4-3.1-3.1-3.1C62.5,45,61.1,46.4,61.1,48.1z M59.9,36.2
		c-1.9,0-3.4,1.5-3.4,3.4c0,1.9,1.5,3.4,3.4,3.4c1.9,0,3.4-1.5,3.4-3.4C63.3,37.7,61.8,36.2,59.9,36.2z M69.7,48.1
		c0,1.7,1.4,3.1,3.1,3.1c1.7,0,3.1-1.4,3.1-3.1c0-1.7-1.4-3.1-3.1-3.1C71.1,45,69.7,46.4,69.7,48.1z M52.5,48.1
		c0,1.7,1.4,3.2,3.2,3.2c1.7,0,3.2-1.4,3.2-3.2c0-1.7-1.4-3.2-3.2-3.2C53.9,45,52.5,46.4,52.5,48.1z M51.4,36.1
		c-1.9,0-3.4,1.5-3.4,3.4c0,1.9,1.5,3.4,3.4,3.4c1.9,0,3.4-1.5,3.4-3.4C54.8,37.7,53.3,36.1,51.4,36.1z M1,48.1
		c0,1.9,1.5,3.4,3.4,3.4c1.9,0,3.4-1.5,3.4-3.4s-1.5-3.4-3.4-3.4C2.5,44.8,1,46.3,1,48.1z M18.2,48.1c0,1.8,1.5,3.3,3.3,3.3
		c1.8,0,3.3-1.5,3.3-3.3c0-1.8-1.5-3.3-3.3-3.3C19.7,44.8,18.2,46.3,18.2,48.1z M3.2,56.7c0-1.6-1.2-2.9-2.7-3v6.1
		C2,59.5,3.2,58.2,3.2,56.7z M1.6,65.2c0,1.6,1.3,2.8,2.8,2.8c1.6,0,2.8-1.3,2.8-2.8c0-1.6-1.3-2.8-2.8-2.8
		C2.8,62.4,1.6,63.7,1.6,65.2z M3.8,39.6c0-1.9-1.4-3.4-3.3-3.6v7.2C2.3,43,3.8,41.5,3.8,39.6z M9.6,48.1c0,1.8,1.5,3.3,3.3,3.3
		c1.8,0,3.3-1.5,3.3-3.3c0-1.8-1.5-3.3-3.3-3.3C11.1,44.8,9.6,46.3,9.6,48.1z M17.2,36c-2,0-3.6,1.6-3.6,3.6c0,2,1.6,3.6,3.6,3.6
		s3.6-1.6,3.6-3.6C20.8,37.6,19.2,36,17.2,36z M8.7,36c-2,0-3.6,1.6-3.6,3.6c0,2,1.6,3.6,3.6,3.6c2,0,3.6-1.6,3.6-3.6
		C12.2,37.6,10.6,36,8.7,36z M5.6,56.7c0,1.7,1.4,3.1,3.1,3.1c1.7,0,3.1-1.4,3.1-3.1c0-1.7-1.4-3.1-3.1-3.1C7,53.6,5.6,55,5.6,56.7z
		 M42.8,36.1c-1.9,0-3.5,1.5-3.5,3.5c0,1.9,1.5,3.5,3.5,3.5c1.9,0,3.5-1.5,3.5-3.5C46.3,37.7,44.8,36.1,42.8,36.1z M8.7,106.3
		c-0.9,0-1.6,0.7-1.6,1.6c0,0.9,0.7,1.6,1.6,1.6c0.9,0,1.6-0.7,1.6-1.6C10.3,107.1,9.5,106.3,8.7,106.3z M2.7,73.8
		c0-1.3-1-2.3-2.2-2.5v5C1.7,76.1,2.7,75,2.7,73.8z M8.7,176c-0.2,0-0.3,0.1-0.3,0.3c0,0.2,0.1,0.3,0.3,0.3c0.2,0,0.3-0.1,0.3-0.3
		C9,176.1,8.8,176,8.7,176z M68.5,36.2c-1.9,0-3.4,1.5-3.4,3.4c0,1.9,1.5,3.4,3.4,3.4c1.9,0,3.4-1.5,3.4-3.4
		C71.8,37.7,70.3,36.2,68.5,36.2z M8.7,141.3c-0.5,0-0.9,0.4-0.9,0.9c0,0.5,0.4,0.9,0.9,0.9c0.5,0,0.9-0.4,0.9-0.9
		C9.5,141.6,9.1,141.3,8.7,141.3z M8.7,158.7c-0.3,0-0.5,0.2-0.5,0.5c0,0.3,0.2,0.5,0.5,0.5c0.3,0,0.5-0.2,0.5-0.5
		C9.2,158.9,9,158.7,8.7,158.7z M8.7,193.3c-0.1,0-0.1,0.1-0.1,0.1c0,0.1,0.1,0.1,0.1,0.1c0.1,0,0.1-0.1,0.1-0.1
		C8.8,193.3,8.7,193.3,8.7,193.3z M12.9,97.6c-1,0-1.8,0.8-1.8,1.8s0.8,1.8,1.8,1.8c1,0,1.8-0.8,1.8-1.8S13.9,97.6,12.9,97.6z
		 M12.9,115.1c-0.8,0-1.4,0.6-1.4,1.4c0,0.8,0.6,1.4,1.4,1.4c0.8,0,1.4-0.6,1.4-1.4C14.3,115.7,13.7,115.1,12.9,115.1z M12.9,84.6
		c1.3,0,2.3-1,2.3-2.3c0-1.3-1-2.3-2.3-2.3c-1.3,0-2.3,1-2.3,2.3C10.7,83.6,11.7,84.6,12.9,84.6z M8.7,123.8c-0.7,0-1.2,0.5-1.2,1.2
		c0,0.7,0.5,1.2,1.2,1.2c0.7,0,1.2-0.5,1.2-1.2C9.9,124.4,9.3,123.8,8.7,123.8z M4.4,115.1c-0.8,0-1.4,0.6-1.4,1.4
		c0,0.8,0.6,1.4,1.4,1.4c0.8,0,1.4-0.6,1.4-1.4C5.8,115.7,5.2,115.1,4.4,115.1z M4.4,97.6c-1,0-1.8,0.8-1.8,1.8c0,1,0.8,1.8,1.8,1.8
		s1.8-0.8,1.8-1.8C6.2,98.4,5.4,97.6,4.4,97.6z M4.4,132.5c-0.6,0-1,0.5-1,1s0.5,1,1,1c0.6,0,1-0.5,1-1S5,132.5,4.4,132.5z
		 M4.4,84.6c1.3,0,2.3-1,2.3-2.3c0-1.3-1-2.3-2.3-2.3c-1.3,0-2.3,1-2.3,2.3C2.1,83.6,3.1,84.6,4.4,84.6z M4.4,184.6
		c-0.1,0-0.2,0.1-0.2,0.2c0,0.1,0.1,0.2,0.2,0.2s0.2-0.1,0.2-0.2C4.6,184.7,4.5,184.6,4.4,184.6z M8.7,88.8c-1.1,0-2,0.9-2,2
		c0,1.1,0.9,2,2,2c1.1,0,2-0.9,2-2C10.7,89.7,9.8,88.8,8.7,88.8z M4.3,201.9C4.3,202,4.3,202,4.3,201.9c0.1,0.1,0.1,0,0.1,0
		C4.5,201.9,4.4,201.9,4.3,201.9C4.3,201.9,4.3,201.9,4.3,201.9z M4.4,150c-0.4,0-0.7,0.3-0.7,0.7c0,0.4,0.3,0.7,0.7,0.7
		s0.7-0.3,0.7-0.7C5.1,150.3,4.8,150,4.4,150z M4.4,167.3c-0.2,0-0.5,0.2-0.5,0.4c0,0.2,0.2,0.5,0.5,0.5c0.2,0,0.5-0.2,0.5-0.5
		C4.8,167.5,4.6,167.3,4.4,167.3z"/>
</g>
</svg>
