<?xml version="1.0" encoding="utf-8"?>
<!-- Generator: Adobe Illustrator 19.0.0, SVG Export Plug-In . SVG Version: 6.00 Build 0)  -->
<svg version="1.1" id="Capa_1" xmlns="http://www.w3.org/2000/svg" xmlns:xlink="http://www.w3.org/1999/xlink" x="0px" y="0px"
	 viewBox="0 0 118.9 248.5" style="enable-background:new 0 0 118.9 248.5;" xml:space="preserve">
<style type="text/css">
	.st0{fill-rule:evenodd;clip-rule:evenodd;fill:url(#XMLID_37_);}
	.st1{opacity:0.3;fill:#00291B;}
</style>
<linearGradient id="XMLID_37_" gradientUnits="userSpaceOnUse" x1="89.511" y1="-22.8355" x2="32.1779" y2="257.8294">
	<stop  offset="0" style="stop-color:#FF6D1F"/>
	<stop  offset="0.1762" style="stop-color:#FE681E"/>
	<stop  offset="0.3735" style="stop-color:#FB5B1A"/>
	<stop  offset="0.581" style="stop-color:#F54513"/>
	<stop  offset="0.7941" style="stop-color:#ED250B"/>
	<stop  offset="1" style="stop-color:#E40000"/>
</linearGradient>
<rect id="XMLID_35_" x="0" class="st0" width="118.9" height="248.5"/>
<path id="XMLID_3_" class="st1" d="M39.8,248.5l20.2-120.3L26.5,248.5H39.8z M66.5,248.5l-6.4-120.3l-6.4,120.3H66.5z M0,248.5h11.4
	l48.7-120.3L0,241.3V248.5z M0,150.1l60.1-21.9L0,143.7V150.1z M0,165.3l60.1-37.1L0,157.6V165.3z M93.6,248.5L60.1,128.3
	l20.2,120.3H93.6z M0,216.1l60.1-87.9L0,199.3V216.1z M118.9,248.5v-9.6L60.1,128.3l48.7,120.3H118.9z M118.9,131.3l-58.8-3
	l58.8,8.8V131.3z M118.9,119.5l-58.8,8.8l58.8-3V119.5z M118.9,143.4l-58.8-15.2l58.8,21.4V143.4z M118.9,197.8l-58.8-69.6
	l58.8,86.1V197.8z M118.9,157l-58.8-28.7l58.8,36.3V157z M118.9,173.9l-58.8-45.6l58.8,55.9V173.9z M0,185.3l60.1-57.1L0,174.8
	V185.3z M118.9,0h-7L60.1,128.3l58.8-110.7V0z M81.6,0L60.1,128.3L95.8,0H81.6z M118.9,42.2l-58.8,86.1l58.8-69.6V42.2z M118.9,91.9
	l-58.8,36.3l58.8-28.7V91.9z M118.9,106.8l-58.8,21.4l58.8-15.2V106.8z M53.3,0l6.8,128.3L66.9,0H53.3z M118.9,72.3l-58.8,55.9
	l58.8-45.6V72.3z M0,112.8l60.1,15.5L0,106.4V112.8z M24.3,0l35.8,128.3L38.5,0H24.3z M0,137.2l60.1-9L0,131.4V137.2z M0,125.1
	l60.1,3.1l-60.1-9V125.1z M0,98.9l60.1,29.3L0,91.2V98.9z M0,0v15.2l60.1,113L8.2,0H0z M0,81.7l60.1,46.6L0,71.2V81.7z M0,57.2
	l60.1,71L0,40.4V57.2z"/>
</svg>
