<?xml version="1.0" encoding="utf-8"?>
<!-- Generator: Adobe Illustrator 19.0.0, SVG Export Plug-In . SVG Version: 6.00 Build 0)  -->
<svg version="1.1" id="Capa_1" xmlns="http://www.w3.org/2000/svg" xmlns:xlink="http://www.w3.org/1999/xlink" x="0px" y="0px"
	 viewBox="0 0 118.9 248.5" style="enable-background:new 0 0 118.9 248.5;" xml:space="preserve">
<style type="text/css">
	.st0{fill-rule:evenodd;clip-rule:evenodd;fill:url(#XMLID_394_);}
</style>
<g id="XMLID_3_">
	<linearGradient id="XMLID_394_" gradientUnits="userSpaceOnUse" x1="59.4619" y1="-28.4845" x2="59.4619" y2="282.0291">
		<stop  offset="0" style="stop-color:#FFD400"/>
		<stop  offset="0.1969" style="stop-color:#FFCF00"/>
		<stop  offset="0.4174" style="stop-color:#FFC200"/>
		<stop  offset="0.6492" style="stop-color:#FFAC00"/>
		<stop  offset="0.8875" style="stop-color:#FF8C00"/>
		<stop  offset="1" style="stop-color:#FF7B00"/>
	</linearGradient>
	<rect id="XMLID_4_" class="st0" width="118.9" height="248.5"/>
	<path id="XMLID_344_" d="M55.2,99.2c0.3,0,0.6-0.3,0.6-0.6c0-0.3-0.3-0.6-0.6-0.6c-0.3,0-0.6,0.3-0.6,0.6
		C54.6,99,54.9,99.2,55.2,99.2z M55.2,134c0.7,0,1.2-0.6,1.2-1.2c0-0.7-0.6-1.2-1.2-1.2c-0.7,0-1.2,0.6-1.2,1.2
		C54,133.5,54.5,134,55.2,134z M85.1,90.6c0.3,0,0.5-0.2,0.5-0.5c0-0.3-0.2-0.5-0.5-0.5c-0.3,0-0.5,0.2-0.5,0.5
		C84.6,90.4,84.8,90.6,85.1,90.6z M55.2,116.6c0.5,0,0.9-0.4,0.9-0.9s-0.4-0.9-0.9-0.9c-0.5,0-0.9,0.4-0.9,0.9
		S54.7,116.6,55.2,116.6z M55.2,81.9c0.2,0,0.4-0.2,0.4-0.4c0-0.2-0.2-0.4-0.4-0.4s-0.4,0.2-0.4,0.4C54.8,81.7,55,81.9,55.2,81.9z
		 M50.9,160.3c1,0,1.8-0.8,1.8-1.8c0-1-0.8-1.8-1.8-1.8s-1.8,0.8-1.8,1.8C49.1,159.5,49.9,160.3,50.9,160.3z M55.2,169.1
		c1.2,0,2.1-0.9,2.1-2.1c0-1.2-0.9-2.1-2.1-2.1c-1.2,0-2.1,0.9-2.1,2.1C53.1,168.1,54,169.1,55.2,169.1z M55.2,64.6
		c0.1,0,0.2-0.1,0.2-0.2c0-0.1-0.1-0.2-0.2-0.2S55,64.4,55,64.4C55,64.5,55.1,64.6,55.2,64.6z M55.2,47.4
		C55.2,47.3,55.2,47.3,55.2,47.4C55.2,47.3,55.2,47.3,55.2,47.4C55.2,47.4,55.2,47.4,55.2,47.4C55.2,47.4,55.2,47.4,55.2,47.4z
		 M50.9,173.2c-1.3,0-2.3,1-2.3,2.3c0,1.3,1,2.3,2.3,2.3c1.3,0,2.3-1,2.3-2.3C53.2,174.3,52.2,173.2,50.9,173.2z M63.7,64.6
		c0.1,0,0.2-0.1,0.2-0.2c0-0.1-0.1-0.2-0.2-0.2c-0.1,0-0.2,0.1-0.2,0.2C63.6,64.5,63.6,64.6,63.7,64.6z M59.5,173.2
		c-1.3,0-2.3,1-2.3,2.3c0,1.3,1,2.3,2.3,2.3c1.3,0,2.3-1,2.3-2.3C61.8,174.3,60.7,173.2,59.5,173.2z M59.5,73.2
		c0.1,0,0.2-0.1,0.2-0.2c0-0.1-0.1-0.2-0.2-0.2c-0.1,0-0.2,0.1-0.2,0.2C59.2,73.1,59.3,73.2,59.5,73.2z M63.8,47.4
		C63.8,47.3,63.8,47.3,63.8,47.4C63.7,47.3,63.7,47.3,63.8,47.4C63.7,47.4,63.7,47.4,63.8,47.4C63.8,47.4,63.8,47.4,63.8,47.4z
		 M59.5,142.8c0.8,0,1.4-0.6,1.4-1.4c0-0.8-0.6-1.4-1.4-1.4c-0.8,0-1.4,0.6-1.4,1.4C58,142.2,58.7,142.8,59.5,142.8z M59.5,56
		C59.5,56,59.6,56,59.5,56c0.1-0.1,0.1-0.2,0-0.2C59.4,55.8,59.4,55.8,59.5,56C59.4,56,59.4,56,59.5,56z M59.5,125.3
		c0.6,0,1.1-0.5,1.1-1.1c0-0.6-0.5-1.1-1.1-1.1c-0.6,0-1.1,0.5-1.1,1.1C58.4,124.9,58.9,125.3,59.5,125.3z M59.5,90.6
		c0.3,0,0.5-0.2,0.5-0.5c0-0.3-0.2-0.5-0.5-0.5c-0.3,0-0.5,0.2-0.5,0.5C59,90.3,59.2,90.6,59.5,90.6z M42.4,90.5
		c0.2,0,0.4-0.2,0.4-0.4c0-0.2-0.2-0.4-0.4-0.4c-0.2,0-0.4,0.2-0.4,0.4C41.9,90.3,42.1,90.5,42.4,90.5z M50.9,142.8
		c0.8,0,1.4-0.6,1.4-1.4c0-0.8-0.6-1.4-1.4-1.4c-0.8,0-1.4,0.6-1.4,1.4C49.5,142.1,50.1,142.8,50.9,142.8z M46.6,99.2
		c0.3,0,0.6-0.3,0.6-0.6c0-0.3-0.3-0.6-0.6-0.6c-0.3,0-0.6,0.3-0.6,0.6C46.1,98.9,46.3,99.2,46.6,99.2z M46.6,64.6
		c0.1,0,0.1-0.1,0.1-0.1c0-0.1-0.1-0.1-0.1-0.1c-0.1,0-0.1,0.1-0.1,0.1C46.5,64.5,46.6,64.6,46.6,64.6z M46.7,47.4
		C46.7,47.3,46.7,47.3,46.7,47.4C46.6,47.3,46.6,47.3,46.7,47.4C46.6,47.4,46.6,47.4,46.7,47.4C46.7,47.4,46.7,47.4,46.7,47.4z
		 M46.6,81.9c0.2,0,0.3-0.1,0.3-0.3c0-0.2-0.1-0.3-0.3-0.3c-0.2,0-0.3,0.1-0.3,0.3C46.3,81.7,46.5,81.9,46.6,81.9z M42.4,173.3
		c-1.3,0-2.3,1-2.3,2.3c0,1.3,1,2.3,2.3,2.3c1.3,0,2.3-1,2.3-2.3C44.6,174.3,43.6,173.3,42.4,173.3z M42.4,125.3c0.6,0,1-0.5,1-1
		c0-0.6-0.5-1-1-1c-0.6,0-1,0.5-1,1C41.4,124.8,41.8,125.3,42.4,125.3z M42.4,107.9c0.4,0,0.7-0.3,0.7-0.7c0-0.4-0.3-0.7-0.7-0.7
		c-0.4,0-0.7,0.3-0.7,0.7C41.7,107.6,42,107.9,42.4,107.9z M42.4,142.8c0.8,0,1.4-0.6,1.4-1.4s-0.6-1.4-1.4-1.4
		c-0.8,0-1.4,0.6-1.4,1.4S41.6,142.8,42.4,142.8z M42.4,160.2c1,0,1.8-0.8,1.8-1.8c0-1-0.8-1.8-1.8-1.8c-1,0-1.8,0.8-1.8,1.8
		C40.6,159.4,41.4,160.2,42.4,160.2z M46.6,116.6c0.5,0,0.9-0.4,0.9-0.9s-0.4-0.9-0.9-0.9c-0.5,0-0.9,0.4-0.9,0.9
		S46.2,116.6,46.6,116.6z M50.9,90.5c0.2,0,0.5-0.2,0.5-0.5c0-0.2-0.2-0.5-0.5-0.5c-0.2,0-0.4,0.2-0.4,0.5
		C50.5,90.3,50.7,90.5,50.9,90.5z M63.7,81.9c0.2,0,0.4-0.2,0.4-0.4c0-0.2-0.2-0.4-0.4-0.4c-0.2,0-0.4,0.2-0.4,0.4
		C63.4,81.7,63.5,81.9,63.7,81.9z M51,55.9C51,55.9,51,55.8,51,55.9c-0.1-0.1-0.1,0-0.1,0C50.8,55.9,50.9,56,51,55.9
		C51,56,51,55.9,51,55.9z M50.9,125.3c0.6,0,1-0.5,1-1s-0.5-1-1-1c-0.6,0-1,0.5-1,1S50.3,125.3,50.9,125.3z M50.9,107.9
		c0.4,0,0.7-0.3,0.7-0.7c0-0.4-0.3-0.7-0.7-0.7c-0.4,0-0.7,0.3-0.7,0.7C50.2,107.6,50.5,107.9,50.9,107.9z M46.6,134
		c0.7,0,1.2-0.5,1.2-1.2c0-0.7-0.5-1.2-1.2-1.2c-0.7,0-1.2,0.5-1.2,1.2C45.4,133.5,46,134,46.6,134z M50.9,73.2
		c0.1,0,0.2-0.1,0.2-0.2c0-0.1-0.1-0.2-0.2-0.2c-0.1,0-0.2,0.1-0.2,0.2C50.7,73.1,50.8,73.2,50.9,73.2z M46.6,151.5
		c0.9,0,1.6-0.7,1.6-1.6c0-0.9-0.7-1.6-1.6-1.6c-0.9,0-1.6,0.7-1.6,1.6C45,150.8,45.8,151.5,46.6,151.5z M46.6,169.1
		c1.1,0,2.1-0.9,2.1-2.1c0-1.1-0.9-2.1-2.1-2.1c-1.1,0-2.1,0.9-2.1,2.1C44.6,168.1,45.5,169.1,46.6,169.1z M59.5,107.9
		c0.4,0,0.7-0.3,0.7-0.7c0-0.4-0.3-0.7-0.7-0.7c-0.4,0-0.7,0.3-0.7,0.7C58.7,107.6,59.1,107.9,59.5,107.9z M76.6,160.4
		c1.1,0,1.9-0.9,1.9-1.9c0-1.1-0.9-1.9-1.9-1.9c-1.1,0-1.9,0.9-1.9,1.9C74.6,159.5,75.5,160.4,76.6,160.4z M80.8,64.6
		c0.1,0,0.2-0.1,0.2-0.2c0-0.1-0.1-0.2-0.2-0.2c-0.1,0-0.2,0.1-0.2,0.2C80.6,64.6,80.7,64.6,80.8,64.6z M76.6,125.4
		c0.6,0,1.1-0.5,1.1-1.1c0-0.6-0.5-1.1-1.1-1.1c-0.6,0-1.1,0.5-1.1,1.1C75.4,124.9,75.9,125.4,76.6,125.4z M63.7,99.2
		c0.3,0,0.6-0.3,0.6-0.6c0-0.3-0.3-0.6-0.6-0.6c-0.3,0-0.6,0.3-0.6,0.6C63.1,99,63.4,99.2,63.7,99.2z M76.6,142.8
		c0.8,0,1.5-0.7,1.5-1.5s-0.7-1.5-1.5-1.5c-0.8,0-1.5,0.7-1.5,1.5S75.7,142.8,76.6,142.8z M76.6,73.3c0.1,0,0.3-0.1,0.3-0.3
		c0-0.1-0.1-0.3-0.3-0.3c-0.1,0-0.3,0.1-0.3,0.3C76.3,73.1,76.4,73.3,76.6,73.3z M76.6,108c0.4,0,0.8-0.4,0.8-0.8
		c0-0.4-0.4-0.8-0.8-0.8c-0.4,0-0.8,0.3-0.8,0.8C75.8,107.6,76.1,108,76.6,108z M76.6,56C76.6,56,76.6,56,76.6,56
		c0.1-0.1,0.1-0.2,0-0.2C76.5,55.8,76.5,55.8,76.6,56C76.5,56,76.5,56,76.6,56z M76.6,90.6c0.3,0,0.5-0.2,0.5-0.5
		c0-0.3-0.2-0.5-0.5-0.5c-0.3,0-0.5,0.2-0.5,0.5C76.1,90.4,76.3,90.6,76.6,90.6z M76.6,173.1c-1.3,0-2.4,1.1-2.4,2.4
		c0,1.3,1.1,2.4,2.4,2.4c1.3,0,2.4-1.1,2.4-2.4C78.9,174.2,77.9,173.1,76.6,173.1z M80.9,47.4C80.9,47.3,80.9,47.3,80.9,47.4
		C80.8,47.3,80.8,47.3,80.9,47.4C80.8,47.4,80.8,47.4,80.9,47.4C80.9,47.4,80.9,47.4,80.9,47.4z M85.1,73.3c0.2,0,0.3-0.1,0.3-0.3
		c0-0.2-0.1-0.3-0.3-0.3c-0.2,0-0.3,0.1-0.3,0.3C84.8,73.1,84.9,73.3,85.1,73.3z M80.8,169.1c1.2,0,2.2-1,2.2-2.2
		c0-1.2-1-2.2-2.2-2.2c-1.2,0-2.2,1-2.2,2.2C78.7,168.2,79.6,169.1,80.8,169.1z M85.1,56C85.2,56,85.2,56,85.1,56
		c0.1-0.1,0.1-0.2,0-0.2C85,55.8,85,55.8,85.1,56C85,56,85,56,85.1,56z M80.8,151.6c1,0,1.7-0.8,1.7-1.7c0-1-0.8-1.7-1.7-1.7
		c-1,0-1.7,0.8-1.7,1.7C79.1,150.9,79.9,151.6,80.8,151.6z M80.8,99.3c0.4,0,0.6-0.3,0.6-0.6c0-0.4-0.3-0.6-0.6-0.6
		s-0.6,0.3-0.6,0.6C80.2,99,80.5,99.3,80.8,99.3z M80.8,134.1c0.7,0,1.3-0.6,1.3-1.3c0-0.7-0.6-1.3-1.3-1.3c-0.7,0-1.3,0.6-1.3,1.3
		C79.5,133.5,80.1,134.1,80.8,134.1z M80.8,81.9c0.2,0,0.4-0.2,0.4-0.4c0-0.2-0.2-0.4-0.4-0.4c-0.2,0-0.4,0.2-0.4,0.4
		C80.4,81.7,80.6,81.9,80.8,81.9z M80.8,116.7c0.5,0,1-0.4,1-1s-0.4-1-1-1c-0.5,0-1,0.4-1,1S80.3,116.7,80.8,116.7z M72.3,169.1
		c1.2,0,2.1-1,2.1-2.1c0-1.2-1-2.1-2.1-2.1c-1.2,0-2.1,1-2.1,2.1C70.1,168.2,71.1,169.1,72.3,169.1z M68,56C68.1,56,68.1,56,68,56
		c0.1-0.1,0.1-0.2,0-0.2C68,55.8,67.9,55.8,68,56C67.9,56,68,56,68,56z M68,90.6c0.3,0,0.5-0.2,0.5-0.5c0-0.3-0.2-0.5-0.5-0.5
		c-0.3,0-0.5,0.2-0.5,0.5C67.5,90.3,67.7,90.6,68,90.6z M68,107.9c0.4,0,0.8-0.3,0.8-0.8c0-0.4-0.3-0.8-0.8-0.8
		c-0.4,0-0.8,0.3-0.8,0.8C67.2,107.6,67.6,107.9,68,107.9z M68,73.3c0.1,0,0.3-0.1,0.3-0.3c0-0.1-0.1-0.3-0.3-0.3
		c-0.1,0-0.3,0.1-0.3,0.3C67.7,73.1,67.9,73.3,68,73.3z M63.7,134.1c0.7,0,1.3-0.6,1.3-1.3s-0.6-1.3-1.3-1.3c-0.7,0-1.3,0.6-1.3,1.3
		S63,134.1,63.7,134.1z M68,125.3c0.6,0,1.1-0.5,1.1-1.1c0-0.6-0.5-1.1-1.1-1.1c-0.6,0-1.1,0.5-1.1,1.1
		C66.9,124.9,67.4,125.3,68,125.3z M63.7,116.6c0.5,0,0.9-0.4,0.9-0.9c0-0.5-0.4-0.9-0.9-0.9c-0.5,0-0.9,0.4-0.9,0.9
		C62.8,116.2,63.2,116.6,63.7,116.6z M63.7,151.6c0.9,0,1.7-0.7,1.7-1.7c0-0.9-0.7-1.7-1.7-1.7c-0.9,0-1.7,0.7-1.7,1.7
		C62.1,150.8,62.8,151.6,63.7,151.6z M63.7,169.1c1.2,0,2.1-0.9,2.1-2.1c0-1.2-0.9-2.1-2.1-2.1c-1.2,0-2.1,0.9-2.1,2.1
		C61.6,168.2,62.6,169.1,63.7,169.1z M72.3,151.6c0.9,0,1.7-0.8,1.7-1.7c0-0.9-0.8-1.7-1.7-1.7c-0.9,0-1.7,0.8-1.7,1.7
		C70.6,150.8,71.4,151.6,72.3,151.6z M68,142.8c0.8,0,1.5-0.7,1.5-1.5s-0.7-1.5-1.5-1.5c-0.8,0-1.5,0.7-1.5,1.5S67.2,142.8,68,142.8
		z M72.3,81.9c0.2,0,0.4-0.2,0.4-0.4c0-0.2-0.2-0.4-0.4-0.4c-0.2,0-0.4,0.2-0.4,0.4C71.9,81.7,72.1,81.9,72.3,81.9z M72.3,116.7
		c0.5,0,0.9-0.4,0.9-0.9c0-0.5-0.4-0.9-0.9-0.9c-0.5,0-0.9,0.4-0.9,0.9C71.3,116.2,71.8,116.7,72.3,116.7z M72.3,134.1
		c0.7,0,1.3-0.6,1.3-1.3c0-0.7-0.6-1.3-1.3-1.3c-0.7,0-1.3,0.6-1.3,1.3C71,133.5,71.6,134.1,72.3,134.1z M72.3,99.3
		c0.4,0,0.6-0.3,0.6-0.6c0-0.4-0.3-0.6-0.6-0.6c-0.4,0-0.6,0.3-0.6,0.6C71.6,99,71.9,99.3,72.3,99.3z M68,173.2
		c-1.3,0-2.3,1.1-2.3,2.3c0,1.3,1.1,2.3,2.3,2.3c1.3,0,2.3-1.1,2.3-2.3C70.4,174.2,69.3,173.2,68,173.2z M72.3,47.4
		C72.3,47.3,72.3,47.3,72.3,47.4C72.3,47.3,72.2,47.3,72.3,47.4C72.2,47.4,72.3,47.4,72.3,47.4C72.3,47.4,72.3,47.4,72.3,47.4z
		 M68,160.3c1,0,1.9-0.8,1.9-1.9c0-1-0.8-1.9-1.9-1.9c-1,0-1.9,0.8-1.9,1.9C66.1,159.5,67,160.3,68,160.3z M72.3,64.6
		c0.1,0,0.2-0.1,0.2-0.2c0-0.1-0.1-0.2-0.2-0.2c-0.1,0-0.2,0.1-0.2,0.2C72.1,64.5,72.2,64.6,72.3,64.6z M55.2,151.5
		c0.9,0,1.6-0.7,1.6-1.6c0-0.9-0.7-1.6-1.6-1.6s-1.6,0.7-1.6,1.6C53.6,150.8,54.3,151.5,55.2,151.5z M12.5,151.4
		c0.8,0,1.5-0.7,1.5-1.5c0-0.8-0.7-1.5-1.5-1.5c-0.8,0-1.5,0.7-1.5,1.5C10.9,150.7,11.6,151.4,12.5,151.4z M12.5,169
		c1.1,0,2-0.9,2-2c0-1.1-0.9-2-2-2c-1.1,0-2,0.9-2,2C10.5,168.1,11.4,169,12.5,169z M16.8,55.9C16.8,55.9,16.8,55.9,16.8,55.9
		C16.7,55.9,16.7,55.9,16.8,55.9C16.7,55.9,16.7,55.9,16.8,55.9C16.8,55.9,16.8,55.9,16.8,55.9z M16.7,73.2c0.1,0,0.2-0.1,0.2-0.2
		c0-0.1-0.1-0.2-0.2-0.2c-0.1,0-0.2,0.1-0.2,0.2C16.5,73.1,16.6,73.2,16.7,73.2z M12.5,133.9c0.6,0,1.1-0.5,1.1-1.1
		s-0.5-1.1-1.1-1.1c-0.6,0-1.1,0.5-1.1,1.1S11.8,133.9,12.5,133.9z M12.5,181.6c-1.3,0-2.4,1.1-2.4,2.4c0,1.3,1.1,2.4,2.4,2.4
		c1.3,0,2.4-1.1,2.4-2.4C14.9,182.7,13.8,181.6,12.5,181.6z M12.5,64.5C12.5,64.5,12.6,64.5,12.5,64.5c0.1-0.1,0.1-0.2,0-0.2
		C12.4,64.4,12.4,64.4,12.5,64.5C12.4,64.5,12.4,64.5,12.5,64.5z M12.5,116.5c0.4,0,0.8-0.4,0.8-0.8s-0.4-0.8-0.8-0.8
		c-0.4,0-0.8,0.4-0.8,0.8S12,116.5,12.5,116.5z M12.5,81.8c0.2,0,0.3-0.1,0.3-0.3c0-0.2-0.1-0.3-0.3-0.3c-0.2,0-0.3,0.1-0.3,0.3
		C12.2,81.7,12.3,81.8,12.5,81.8z M12.5,99.1c0.3,0,0.5-0.2,0.5-0.5s-0.2-0.5-0.5-0.5c-0.3,0-0.5,0.2-0.5,0.5S12.2,99.1,12.5,99.1z
		 M16.7,107.8c0.4,0,0.6-0.3,0.6-0.6c0-0.4-0.3-0.6-0.6-0.6c-0.4,0-0.6,0.3-0.6,0.6C16.1,107.5,16.4,107.8,16.7,107.8z M21,47.4
		C21,47.3,21,47.3,21,47.4C21,47.3,21,47.3,21,47.4C21,47.4,21,47.4,21,47.4C21,47.4,21,47.4,21,47.4z M21,64.6
		c0.1,0,0.1-0.1,0.1-0.1c0-0.1-0.1-0.1-0.1-0.1c-0.1,0-0.1,0.1-0.1,0.1C20.9,64.5,20.9,64.6,21,64.6z M21,81.8
		c0.2,0,0.3-0.1,0.3-0.3c0-0.2-0.1-0.3-0.3-0.3c-0.2,0-0.3,0.1-0.3,0.3C20.7,81.7,20.9,81.8,21,81.8z M16.7,177.7
		c1.2,0,2.2-1,2.2-2.2c0-1.2-1-2.2-2.2-2.2c-1.2,0-2.2,1-2.2,2.2C14.5,176.8,15.5,177.7,16.7,177.7z M16.7,90.5
		c0.2,0,0.4-0.2,0.4-0.4c0-0.2-0.2-0.4-0.4-0.4c-0.2,0-0.4,0.2-0.4,0.4C16.4,90.3,16.5,90.5,16.7,90.5z M16.7,125.2c0.5,0,1-0.4,1-1
		s-0.4-1-1-1c-0.5,0-1,0.4-1,1S16.2,125.2,16.7,125.2z M8.2,177.7c1.2,0,2.2-1,2.2-2.2c0-1.2-1-2.2-2.2-2.2c-1.2,0-2.2,1-2.2,2.2
		C6,176.7,7,177.7,8.2,177.7z M16.7,160.2c1,0,1.7-0.8,1.7-1.7c0-1-0.8-1.7-1.7-1.7c-1,0-1.7,0.8-1.7,1.7
		C15,159.4,15.8,160.2,16.7,160.2z M16.7,142.7c0.7,0,1.3-0.6,1.3-1.3s-0.6-1.3-1.3-1.3c-0.7,0-1.3,0.6-1.3,1.3S16,142.7,16.7,142.7
		z M3.9,64.5C4,64.5,4,64.5,3.9,64.5c0.1-0.1,0.1-0.2,0-0.2C3.9,64.4,3.8,64.4,3.9,64.5C3.8,64.5,3.9,64.5,3.9,64.5z M3.9,99.1
		c0.3,0,0.5-0.2,0.5-0.5s-0.2-0.5-0.5-0.5c-0.3,0-0.5,0.2-0.5,0.5S3.6,99.1,3.9,99.1z M3.9,81.8c0.1,0,0.3-0.1,0.3-0.3
		c0-0.1-0.1-0.3-0.3-0.3c-0.1,0-0.3,0.1-0.3,0.3C3.7,81.7,3.8,81.8,3.9,81.8z M3.9,133.9c0.6,0,1.1-0.5,1.1-1.1
		c0-0.6-0.5-1.1-1.1-1.1c-0.6,0-1.1,0.5-1.1,1.1C2.8,133.4,3.3,133.9,3.9,133.9z M3.9,116.5c0.4,0,0.8-0.4,0.8-0.8
		c0-0.4-0.4-0.8-0.8-0.8c-0.4,0-0.8,0.3-0.8,0.8C3.1,116.2,3.5,116.5,3.9,116.5z M21,99.2c0.3,0,0.5-0.2,0.5-0.5
		c0-0.3-0.2-0.5-0.5-0.5c-0.3,0-0.5,0.2-0.5,0.5C20.5,98.9,20.7,99.2,21,99.2z M115,241.6c-0.8-1.5-2.4-2.6-4.2-2.6
		c-1.9,0-3.5,1.1-4.3,2.6c-0.8-1.5-2.4-2.6-4.3-2.6c-1.9,0-3.5,1.1-4.3,2.7c-0.8-1.6-2.4-2.6-4.2-2.6c-1.9,0-3.5,1.1-4.3,2.7
		c-0.8-1.6-2.4-2.7-4.3-2.7c-1.9,0-3.5,1.1-4.3,2.8c-0.7-1.6-2.4-2.7-4.2-2.7c-1.9,0-3.6,1.2-4.3,2.8c-0.7-1.6-2.4-2.8-4.3-2.8
		c-1.9,0-3.6,1.2-4.3,2.8c-0.7-1.6-2.3-2.8-4.2-2.8c-1.9,0-3.6,1.2-4.3,2.9c-0.7-1.7-2.3-2.9-4.3-2.9c-2,0-3.6,1.3-4.3,3
		c-0.6-1.7-2.3-3-4.2-3c-2,0-3.7,1.3-4.3,3.1c-0.6-1.8-2.3-3.1-4.2-3.1c-2,0-3.7,1.3-4.3,3.2c-0.6-1.8-2.2-3.2-4.3-3.2
		c-2.1,0-3.8,1.4-4.3,3.3c-0.5-1.9-2.2-3.2-4.2-3.2c-2.1,0-3.8,1.4-4.3,3.4c-0.5-1.9-2.2-3.3-4.3-3.3c-2.1,0-3.8,1.4-4.3,3.4
		c-0.4-1.8-2-3.2-3.9-3.3v8.8c1.9-0.2,3.5-1.5,3.9-3.3c0.5,1.9,2.2,3.4,4.3,3.4c2.1,0,3.8-1.4,4.3-3.3c0.5,1.9,2.2,3.4,4.3,3.4
		c2,0,3.7-1.4,4.2-3.2c0.5,1.9,2.2,3.3,4.3,3.3c2,0,3.7-1.3,4.3-3.2c0.6,1.8,2.3,3.2,4.3,3.2c2,0,3.6-1.3,4.2-3.1
		c0.6,1.8,2.3,3.1,4.3,3.1c2,0,3.6-1.2,4.2-3c0.6,1.8,2.3,3,4.3,3c1.9,0,3.6-1.2,4.3-2.9c0.4,1.1,1.2,1.9,2.2,2.4
		c-0.7-0.3-1.4-0.5-2.2-0.5c-1.1,0-2.2,0.4-3,1h6c-0.2-0.2-0.5-0.3-0.8-0.5c0.6,0.3,1.3,0.5,2,0.5c0.6,0,1.1-0.1,1.7-0.3
		c-0.2,0.1-0.3,0.2-0.5,0.3h6.1c-0.1-0.1-0.2-0.2-0.3-0.2c0.3,0.1,0.7,0.2,1,0.2h0.8c0.3,0,0.7-0.1,1-0.2c-0.1,0.1-0.1,0.1-0.2,0.2
		h6.2c-0.1-0.1-0.1-0.1-0.2-0.2c0.2,0.1,0.4,0.1,0.7,0.2h1.4c0.2,0,0.4-0.1,0.6-0.1c0,0-0.1,0.1-0.1,0.1H84c0,0,0,0,0,0
		c0.1,0,0.1,0,0.2,0H86c0,0,0.1,0,0.1,0c0,0,0,0,0,0h32.8V239C117.2,239.2,115.7,240.2,115,241.6z M63.7,247.4
		c-0.6,0-1.2,0.1-1.8,0.3c0.8-0.5,1.4-1.2,1.8-2.1c0.3,0.8,0.9,1.5,1.7,2C64.8,247.6,64.3,247.4,63.7,247.4z M72.3,247.4
		c-0.6,0-1.1,0.1-1.6,0.3c0.7-0.5,1.2-1.1,1.6-1.9c0.3,0.8,0.9,1.4,1.5,1.9C73.3,247.5,72.8,247.4,72.3,247.4z M80.8,247.4
		c-0.5,0-1,0.1-1.4,0.2c0.6-0.5,1.1-1,1.4-1.7c0.3,0.7,0.8,1.2,1.3,1.7C81.7,247.5,81.3,247.4,80.8,247.4z M89.4,247.4
		c-0.4,0-0.8,0.1-1.3,0.2c0.5-0.4,0.9-1,1.2-1.6c0.3,0.6,0.7,1.1,1.2,1.6C90.2,247.4,89.8,247.4,89.4,247.4z M97.9,247.3
		c-0.4,0-0.7,0-1.1,0.1c0.4-0.4,0.8-0.9,1.1-1.4c0.3,0.5,0.6,1,1,1.4C98.6,247.3,98.3,247.3,97.9,247.3z M106.5,247.3
		c-0.3,0-0.6,0-0.9,0.1c0.4-0.4,0.7-0.8,0.9-1.3c0.2,0.5,0.5,0.9,0.9,1.3C107.1,247.3,106.8,247.3,106.5,247.3z M115,247.2
		c-0.3,0-0.6,0-0.9,0.1c0.3-0.3,0.6-0.7,0.8-1.2c0.2,0.4,0.5,0.8,0.8,1.1C115.5,247.3,115.3,247.2,115,247.2z M0.9,141.4
		c0-0.6-0.4-1.1-0.9-1.2v2.5C0.5,142.4,0.9,141.9,0.9,141.4z M0.6,124.3c0-0.4-0.2-0.7-0.6-0.9v1.8C0.3,125,0.6,124.7,0.6,124.3z
		 M0,106.7v1c0.2-0.1,0.3-0.3,0.3-0.5C0.3,107,0.2,106.8,0,106.7z M3.9,181.7c-1.3,0-2.4,1.1-2.4,2.4c0,1.3,1.1,2.4,2.4,2.4
		c1.3,0,2.4-1.1,2.4-2.4C6.3,182.7,5.3,181.7,3.9,181.7z M8.2,125.2c0.5,0,0.9-0.4,0.9-0.9s-0.4-0.9-0.9-0.9c-0.5,0-0.9,0.4-0.9,0.9
		S7.7,125.2,8.2,125.2z M8.2,90.5c0.2,0,0.4-0.2,0.4-0.4c0-0.2-0.2-0.4-0.4-0.4c-0.2,0-0.4,0.2-0.4,0.4C7.8,90.3,8,90.5,8.2,90.5z
		 M8.2,107.8c0.4,0,0.6-0.3,0.6-0.6c0-0.4-0.3-0.6-0.6-0.6c-0.4,0-0.6,0.3-0.6,0.6C7.5,107.5,7.8,107.8,8.2,107.8z M8.2,142.7
		c0.7,0,1.3-0.6,1.3-1.3c0-0.7-0.6-1.3-1.3-1.3c-0.7,0-1.3,0.6-1.3,1.3C6.9,142.1,7.5,142.7,8.2,142.7z M8.2,73.2
		c0.1,0,0.2-0.1,0.2-0.2c0-0.1-0.1-0.2-0.2-0.2C8.1,72.8,8,72.9,8,73C8,73.1,8.1,73.2,8.2,73.2z M8.2,55.9
		C8.2,55.9,8.2,55.9,8.2,55.9C8.2,55.9,8.1,55.9,8.2,55.9C8.1,55.9,8.2,55.9,8.2,55.9C8.2,55.9,8.2,55.9,8.2,55.9z M8.2,160.2
		c0.9,0,1.7-0.8,1.7-1.7c0-0.9-0.8-1.7-1.7-1.7c-0.9,0-1.7,0.8-1.7,1.7C6.5,159.4,7.2,160.2,8.2,160.2z M3.9,168.9
		c1.1,0,1.9-0.9,1.9-1.9c0-1.1-0.9-1.9-1.9-1.9C2.8,165,2,165.9,2,167C2,168.1,2.8,168.9,3.9,168.9z M3.9,151.4
		c0.8,0,1.5-0.7,1.5-1.5c0-0.8-0.7-1.5-1.5-1.5c-0.8,0-1.5,0.7-1.5,1.5C2.4,150.7,3.1,151.4,3.9,151.4z M25.3,142.7
		c0.7,0,1.4-0.6,1.4-1.4c0-0.7-0.6-1.4-1.4-1.4c-0.7,0-1.4,0.6-1.4,1.4C23.9,142.1,24.5,142.7,25.3,142.7z M33.8,142.7
		c0.8,0,1.4-0.6,1.4-1.4s-0.6-1.4-1.4-1.4c-0.8,0-1.4,0.6-1.4,1.4S33.1,142.7,33.8,142.7z M33.8,125.3c0.5,0,1-0.4,1-1
		c0-0.5-0.4-1-1-1c-0.5,0-1,0.4-1,1C32.8,124.8,33.3,125.3,33.8,125.3z M33.8,107.9c0.4,0,0.7-0.3,0.7-0.7c0-0.4-0.3-0.7-0.7-0.7
		c-0.4,0-0.7,0.3-0.7,0.7C33.1,107.6,33.4,107.9,33.8,107.9z M21,116.5c0.4,0,0.8-0.4,0.8-0.8s-0.4-0.8-0.8-0.8
		c-0.4,0-0.8,0.4-0.8,0.8S20.6,116.5,21,116.5z M33.8,160.2c1,0,1.8-0.8,1.8-1.8c0-1-0.8-1.8-1.8-1.8c-1,0-1.8,0.8-1.8,1.8
		C32,159.4,32.8,160.2,33.8,160.2z M29.6,181.6c-1.4,0-2.5,1.1-2.5,2.5c0,1.4,1.1,2.5,2.5,2.5c1.4,0,2.5-1.1,2.5-2.5
		C32,182.7,30.9,181.6,29.6,181.6z M33.8,90.5c0.2,0,0.4-0.2,0.4-0.4c0-0.2-0.2-0.4-0.4-0.4c-0.2,0-0.4,0.2-0.4,0.4
		C33.4,90.3,33.6,90.5,33.8,90.5z M33.8,73.2c0.1,0,0.2-0.1,0.2-0.2c0-0.1-0.1-0.2-0.2-0.2c-0.1,0-0.2,0.1-0.2,0.2
		C33.6,73.1,33.7,73.2,33.8,73.2z M33.9,55.9C33.9,55.9,33.9,55.8,33.9,55.9c-0.1-0.1-0.1,0-0.1,0C33.8,55.9,33.8,56,33.9,55.9
		C33.9,56,33.9,55.9,33.9,55.9z M38.1,99.2c0.3,0,0.5-0.2,0.5-0.5c0-0.3-0.2-0.5-0.5-0.5c-0.3,0-0.5,0.2-0.5,0.5
		C37.6,98.9,37.8,99.2,38.1,99.2z M38.1,151.5c0.9,0,1.6-0.7,1.6-1.6c0-0.9-0.7-1.6-1.6-1.6c-0.9,0-1.6,0.7-1.6,1.6
		C36.5,150.8,37.2,151.5,38.1,151.5z M38.1,134c0.7,0,1.2-0.5,1.2-1.2c0-0.7-0.5-1.2-1.2-1.2c-0.7,0-1.2,0.5-1.2,1.2
		C36.9,133.5,37.4,134,38.1,134z M38.1,169c1.1,0,2-0.9,2-2c0-1.1-0.9-2-2-2c-1.1,0-2,0.9-2,2C36.1,168.1,37,169,38.1,169z
		 M42.4,73.2c0.1,0,0.2-0.1,0.2-0.2c0-0.1-0.1-0.2-0.2-0.2c-0.1,0-0.2,0.1-0.2,0.2C42.2,73.1,42.3,73.2,42.4,73.2z M38.1,116.6
		c0.5,0,0.9-0.4,0.9-0.9c0-0.5-0.4-0.9-0.9-0.9c-0.5,0-0.9,0.4-0.9,0.9C37.2,116.2,37.6,116.6,38.1,116.6z M38.1,64.6
		c0.1,0,0.1-0.1,0.1-0.1c0-0.1-0.1-0.1-0.1-0.1c-0.1,0-0.1,0.1-0.1,0.1C38,64.5,38,64.6,38.1,64.6z M38.1,81.8
		c0.2,0,0.3-0.1,0.3-0.3c0-0.2-0.1-0.3-0.3-0.3c-0.2,0-0.3,0.1-0.3,0.3C37.8,81.7,37.9,81.8,38.1,81.8z M38.1,47.4
		C38.1,47.3,38.1,47.3,38.1,47.4C38.1,47.3,38.1,47.3,38.1,47.4C38.1,47.4,38.1,47.4,38.1,47.4C38.1,47.4,38.1,47.4,38.1,47.4z
		 M29.6,169c1.1,0,2-0.9,2-2c0-1.1-0.9-2-2-2c-1.1,0-2,0.9-2,2C27.5,168.1,28.4,169,29.6,169z M33.8,177.8c1.2,0,2.3-1,2.3-2.3
		c0-1.2-1-2.3-2.3-2.3c-1.2,0-2.3,1-2.3,2.3C31.6,176.8,32.6,177.8,33.8,177.8z M25.3,125.2c0.5,0,1-0.4,1-1s-0.4-1-1-1
		c-0.5,0-1,0.4-1,1S24.7,125.2,25.3,125.2z M25.3,55.9C25.3,55.9,25.3,55.9,25.3,55.9C25.3,55.9,25.2,55.9,25.3,55.9
		C25.2,55.9,25.3,55.9,25.3,55.9C25.3,55.9,25.3,55.9,25.3,55.9z M25.3,73.2c0.1,0,0.2-0.1,0.2-0.2c0-0.1-0.1-0.2-0.2-0.2
		s-0.2,0.1-0.2,0.2C25.1,73.1,25.2,73.2,25.3,73.2z M25.3,107.8c0.4,0,0.7-0.3,0.7-0.7c0-0.4-0.3-0.7-0.7-0.7
		c-0.4,0-0.7,0.3-0.7,0.7C24.6,107.5,24.9,107.8,25.3,107.8z M25.3,90.5c0.2,0,0.4-0.2,0.4-0.4c0-0.2-0.2-0.4-0.4-0.4
		c-0.2,0-0.4,0.2-0.4,0.4C24.9,90.3,25.1,90.5,25.3,90.5z M29.6,151.5c0.9,0,1.6-0.7,1.6-1.6c0-0.9-0.7-1.6-1.6-1.6
		c-0.9,0-1.6,0.7-1.6,1.6C28,150.8,28.7,151.5,29.6,151.5z M21,134c0.6,0,1.2-0.5,1.2-1.2s-0.5-1.2-1.2-1.2c-0.6,0-1.2,0.5-1.2,1.2
		S20.4,134,21,134z M21,181.6c-1.4,0-2.5,1.1-2.5,2.5c0,1.4,1.1,2.5,2.5,2.5c1.4,0,2.5-1.1,2.5-2.5C23.5,182.7,22.4,181.6,21,181.6z
		 M21,169c1.1,0,2-0.9,2-2c0-1.1-0.9-2-2-2s-2,0.9-2,2C19,168.1,19.9,169,21,169z M21,151.4c0.8,0,1.5-0.7,1.5-1.5s-0.7-1.5-1.5-1.5
		c-0.9,0-1.5,0.7-1.5,1.5S20.2,151.4,21,151.4z M29.6,116.5c0.5,0,0.8-0.4,0.8-0.8s-0.4-0.8-0.8-0.8c-0.5,0-0.8,0.4-0.8,0.8
		S29.1,116.5,29.6,116.5z M29.6,81.8c0.2,0,0.3-0.1,0.3-0.3c0-0.2-0.1-0.3-0.3-0.3c-0.2,0-0.3,0.1-0.3,0.3
		C29.2,81.7,29.4,81.8,29.6,81.8z M29.6,99.2c0.3,0,0.5-0.2,0.5-0.5c0-0.3-0.2-0.5-0.5-0.5c-0.3,0-0.5,0.2-0.5,0.5
		C29,98.9,29.3,99.2,29.6,99.2z M42.4,55.9C42.4,55.9,42.4,55.8,42.4,55.9c-0.1-0.1-0.1,0-0.1,0C42.3,55.9,42.3,56,42.4,55.9
		C42.4,56,42.4,55.9,42.4,55.9z M29.6,134c0.7,0,1.2-0.5,1.2-1.2c0-0.7-0.5-1.2-1.2-1.2c-0.7,0-1.2,0.5-1.2,1.2
		C28.4,133.5,28.9,134,29.6,134z M25.3,160.2c1,0,1.8-0.8,1.8-1.8c0-1-0.8-1.8-1.8-1.8c-1,0-1.8,0.8-1.8,1.8
		C23.5,159.4,24.3,160.2,25.3,160.2z M25.3,177.8c1.2,0,2.2-1,2.2-2.2c0-1.2-1-2.2-2.2-2.2c-1.2,0-2.2,1-2.2,2.2
		C23.1,176.8,24.1,177.8,25.3,177.8z M29.6,64.6c0.1,0,0.1-0.1,0.1-0.1c0-0.1-0.1-0.1-0.1-0.1c-0.1,0-0.1,0.1-0.1,0.1
		C29.4,64.5,29.5,64.6,29.6,64.6z M29.6,47.4C29.6,47.3,29.6,47.3,29.6,47.4C29.5,47.3,29.5,47.3,29.6,47.4
		C29.5,47.4,29.5,47.4,29.6,47.4C29.6,47.4,29.6,47.4,29.6,47.4z M59.5,160.3c1,0,1.8-0.8,1.8-1.8c0-1-0.8-1.8-1.8-1.8
		c-1,0-1.8,0.8-1.8,1.8C57.6,159.5,58.4,160.3,59.5,160.3z M2.3,192.6c0-1.4-1-2.5-2.3-2.6v5.3C1.3,195.1,2.3,194,2.3,192.6z
		 M2.8,209.7c0-1.6-1.2-3-2.8-3.2v6.3C1.6,212.7,2.8,211.4,2.8,209.7z M1,201.2c0,1.6,1.3,2.9,2.9,2.9c1.6,0,2.9-1.3,2.9-2.9
		c0-1.6-1.3-2.9-2.9-2.9C2.3,198.2,1,199.6,1,201.2z M0.4,218.3c0,1.9,1.6,3.5,3.5,3.5c1.9,0,3.5-1.6,3.5-3.5c0-1.9-1.6-3.5-3.5-3.5
		C2,214.8,0.4,216.3,0.4,218.3z M3.4,226.8c0-2-1.5-3.6-3.4-3.8v7.5C1.9,230.4,3.4,228.8,3.4,226.8z M5.5,192.6
		c0,1.5,1.2,2.7,2.7,2.7s2.7-1.2,2.7-2.7c0-1.5-1.2-2.7-2.7-2.7S5.5,191.1,5.5,192.6z M14,192.6c0,1.5,1.2,2.7,2.7,2.7
		c1.5,0,2.7-1.2,2.7-2.7s-1.2-2.7-2.7-2.7C15.2,189.9,14,191.1,14,192.6z M24,201.2c0-1.6-1.3-3-3-3c-1.6,0-3,1.3-3,3
		c0,1.6,1.3,3,3,3C22.7,204.2,24,202.8,24,201.2z M5,209.7c0,1.8,1.4,3.2,3.2,3.2c1.8,0,3.2-1.4,3.2-3.2s-1.4-3.2-3.2-3.2
		C6.4,206.5,5,208,5,209.7z M15.4,201.2c0-1.6-1.3-3-3-3c-1.6,0-3,1.3-3,3c0,1.6,1.3,3,3,3C14.1,204.1,15.4,202.8,15.4,201.2z
		 M37.1,209.7c0-1.8-1.5-3.3-3.3-3.3c-1.8,0-3.3,1.5-3.3,3.3c0,1.8,1.5,3.3,3.3,3.3C35.6,213,37.1,211.5,37.1,209.7z M38.1,221.9
		c2,0,3.6-1.6,3.6-3.6c0-2-1.6-3.6-3.6-3.6c-2,0-3.6,1.6-3.6,3.6C34.5,220.3,36.1,221.9,38.1,221.9z M45.7,209.7
		c0-1.8-1.5-3.3-3.3-3.3c-1.8,0-3.3,1.5-3.3,3.3s1.5,3.3,3.3,3.3C44.2,213.1,45.7,211.6,45.7,209.7z M12.5,221.8
		c2,0,3.5-1.6,3.5-3.5c0-1.9-1.6-3.5-3.5-3.5s-3.5,1.6-3.5,3.5C8.9,220.2,10.5,221.8,12.5,221.8z M50.9,230.8c2.2,0,4-1.8,4-4
		c0-2.2-1.8-4-4-4c-2.2,0-4,1.8-4,4C47,229,48.7,230.8,50.9,230.8z M22.6,192.6c0,1.5,1.2,2.7,2.7,2.7c1.5,0,2.7-1.2,2.7-2.7
		c0-1.5-1.2-2.7-2.7-2.7C23.8,189.9,22.6,191.1,22.6,192.6z M50.3,218.3c0-2-1.6-3.6-3.7-3.6c-2,0-3.6,1.6-3.6,3.6
		c0,2,1.6,3.6,3.6,3.6C48.7,221.9,50.3,220.3,50.3,218.3z M21,221.8c2,0,3.6-1.6,3.6-3.6c0-2-1.6-3.6-3.6-3.6s-3.6,1.6-3.6,3.6
		C17.5,220.2,19,221.8,21,221.8z M29.6,221.8c2,0,3.6-1.6,3.6-3.6c0-2-1.6-3.6-3.6-3.6c-2,0-3.6,1.6-3.6,3.6
		C26,220.2,27.6,221.8,29.6,221.8z M20,209.7c0-1.8-1.5-3.2-3.2-3.2c-1.8,0-3.2,1.5-3.2,3.2c0,1.8,1.5,3.2,3.2,3.2
		C18.5,213,20,211.5,20,209.7z M28.6,209.7c0-1.8-1.5-3.3-3.3-3.3c-1.8,0-3.3,1.5-3.3,3.3c0,1.8,1.5,3.3,3.3,3.3
		C27.1,213,28.6,211.5,28.6,209.7z M42.4,195.4c1.5,0,2.8-1.2,2.8-2.8c0-1.5-1.2-2.8-2.8-2.8c-1.5,0-2.8,1.2-2.8,2.8
		C39.6,194.2,40.8,195.4,42.4,195.4z M88,192.6c0-1.6-1.3-2.9-2.9-2.9c-1.6,0-2.9,1.3-2.9,2.9c0,1.6,1.3,2.9,2.9,2.9
		C86.7,195.6,88,194.3,88,192.6z M86.7,184.1c0,1.5,1.2,2.7,2.7,2.7c1.5,0,2.7-1.2,2.7-2.7c0-1.5-1.2-2.7-2.7-2.7
		C87.9,181.4,86.7,182.6,86.7,184.1z M78.1,184.1c0,1.5,1.2,2.7,2.7,2.7c1.5,0,2.7-1.2,2.7-2.7c0-1.5-1.2-2.7-2.7-2.7
		C79.3,181.4,78.1,182.6,78.1,184.1z M32.6,201.2c0-1.7-1.3-3-3-3c-1.7,0-3,1.3-3,3c0,1.7,1.3,3,3,3
		C31.2,204.2,32.6,202.8,32.6,201.2z M72.3,181.5c-1.5,0-2.6,1.2-2.6,2.6c0,1.5,1.2,2.6,2.6,2.6c1.5,0,2.6-1.2,2.6-2.6
		C74.9,182.6,73.7,181.5,72.3,181.5z M99.2,192.6c0,1.6,1.3,3,3,3c1.6,0,3-1.3,3-3c0-1.6-1.3-3-3-3C100.5,189.6,99.2,191,99.2,192.6
		z M106.5,186.9c1.5,0,2.8-1.2,2.8-2.8c0-1.5-1.2-2.8-2.8-2.8c-1.5,0-2.8,1.2-2.8,2.8C103.7,185.6,104.9,186.9,106.5,186.9z
		 M96.6,192.6c0-1.6-1.3-3-3-3c-1.6,0-3,1.3-3,3c0,1.6,1.3,3,3,3C95.3,195.6,96.6,194.3,96.6,192.6z M68,195.5
		c1.6,0,2.9-1.3,2.9-2.9c0-1.6-1.3-2.9-2.9-2.9c-1.6,0-2.9,1.3-2.9,2.9C65.1,194.2,66.4,195.5,68,195.5z M95.2,184.1
		c0,1.5,1.2,2.7,2.7,2.7c1.5,0,2.7-1.2,2.7-2.7c0-1.5-1.2-2.7-2.7-2.7C96.4,181.4,95.2,182.6,95.2,184.1z M79.4,192.6
		c0-1.6-1.3-2.9-2.9-2.9c-1.6,0-2.9,1.3-2.9,2.9c0,1.6,1.3,2.9,2.9,2.9C78.2,195.5,79.4,194.2,79.4,192.6z M58.9,218.3
		c0-2-1.7-3.7-3.7-3.7c-2,0-3.7,1.7-3.7,3.7s1.7,3.7,3.7,3.7C57.2,222,58.9,220.3,58.9,218.3z M35,201.2c0,1.7,1.4,3.1,3.1,3.1
		c1.7,0,3.1-1.4,3.1-3.1c0-1.7-1.4-3.1-3.1-3.1C36.4,198.1,35,199.5,35,201.2z M38.1,181.6c-1.4,0-2.5,1.1-2.5,2.5
		c0,1.4,1.1,2.5,2.5,2.5c1.4,0,2.5-1.1,2.5-2.5C40.6,182.7,39.5,181.6,38.1,181.6z M31.1,192.6c0,1.5,1.2,2.7,2.7,2.7
		c1.5,0,2.7-1.2,2.7-2.7c0-1.5-1.2-2.7-2.7-2.7C32.3,189.9,31.1,191.1,31.1,192.6z M46.6,181.5c-1.4,0-2.6,1.1-2.6,2.6
		c0,1.4,1.1,2.6,2.6,2.6c1.4,0,2.6-1.1,2.6-2.6C49.2,182.7,48.1,181.5,46.6,181.5z M59.5,195.5c1.6,0,2.8-1.3,2.8-2.8
		c0-1.6-1.3-2.8-2.8-2.8c-1.6,0-2.8,1.3-2.8,2.8C56.6,194.2,57.9,195.5,59.5,195.5z M55.2,181.5c-1.4,0-2.6,1.2-2.6,2.6
		c0,1.4,1.2,2.6,2.6,2.6s2.6-1.2,2.6-2.6C57.8,182.7,56.6,181.5,55.2,181.5z M50.9,195.4c1.6,0,2.8-1.3,2.8-2.8
		c0-1.6-1.3-2.8-2.8-2.8c-1.6,0-2.8,1.3-2.8,2.8C48.1,194.2,49.4,195.4,50.9,195.4z M63.7,181.5c-1.4,0-2.6,1.2-2.6,2.6
		c0,1.4,1.2,2.6,2.6,2.6c1.4,0,2.6-1.2,2.6-2.6C66.3,182.6,65.2,181.5,63.7,181.5z M84.6,218.3c0-2.1-1.7-3.8-3.8-3.8
		c-2.1,0-3.8,1.7-3.8,3.8c0,2.1,1.7,3.8,3.8,3.8C82.9,222.1,84.6,220.4,84.6,218.3z M21,239.5c2.3,0,4.2-1.9,4.2-4.2
		c0-2.3-1.9-4.2-4.2-4.2c-2.3,0-4.2,1.9-4.2,4.2C16.8,237.7,18.7,239.5,21,239.5z M29.1,226.8c0-2.1-1.7-3.9-3.9-3.9
		c-2.1,0-3.9,1.7-3.9,3.9c0,2.1,1.7,3.9,3.9,3.9C27.4,230.7,29.1,228.9,29.1,226.8z M1.4,158.4c0-0.8-0.6-1.5-1.4-1.7v3.3
		C0.8,160,1.4,159.3,1.4,158.4z M37.7,226.8c0-2.1-1.7-3.9-3.9-3.9c-2.1,0-3.9,1.7-3.9,3.9c0,2.1,1.7,3.9,3.9,3.9
		C36,230.7,37.7,229,37.7,226.8z M38.1,239.6c2.3,0,4.2-1.9,4.2-4.2s-1.9-4.2-4.2-4.2c-2.3,0-4.2,1.9-4.2,4.2S35.8,239.6,38.1,239.6
		z M29.6,239.5c2.3,0,4.2-1.9,4.2-4.2c0-2.3-1.9-4.2-4.2-4.2c-2.3,0-4.2,1.9-4.2,4.2C25.4,237.7,27.2,239.5,29.6,239.5z M20.6,226.8
		c0-2.1-1.7-3.8-3.8-3.8c-2.1,0-3.8,1.7-3.8,3.8c0,2.1,1.7,3.8,3.8,3.8C18.8,230.6,20.6,228.9,20.6,226.8z M8.2,230.6
		c2.1,0,3.8-1.7,3.8-3.8c0-2.1-1.7-3.8-3.8-3.8c-2.1,0-3.8,1.7-3.8,3.8C4.4,228.9,6.1,230.6,8.2,230.6z M3.9,239.5
		c2.3,0,4.1-1.8,4.1-4.1c0-2.3-1.8-4.1-4.1-4.1c-1.9,0-3.4,1.3-3.9,3v2.3C0.5,238.2,2.1,239.5,3.9,239.5z M12.5,239.5
		c2.3,0,4.1-1.8,4.1-4.1c0-2.3-1.8-4.1-4.1-4.1c-2.3,0-4.1,1.8-4.1,4.1C8.3,237.6,10.2,239.5,12.5,239.5z M46.3,226.8
		c0-2.2-1.8-3.9-3.9-3.9c-2.2,0-3.9,1.8-3.9,3.9c0,2.2,1.8,3.9,3.9,3.9C44.5,230.7,46.3,229,46.3,226.8z M26.8,248.5h5.6
		c-0.8-0.6-1.7-0.9-2.8-0.9C28.5,247.6,27.5,248,26.8,248.5z M9.8,248.5h5.4c-0.8-0.5-1.7-0.8-2.7-0.8
		C11.5,247.7,10.5,248,9.8,248.5z M59.5,230.8c2.2,0,4-1.8,4-4c0-2.2-1.8-4-4-4c-2.2,0-4,1.8-4,4C55.5,229,57.3,230.8,59.5,230.8z
		 M1.3,248.5h5.3c-0.8-0.5-1.7-0.8-2.6-0.8C2.9,247.7,2,248,1.3,248.5z M18.2,248.5h5.5c-0.8-0.6-1.7-0.9-2.8-0.9
		C20,247.6,19,248,18.2,248.5z M118.7,90.1c0,0.2,0.1,0.3,0.2,0.4v-0.9C118.8,89.8,118.7,89.9,118.7,90.1z M0,90v0.2
		c0,0,0-0.1,0-0.1C0,90,0,90,0,90z M43.7,248.5h5.8c-0.8-0.6-1.8-1-2.9-1C45.5,247.5,44.5,247.9,43.7,248.5z M85.1,108
		c0.4,0,0.8-0.4,0.8-0.8c0-0.4-0.4-0.8-0.8-0.8c-0.4,0-0.8,0.4-0.8,0.8C84.3,107.6,84.7,108,85.1,108z M115,230.8
		c-2,0-3.7,1.3-4.3,3.1c-0.6-1.8-2.3-3.1-4.2-3.1c-2,0-3.7,1.3-4.3,3.2c-0.6-1.8-2.2-3.2-4.3-3.2c-2.1,0-3.8,1.4-4.3,3.3
		c-0.5-1.9-2.2-3.2-4.2-3.2c-2.1,0-3.8,1.4-4.3,3.4c-0.5-1.9-2.2-3.3-4.3-3.3c-2.1,0-3.9,1.5-4.3,3.5c-0.4-1.9-2.2-3.4-4.2-3.4
		c-2.2,0-3.9,1.6-4.3,3.6c-0.4-2-2.1-3.6-4.3-3.6c-2.3,0-4.1,1.7-4.3,3.9c-0.2-2.2-2-3.9-4.2-3.9c-2.4,0-4.3,1.9-4.3,4.2
		c0-2.3-1.9-4.2-4.3-4.2c-2.4,0-4.3,1.9-4.3,4.3s1.9,4.3,4.3,4.3c2.3,0,4.2-1.9,4.3-4.2c0,2.3,1.9,4.2,4.3,4.2c2.2,0,4-1.7,4.2-3.9
		c0.2,2.2,2,3.9,4.3,3.9c2.1,0,3.9-1.5,4.3-3.6c0.4,2,2.1,3.6,4.3,3.6c2.1,0,3.8-1.5,4.2-3.4c0.4,2,2.2,3.5,4.3,3.5
		c2.1,0,3.8-1.4,4.3-3.3c0.5,1.9,2.2,3.4,4.3,3.4c2,0,3.7-1.4,4.2-3.2c0.5,1.9,2.2,3.3,4.3,3.3c2,0,3.7-1.3,4.3-3.2
		c0.6,1.8,2.3,3.2,4.3,3.2c2,0,3.6-1.3,4.2-3.1c0.6,1.8,2.3,3.1,4.3,3.1c1.7,0,3.1-0.9,3.9-2.3v-4.6
		C118.1,231.7,116.7,230.8,115,230.8z M113.2,175.5c0-1.4-1.1-2.5-2.5-2.5c-1.4,0-2.5,1.1-2.5,2.5c0,1.4,1.1,2.5,2.5,2.5
		C112.1,178,113.2,176.9,113.2,175.5z M85.1,230.9c2.3,0,4.1-1.8,4.1-4.1c0-2.3-1.8-4.1-4.1-4.1c-2.3,0-4.1,1.8-4.1,4.1
		C81,229.1,82.8,230.9,85.1,230.9z M93.2,218.3c0-2.1-1.7-3.8-3.8-3.8c-2.1,0-3.8,1.7-3.8,3.8s1.7,3.8,3.8,3.8
		C91.5,222.1,93.2,220.4,93.2,218.3z M93.6,230.9c2.3,0,4.1-1.8,4.1-4.1c0-2.3-1.8-4.1-4.1-4.1c-2.3,0-4.1,1.8-4.1,4.1
		C89.5,229.1,91.4,230.9,93.6,230.9z M101.8,218.3c0-2.1-1.7-3.9-3.9-3.9c-2.1,0-3.9,1.7-3.9,3.9s1.7,3.9,3.9,3.9
		C100,222.1,101.8,220.4,101.8,218.3z M76.6,230.9c2.2,0,4.1-1.8,4.1-4.1c0-2.2-1.8-4.1-4.1-4.1c-2.2,0-4.1,1.8-4.1,4.1
		C72.5,229,74.3,230.9,76.6,230.9z M1.8,175.5c0-1.1-0.8-1.9-1.8-2.1v4.2C1,177.5,1.8,176.6,1.8,175.5z M67.5,218.3
		c0-2.1-1.7-3.7-3.7-3.7c-2.1,0-3.7,1.7-3.7,3.7s1.7,3.7,3.7,3.7C65.8,222,67.5,220.3,67.5,218.3z M68,230.8c2.2,0,4-1.8,4-4
		c0-2.2-1.8-4-4-4c-2.2,0-4,1.8-4,4C64,229,65.8,230.8,68,230.8z M76,218.3c0-2.1-1.7-3.7-3.7-3.7c-2.1,0-3.7,1.7-3.7,3.7
		s1.7,3.7,3.7,3.7C74.3,222,76,220.3,76,218.3z M102.2,231c2.3,0,4.2-1.9,4.2-4.2c0-2.3-1.9-4.2-4.2-4.2c-2.3,0-4.2,1.9-4.2,4.2
		C98,229.1,99.9,231,102.2,231z M117.7,141.4c0,0.8,0.5,1.4,1.3,1.6v-3.1C118.2,139.9,117.7,140.6,117.7,141.4z M117.2,158.4
		c0,1,0.7,1.9,1.7,2v-4.1C118,156.6,117.2,157.4,117.2,158.4z M118.1,124.3c0,0.5,0.4,1,0.9,1.1v-2.3
		C118.4,123.3,118.1,123.7,118.1,124.3z M102.2,173c-1.4,0-2.5,1.1-2.5,2.5c0,1.4,1.1,2.5,2.5,2.5s2.5-1.1,2.5-2.5
		C104.7,174.2,103.6,173,102.2,173z M115,226.8c0,2.2,1.7,4,3.9,4.2v-8.4C116.8,222.8,115,224.6,115,226.8z M110.7,231
		c2.3,0,4.2-1.9,4.2-4.2c0-2.3-1.9-4.2-4.2-4.2c-2.3,0-4.2,1.9-4.2,4.2C106.5,229.1,108.4,231,110.7,231z M118.9,218.3
		c0-2.2-1.8-3.9-3.9-3.9c-2.2,0-3.9,1.8-3.9,3.9c0,2.2,1.8,3.9,3.9,3.9C117.2,222.2,118.9,220.4,118.9,218.3z M110.3,218.3
		c0-2.1-1.7-3.9-3.9-3.9c-2.1,0-3.9,1.7-3.9,3.9s1.7,3.9,3.9,3.9C108.6,222.2,110.3,220.4,110.3,218.3z M118.4,107.2
		c0,0.4,0.2,0.7,0.5,0.8v-1.6C118.6,106.5,118.4,106.8,118.4,107.2z M35.2,248.5H41c-0.8-0.6-1.8-1-2.9-1
		C37,247.6,36,247.9,35.2,248.5z M97.9,134.2c0.8,0,1.4-0.6,1.4-1.4c0-0.8-0.6-1.4-1.4-1.4c-0.8,0-1.4,0.6-1.4,1.4
		C96.5,133.6,97.2,134.2,97.9,134.2z M97.9,116.7c0.6,0,1-0.4,1-1c0-0.5-0.4-1-1-1c-0.5,0-1,0.4-1,1
		C96.9,116.3,97.4,116.7,97.9,116.7z M102.2,38.8C102.2,38.8,102.2,38.8,102.2,38.8C102.2,38.8,102.2,38.8,102.2,38.8
		C102.2,38.8,102.2,38.8,102.2,38.8C102.2,38.8,102.2,38.8,102.2,38.8z M97.9,169.2c1.2,0,2.3-1,2.3-2.3c0-1.2-1-2.3-2.3-2.3
		c-1.2,0-2.3,1-2.3,2.3C95.7,168.2,96.7,169.2,97.9,169.2z M102.2,56c0.1,0,0.1-0.1,0.1-0.1c0-0.1-0.1-0.1-0.1-0.1s-0.1,0.1-0.1,0.1
		C102.1,56,102.1,56,102.2,56z M97.9,151.7c1,0,1.8-0.8,1.8-1.8c0-1-0.8-1.8-1.8-1.8c-1,0-1.8,0.8-1.8,1.8
		C96.1,150.9,96.9,151.7,97.9,151.7z M98,47.4C98,47.3,97.9,47.3,98,47.4C97.9,47.3,97.9,47.3,98,47.4C97.9,47.4,97.9,47.4,98,47.4
		C97.9,47.4,98,47.4,98,47.4z M97.9,99.3c0.4,0,0.7-0.3,0.7-0.7c0-0.4-0.3-0.7-0.7-0.7c-0.4,0-0.7,0.3-0.7,0.7
		C97.2,99,97.5,99.3,97.9,99.3z M97.9,64.7c0.1,0,0.2-0.1,0.2-0.2c0-0.1-0.1-0.2-0.2-0.2c-0.1,0-0.2,0.1-0.2,0.2
		C97.7,64.6,97.8,64.7,97.9,64.7z M97.9,81.9c0.2,0,0.4-0.2,0.4-0.4c0-0.2-0.2-0.4-0.4-0.4c-0.2,0-0.4,0.2-0.4,0.4
		C97.5,81.8,97.7,81.9,97.9,81.9z M102.2,90.6c0.3,0,0.5-0.2,0.5-0.5c0-0.3-0.2-0.5-0.5-0.5s-0.5,0.2-0.5,0.5
		C101.6,90.4,101.9,90.6,102.2,90.6z M106.5,64.7c0.1,0,0.2-0.1,0.2-0.2c0-0.1-0.1-0.2-0.2-0.2c-0.1,0-0.2,0.1-0.2,0.2
		C106.2,64.6,106.3,64.7,106.5,64.7z M106.5,47.4C106.5,47.3,106.5,47.3,106.5,47.4c-0.1-0.1-0.1,0-0.1,0S106.4,47.4,106.5,47.4
		C106.5,47.4,106.5,47.4,106.5,47.4z M102.2,160.5c1.1,0,2-0.9,2-2c0-1.1-0.9-2-2-2s-2,0.9-2,2C100.2,159.6,101.1,160.5,102.2,160.5
		z M106.5,99.3c0.4,0,0.7-0.3,0.7-0.7c0-0.4-0.3-0.7-0.7-0.7c-0.4,0-0.7,0.3-0.7,0.7C105.8,99,106.1,99.3,106.5,99.3z M102.2,73.3
		c0.2,0,0.3-0.1,0.3-0.3c0-0.2-0.1-0.3-0.3-0.3s-0.3,0.1-0.3,0.3C101.9,73.2,102,73.3,102.2,73.3z M102.2,108c0.5,0,0.8-0.4,0.8-0.8
		c0-0.5-0.4-0.8-0.8-0.8s-0.8,0.4-0.8,0.8C101.4,107.6,101.7,108,102.2,108z M93.6,173.1c-1.3,0-2.4,1.1-2.4,2.4
		c0,1.3,1.1,2.4,2.4,2.4c1.3,0,2.4-1.1,2.4-2.4C96.1,174.2,95,173.1,93.6,173.1z M102.2,125.5c0.7,0,1.2-0.5,1.2-1.2
		s-0.5-1.2-1.2-1.2s-1.2,0.5-1.2,1.2S101.5,125.5,102.2,125.5z M102.2,142.9c0.9,0,1.6-0.7,1.6-1.6s-0.7-1.6-1.6-1.6
		c-0.9,0-1.6,0.7-1.6,1.6S101.3,142.9,102.2,142.9z M106.5,82c0.2,0,0.4-0.2,0.4-0.4c0-0.2-0.2-0.4-0.4-0.4c-0.2,0-0.4,0.2-0.4,0.4
		C106,81.8,106.2,82,106.5,82z M89.4,81.9c0.2,0,0.4-0.2,0.4-0.4c0-0.2-0.2-0.4-0.4-0.4c-0.2,0-0.4,0.2-0.4,0.4
		C89,81.8,89.1,81.9,89.4,81.9z M93.6,160.4c1.1,0,2-0.9,2-2c0-1.1-0.9-2-2-2c-1.1,0-2,0.9-2,2C91.7,159.5,92.5,160.4,93.6,160.4z
		 M89.4,99.3c0.4,0,0.7-0.3,0.7-0.7c0-0.4-0.3-0.7-0.7-0.7c-0.4,0-0.7,0.3-0.7,0.7C88.7,99,89,99.3,89.4,99.3z M89.4,116.7
		c0.5,0,1-0.4,1-1s-0.4-1-1-1c-0.5,0-1,0.4-1,1S88.8,116.7,89.4,116.7z M89.4,64.6c0.1,0,0.2-0.1,0.2-0.2c0-0.1-0.1-0.2-0.2-0.2
		c-0.1,0-0.2,0.1-0.2,0.2C89.2,64.6,89.3,64.6,89.4,64.6z M85.1,160.4c1.1,0,1.9-0.9,1.9-1.9c0-1.1-0.9-1.9-1.9-1.9
		c-1.1,0-1.9,0.9-1.9,1.9C83.2,159.5,84,160.4,85.1,160.4z M85.1,125.4c0.6,0,1.1-0.5,1.1-1.1c0-0.6-0.5-1.1-1.1-1.1
		c-0.6,0-1.1,0.5-1.1,1.1C84,124.9,84.5,125.4,85.1,125.4z M85.1,142.9c0.8,0,1.5-0.7,1.5-1.5c0-0.8-0.7-1.5-1.5-1.5
		c-0.8,0-1.5,0.7-1.5,1.5C83.6,142.2,84.3,142.9,85.1,142.9z M85.1,173.1c-1.3,0-2.4,1.1-2.4,2.4c0,1.3,1.1,2.4,2.4,2.4
		c1.3,0,2.4-1.1,2.4-2.4C87.5,174.2,86.4,173.1,85.1,173.1z M89.4,134.2c0.7,0,1.4-0.6,1.4-1.4c0-0.7-0.6-1.4-1.4-1.4
		c-0.7,0-1.4,0.6-1.4,1.4C88,133.6,88.6,134.2,89.4,134.2z M89.4,47.4C89.4,47.3,89.4,47.3,89.4,47.4C89.3,47.3,89.3,47.3,89.4,47.4
		C89.3,47.4,89.3,47.4,89.4,47.4C89.4,47.4,89.4,47.4,89.4,47.4z M93.6,125.4c0.6,0,1.2-0.5,1.2-1.2c0-0.6-0.5-1.2-1.2-1.2
		c-0.6,0-1.2,0.5-1.2,1.2C92.5,124.9,93,125.4,93.6,125.4z M93.6,90.6c0.3,0,0.5-0.2,0.5-0.5c0-0.3-0.2-0.5-0.5-0.5
		s-0.5,0.2-0.5,0.5C93.1,90.4,93.4,90.6,93.6,90.6z M89.4,151.7c1,0,1.8-0.8,1.8-1.8c0-1-0.8-1.8-1.8-1.8c-1,0-1.8,0.8-1.8,1.8
		C87.6,150.9,88.4,151.7,89.4,151.7z M93.6,142.9c0.9,0,1.5-0.7,1.5-1.5s-0.7-1.5-1.5-1.5s-1.5,0.7-1.5,1.5S92.8,142.9,93.6,142.9z
		 M93.6,108c0.4,0,0.8-0.4,0.8-0.8c0-0.4-0.4-0.8-0.8-0.8c-0.4,0-0.8,0.4-0.8,0.8C92.8,107.6,93.2,108,93.6,108z M93.6,73.3
		c0.2,0,0.3-0.1,0.3-0.3c0-0.2-0.1-0.3-0.3-0.3c-0.2,0-0.3,0.1-0.3,0.3C93.4,73.1,93.5,73.3,93.6,73.3z M89.4,169.2
		c1.2,0,2.2-1,2.2-2.2c0-1.2-1-2.2-2.2-2.2c-1.2,0-2.2,1-2.2,2.2C87.2,168.2,88.2,169.2,89.4,169.2z M93.6,56c0.1,0,0.1-0.1,0.1-0.1
		c0-0.1-0.1-0.1-0.1-0.1s-0.1,0.1-0.1,0.1C93.5,56,93.6,56,93.6,56z M93.7,38.8C93.7,38.8,93.7,38.8,93.7,38.8
		C93.6,38.8,93.6,38.8,93.7,38.8C93.6,38.8,93.6,38.8,93.7,38.8C93.7,38.8,93.7,38.8,93.7,38.8z M110.8,38.8
		C110.8,38.8,110.7,38.8,110.8,38.8C110.7,38.8,110.7,38.8,110.8,38.8C110.7,38.8,110.7,38.8,110.8,38.8
		C110.7,38.8,110.8,38.8,110.8,38.8z M84,201.2c0-1.8-1.4-3.2-3.2-3.2c-1.8,0-3.2,1.4-3.2,3.2c0,1.8,1.4,3.2,3.2,3.2
		C82.6,204.4,84,202.9,84,201.2z M106.5,116.7c0.6,0,1-0.5,1-1c0-0.6-0.5-1-1-1c-0.6,0-1,0.5-1,1
		C105.4,116.3,105.9,116.7,106.5,116.7z M85.1,213.2c1.9,0,3.5-1.6,3.5-3.5c0-1.9-1.6-3.5-3.5-3.5c-1.9,0-3.5,1.6-3.5,3.5
		C81.6,211.6,83.2,213.2,85.1,213.2z M75.5,201.2c0-1.8-1.4-3.2-3.2-3.2c-1.8,0-3.2,1.4-3.2,3.2c0,1.8,1.4,3.2,3.2,3.2
		C74,204.3,75.5,202.9,75.5,201.2z M92.6,201.2c0-1.8-1.5-3.2-3.2-3.2c-1.8,0-3.2,1.5-3.2,3.2c0,1.8,1.5,3.2,3.2,3.2
		C91.2,204.4,92.6,203,92.6,201.2z M93.6,213.3c2,0,3.5-1.6,3.5-3.5c0-1.9-1.6-3.5-3.5-3.5c-1.9,0-3.5,1.6-3.5,3.5
		C90.1,211.7,91.7,213.3,93.6,213.3z M58.3,201.2c0-1.7-1.4-3.1-3.1-3.1s-3.1,1.4-3.1,3.1c0,1.7,1.4,3.1,3.1,3.1
		S58.3,202.9,58.3,201.2z M59.5,213.1c1.9,0,3.4-1.5,3.4-3.4s-1.5-3.4-3.4-3.4c-1.9,0-3.4,1.5-3.4,3.4S57.6,213.1,59.5,213.1z
		 M49.7,201.2c0-1.7-1.4-3.1-3.1-3.1c-1.7,0-3.1,1.4-3.1,3.1c0,1.7,1.4,3.1,3.1,3.1C48.3,204.3,49.7,202.9,49.7,201.2z M66.9,201.2
		c0-1.7-1.4-3.2-3.2-3.2c-1.7,0-3.2,1.4-3.2,3.2c0,1.7,1.4,3.2,3.2,3.2C65.5,204.3,66.9,202.9,66.9,201.2z M68,213.2
		c1.9,0,3.4-1.5,3.4-3.4c0-1.9-1.5-3.4-3.4-3.4c-1.9,0-3.4,1.5-3.4,3.4C64.6,211.6,66.1,213.2,68,213.2z M118.4,201.2
		c0-1.9-1.5-3.4-3.4-3.4c-1.9,0-3.4,1.5-3.4,3.4c0,1.9,1.5,3.4,3.4,3.4C116.9,204.5,118.4,203,118.4,201.2z M101.2,201.2
		c0-1.8-1.5-3.3-3.3-3.3c-1.8,0-3.3,1.5-3.3,3.3c0,1.8,1.5,3.3,3.3,3.3C99.7,204.4,101.2,203,101.2,201.2z M116.2,192.6
		c0,1.6,1.2,2.9,2.7,3v-6.1C117.4,189.8,116.2,191,116.2,192.6z M117.8,184.1c0-1.6-1.3-2.8-2.8-2.8c-1.6,0-2.8,1.3-2.8,2.8
		c0,1.6,1.3,2.8,2.8,2.8C116.6,186.9,117.8,185.6,117.8,184.1z M115.6,209.7c0,1.9,1.4,3.4,3.3,3.6v-7.2
		C117.1,206.3,115.6,207.8,115.6,209.7z M109.8,201.2c0-1.8-1.5-3.3-3.3-3.3c-1.8,0-3.3,1.5-3.3,3.3c0,1.8,1.5,3.3,3.3,3.3
		C108.3,204.5,109.8,203,109.8,201.2z M102.2,213.3c2,0,3.6-1.6,3.6-3.6s-1.6-3.6-3.6-3.6s-3.6,1.6-3.6,3.6S100.2,213.3,102.2,213.3
		z M110.7,213.3c2,0,3.6-1.6,3.6-3.6s-1.6-3.6-3.6-3.6c-2,0-3.6,1.6-3.6,3.6S108.8,213.3,110.7,213.3z M113.8,192.6
		c0-1.7-1.4-3.1-3.1-3.1c-1.7,0-3.1,1.4-3.1,3.1c0,1.7,1.4,3.1,3.1,3.1C112.4,195.7,113.8,194.3,113.8,192.6z M76.6,213.2
		c1.9,0,3.5-1.5,3.5-3.5c0-1.9-1.5-3.5-3.5-3.5c-1.9,0-3.5,1.5-3.5,3.5C73.1,211.6,74.6,213.2,76.6,213.2z M110.7,142.9
		c0.9,0,1.6-0.7,1.6-1.6c0-0.9-0.7-1.6-1.6-1.6c-0.9,0-1.6,0.7-1.6,1.6C109.1,142.2,109.9,142.9,110.7,142.9z M116.7,175.5
		c0,1.3,1,2.3,2.2,2.5v-5C117.7,173.2,116.7,174.2,116.7,175.5z M110.7,73.3c0.2,0,0.3-0.1,0.3-0.3c0-0.2-0.1-0.3-0.3-0.3
		c-0.2,0-0.3,0.1-0.3,0.3C110.4,73.2,110.6,73.3,110.7,73.3z M50.9,213.1c1.9,0,3.4-1.5,3.4-3.4s-1.5-3.4-3.4-3.4
		c-1.9,0-3.4,1.5-3.4,3.4S49.1,213.1,50.9,213.1z M110.7,108c0.5,0,0.9-0.4,0.9-0.9c0-0.5-0.4-0.9-0.9-0.9c-0.5,0-0.9,0.4-0.9,0.9
		C109.9,107.6,110.3,108,110.7,108z M110.7,90.6c0.3,0,0.5-0.2,0.5-0.5c0-0.3-0.2-0.5-0.5-0.5c-0.3,0-0.5,0.2-0.5,0.5
		C110.2,90.4,110.4,90.6,110.7,90.6z M110.7,56c0.1,0,0.1-0.1,0.1-0.1c0-0.1-0.1-0.1-0.1-0.1c-0.1,0-0.1,0.1-0.1,0.1
		C110.6,56,110.7,56,110.7,56z M106.5,151.7c1,0,1.8-0.8,1.8-1.8s-0.8-1.8-1.8-1.8c-1,0-1.8,0.8-1.8,1.8S105.5,151.7,106.5,151.7z
		 M106.5,134.2c0.8,0,1.4-0.6,1.4-1.4c0-0.8-0.6-1.4-1.4-1.4c-0.8,0-1.4,0.6-1.4,1.4C105.1,133.6,105.7,134.2,106.5,134.2z
		 M106.5,164.7c-1.3,0-2.3,1-2.3,2.3c0,1.3,1,2.3,2.3,2.3c1.3,0,2.3-1,2.3-2.3C108.7,165.7,107.7,164.7,106.5,164.7z M110.7,125.5
		c0.7,0,1.2-0.5,1.2-1.2c0-0.7-0.5-1.2-1.2-1.2c-0.7,0-1.2,0.5-1.2,1.2C109.5,124.9,110.1,125.5,110.7,125.5z M115,134.2
		c0.8,0,1.4-0.6,1.4-1.4s-0.6-1.4-1.4-1.4c-0.8,0-1.4,0.6-1.4,1.4S114.2,134.2,115,134.2z M115,151.7c1,0,1.8-0.8,1.8-1.8
		c0-1-0.8-1.8-1.8-1.8c-1,0-1.8,0.8-1.8,1.8C113.2,150.9,114,151.7,115,151.7z M115,116.8c0.6,0,1-0.5,1-1s-0.5-1-1-1
		c-0.6,0-1,0.5-1,1S114.4,116.8,115,116.8z M115,164.7c-1.3,0-2.3,1-2.3,2.3c0,1.3,1,2.3,2.3,2.3c1.3,0,2.3-1,2.3-2.3
		C117.3,165.7,116.3,164.7,115,164.7z M115,64.7c0.1,0,0.2-0.1,0.2-0.2c0-0.1-0.1-0.2-0.2-0.2c-0.1,0-0.2,0.1-0.2,0.2
		C114.8,64.6,114.9,64.7,115,64.7z M110.7,160.5c1.1,0,2-0.9,2-2c0-1.1-0.9-2-2-2c-1.1,0-2,0.9-2,2
		C108.7,159.6,109.6,160.5,110.7,160.5z M115.1,47.4C115.1,47.3,115,47.3,115.1,47.4c-0.1-0.1-0.1,0-0.1,0S115,47.4,115.1,47.4
		C115,47.4,115.1,47.4,115.1,47.4z M115,99.3c0.4,0,0.7-0.3,0.7-0.7c0-0.4-0.3-0.7-0.7-0.7s-0.7,0.3-0.7,0.7
		C114.3,99,114.6,99.3,115,99.3z M115,82c0.2,0,0.5-0.2,0.5-0.4c0-0.2-0.2-0.5-0.5-0.5c-0.2,0-0.5,0.2-0.5,0.5
		C114.6,81.8,114.8,82,115,82z"/>
</g>
</svg>
