<?xml version="1.0" encoding="utf-8"?>
<!-- Generator: Adobe Illustrator 19.0.0, SVG Export Plug-In . SVG Version: 6.00 Build 0)  -->
<svg version="1.1" id="Capa_1" xmlns="http://www.w3.org/2000/svg" xmlns:xlink="http://www.w3.org/1999/xlink" x="0px" y="0px"
	 viewBox="0 0 555.6 483.9" style="enable-background:new 0 0 555.6 483.9;" xml:space="preserve">
<style type="text/css">
	.st0{fill:#231F20;}
	.st1{fill:url(#SVGID_1_);}
	.st2{fill:url(#SVGID_2_);}
	.st3{fill:url(#SVGID_3_);}
	.st4{fill:url(#SVGID_4_);}
	.st5{fill:url(#SVGID_5_);}
	.st6{fill:url(#SVGID_6_);}
	.st7{fill:#FFFFFF;}
	.st8{opacity:0.47;fill:#FFFFFF;}
</style>
<g>
	<g>
		<circle class="st0" cx="190.2" cy="169.1" r="8.7"/>
		<circle class="st0" cx="178.9" cy="148.7" r="8.3"/>
		<circle class="st0" cx="167.6" cy="128.4" r="6.7"/>
		<circle class="st0" cx="157.1" cy="109.6" r="5"/>
		<circle class="st0" cx="212.1" cy="157" r="8.7"/>
		<circle class="st0" cx="200.8" cy="136.6" r="8.3"/>
		<circle class="st0" cx="189.5" cy="116.2" r="6.7"/>
		<circle class="st0" cx="234.6" cy="144.5" r="8.7"/>
		<circle class="st0" cx="223.3" cy="124.1" r="8.3"/>
		<circle class="st0" cx="123.4" cy="205.2" r="8.7"/>
		<circle class="st0" cx="112.1" cy="184.9" r="8.3"/>
		<circle class="st0" cx="100.8" cy="164.5" r="6.7"/>
		<circle class="st0" cx="99.8" cy="218.3" r="8.7"/>
		<circle class="st0" cx="88.5" cy="197.9" r="8.3"/>
		<circle class="st0" cx="145.3" cy="193.1" r="8.7"/>
		<circle class="st0" cx="134" cy="172.7" r="8.3"/>
		<circle class="st0" cx="122.7" cy="152.3" r="6.7"/>
		<circle class="st0" cx="112.3" cy="133.5" r="5"/>
		<circle class="st0" cx="167.9" cy="180.6" r="8.7"/>
		<circle class="st0" cx="156.6" cy="160.2" r="8.3"/>
		<circle class="st0" cx="145.3" cy="139.8" r="6.7"/>
		<circle class="st0" cx="134.9" cy="121" r="5"/>
		<circle class="st0" cx="125.3" cy="103.8" r="3.3"/>
	</g>
	<g>
		<circle class="st0" cx="410.3" cy="294.4" r="8.7"/>
		<circle class="st0" cx="421.6" cy="314.7" r="8.3"/>
		<circle class="st0" cx="432.9" cy="335.1" r="6.7"/>
		<circle class="st0" cx="443.3" cy="353.9" r="5"/>
		<circle class="st0" cx="388.4" cy="306.5" r="8.7"/>
		<circle class="st0" cx="399.7" cy="326.9" r="8.3"/>
		<circle class="st0" cx="411" cy="347.3" r="6.7"/>
		<circle class="st0" cx="365.8" cy="319" r="8.7"/>
		<circle class="st0" cx="377.1" cy="339.4" r="8.3"/>
		<circle class="st0" cx="477" cy="258.2" r="8.7"/>
		<circle class="st0" cx="488.3" cy="278.6" r="8.3"/>
		<circle class="st0" cx="499.6" cy="299" r="6.7"/>
		<circle class="st0" cx="500.6" cy="245.2" r="8.7"/>
		<circle class="st0" cx="511.9" cy="265.5" r="8.3"/>
		<circle class="st0" cx="455.1" cy="270.4" r="8.7"/>
		<circle class="st0" cx="466.4" cy="290.8" r="8.3"/>
		<circle class="st0" cx="477.7" cy="311.1" r="6.7"/>
		<circle class="st0" cx="488.1" cy="329.9" r="5"/>
		<circle class="st0" cx="432.6" cy="282.9" r="8.7"/>
		<circle class="st0" cx="443.9" cy="303.3" r="8.3"/>
		<circle class="st0" cx="455.1" cy="323.6" r="6.7"/>
		<circle class="st0" cx="465.6" cy="342.4" r="5"/>
		<circle class="st0" cx="475.1" cy="359.7" r="3.3"/>
	</g>
	<path class="st0" d="M32,266.5c0,0,112.8,0.4,119.9-38.3c5.4-25.4-27.5-65.4-27.5-65.4s72.9,53.9,91.3,33.7
		c18.4-20.2,14.3-109.6,14.3-109.6s29,108.6,52.9,105.2c23.9-3.3,49.2-73.1,49.2-73.1s-10,89.5,53.9,60.6
		c29.7-13.4,74.9-69.9,74.9-69.9s-59.5,87.5-29.8,102c29.7,14.4,116.9,7.7,116.9,7.7s-112.6,32.8-112.3,61.3
		c0.3,31.8,55.4,53.9,55.4,53.9s-48.3-13.6-64.3,8.3c-16,21.9,23.3,69.4,23.3,69.4s-56.6-59.4-79-43.7c-22.4,15.7-13,105.2-13,105.2
		s-22.4-61.5-50-58.6c-27.6,2.9-46.3,61.1-46.3,61.1s-9.6-78.7-35-82.4c-23.6-3.4-48.5,24-67.6,52.7c0,0,15.8-64.1-1.9-86.5
		s-69.9,8.8-69.9,8.8s33.4-40.4,30.1-63.3C114.1,282.9,32,266.5,32,266.5z"/>
	<g>
		<linearGradient id="SVGID_1_" gradientUnits="userSpaceOnUse" x1="304.2475" y1="465.8454" x2="254.5831" y2="109.4322">
			<stop  offset="0" style="stop-color:#27AAE1"/>
			<stop  offset="1" style="stop-color:#52E5EC"/>
		</linearGradient>
		<path class="st1" d="M12.6,247c0,0,112.8,0.4,119.9-38.3c5.4-25.4-27.5-65.4-27.5-65.4s72.9,53.9,91.3,33.7
			c18.4-20.2,14.3-109.6,14.3-109.6s29,108.6,52.9,105.2c23.9-3.3,49.2-73.1,49.2-73.1s-10,89.5,53.9,60.6
			c29.7-13.4,74.9-69.9,74.9-69.9s-59.5,87.5-29.8,102c29.7,14.4,116.9,7.7,116.9,7.7s-112.6,32.8-112.3,61.3
			c0.3,31.8,55.4,53.9,55.4,53.9s-48.3-13.6-64.3,8.3c-16,21.9,23.3,69.4,23.3,69.4s-56.6-59.4-79-43.7
			c-22.4,15.7-13,105.2-13,105.2s-22.4-61.5-50-58.6c-27.6,2.9-46.3,61.1-46.3,61.1s-9.6-78.7-35-82.4c-23.6-3.4-48.5,24-67.6,52.7
			c0,0,15.8-64.1-1.9-86.5c-17.7-22.4-69.9,8.8-69.9,8.8s33.4-40.4,30.1-63.3C94.6,263.4,12.6,247,12.6,247z"/>
		<path class="st0" d="M216.7,108.5c1.6,4.5,3.2,9.2,5,13.8c5.9,15.6,11.7,28.2,17.2,37.2c8,13.3,15.5,19.4,23.4,19.4
			c0.7,0,1.3,0,2-0.1c12.2-1.7,24.7-15.1,38.2-41.1c1.6-3,3-6,4.4-8.9c1.5,11.6,5.1,24.1,12.7,32.6c6.3,7,14.5,10.6,24.3,10.6
			c7.4,0,15.9-2.1,25.1-6.3c12.2-5.5,26.6-17.6,39.7-30.3c-9.9,21.7-13.5,38.1-10.6,48.9c1.6,6.1,5.4,10.8,10.8,13.4
			c13.5,6.6,38.6,9.9,74.8,9.9c0.8,0,1.7,0,2.5,0c-5.3,2-10.8,4.2-16.4,6.5c-53.8,22.5-60,37.7-59.9,47.1
			c0.1,18.2,15.1,33.1,29.9,43.5c-17.8,0.2-30.4,5.2-37.6,15c-6.9,9.5-6.7,23,0.7,40.3c-17.3-13.1-31.5-19.8-42.4-19.8
			c-4.8,0-9.1,1.3-12.6,3.8c-11.2,7.8-16.9,28.6-17.5,63.4c-0.1,5.3-0.1,10.5,0,15.4c-0.2-0.4-0.4-0.7-0.7-1.1
			c-12.7-21.5-26-32.4-39.4-32.4c-0.8,0-1.7,0-2.5,0.1c-13.6,1.4-26.5,13.1-38.3,34.9c-1.8,3.3-3.4,6.6-4.9,9.7
			c-1.2-5.8-2.7-12.2-4.5-18.7c-8.2-29.7-18.7-45.1-32.1-47c-1.6-0.2-3.3-0.4-4.9-0.4c-16.4,0-34.1,11.4-52.7,34
			c0.4-2.9,0.7-6,1-9.1c2.4-26.6-0.5-45.5-8.9-56.1c-5.5-6.9-13.7-10.4-24.5-10.5c-10.2,0-21.5,3.3-31,7c0.8-1.2,1.5-2.4,2.3-3.7
			c11.3-18.5,16.3-33.4,14.7-44.3c-1-7.3-6.8-13.9-17.7-20.3c-7.6-4.4-17.8-8.8-30.3-13c-1.3-0.4-2.5-0.8-3.8-1.2
			c6.6-0.7,13.5-1.6,20.5-2.8c17-2.9,30.9-6.9,41.4-11.9c14.2-6.8,22.4-15.7,24.4-26.3c2.4-11.6-1.3-26.5-11.2-44.4
			c17.7,10.6,40.6,22.2,56.6,22.2c7.2,0,12.9-2.2,16.9-6.6c8.7-9.6,13.9-31.3,15.6-66.2C216.5,112.8,216.6,110.6,216.7,108.5
			L216.7,108.5z M210.4,67.5c0,0,4.1,89.3-14.3,109.6c-2.9,3.2-7.2,4.5-12.3,4.5c-27.3,0-79-38.3-79-38.3s32.9,40,27.5,65.4
			C125.5,246.6,17.3,247,12.7,247c-0.1,0-0.1,0-0.1,0s82.1,16.4,85.3,39.3c3.2,22.9-30.1,63.3-30.1,63.3S96,332.6,118,332.6
			c7.9,0,15,2.2,19.6,8.1c17.7,22.4,1.9,86.5,1.9,86.5c18-27,41.2-52.9,63.6-52.9c1.3,0,2.7,0.1,4,0.3c25.3,3.7,35,82.4,35,82.4
			s18.7-58.2,46.3-61.1c0.6-0.1,1.3-0.1,1.9-0.1c26.7,0,48.1,58.7,48.1,58.7s-9.4-89.5,13-105.2c2.6-1.8,5.7-2.6,9.1-2.6
			c25.7,0,69.9,46.3,69.9,46.3s-39.2-47.5-23.3-69.4c7.1-9.7,20.6-12.4,33.5-12.4c16,0,30.8,4.2,30.8,4.2s-55.2-22.2-55.4-53.9
			c-0.2-28.5,112.3-61.3,112.3-61.3s-20.4,1.6-44.8,1.6c-26.1,0-56.8-1.8-72.1-9.3c-29.7-14.4,29.8-102,29.8-102
			s-45.2,56.5-74.9,69.9c-8.9,4-16.3,5.7-22.6,5.7c-38.7,0-31.3-66.3-31.3-66.3s-25.3,69.7-49.2,73.1c-0.4,0.1-0.7,0.1-1.1,0.1
			C238.6,172.8,210.4,67.5,210.4,67.5L210.4,67.5z"/>
	</g>
	<g>
		<g>
			<linearGradient id="SVGID_2_" gradientUnits="userSpaceOnUse" x1="89.789" y1="260.8365" x2="184.183" y2="260.8365">
				<stop  offset="0" style="stop-color:#F7941D"/>
				<stop  offset="1" style="stop-color:#F9ED32"/>
			</linearGradient>
			<path class="st2" d="M109.1,200.6c3.9-0.6,11.3-2.3,22.1-5c9.3-2.2,16.8-3.6,22.4-4.2c2.2-0.1,4.4-0.2,6.4-0.2
				c16.2,0,24.2,5.8,24.1,17.3c0,16.3-10.1,32.6-30.2,48.9c12.6-0.9,19.9,2.7,21.9,10.7c0.4,1.7,0.6,3.5,0.6,5.3
				c0,9.2-4.4,18.5-13.2,28c-6.7,7.2-15.1,13.6-25,19.1c-11.9,6.6-25.6,9.9-41,9.9c-2.5,0-4.9-0.1-7.4-0.2
				c4.8-25.1,10.1-58.9,15.8-101.4C107.3,216.9,108.5,207.4,109.1,200.6z M128.6,277.1c-1,4.7-2,11-3.1,19
				c17.3-5.3,25.9-11.3,25.9-18c0-2.5-2.1-3.7-6.4-3.7C141.2,274.4,135.7,275.3,128.6,277.1z M138.7,227.8c-1,4-1.9,8.1-2.8,12.1
				l-2.6,12.1c9-5.5,15.3-11.9,19.1-19.1c0.9-1.6,1.3-2.9,1.3-3.9c0-2.1-1.6-3.1-4.8-3.1C146.6,226,143.1,226.6,138.7,227.8z"/>
			<path class="st0" d="M160.1,191.2c16.2,0,24.2,5.8,24.1,17.3c0,16.3-10.1,32.6-30.2,48.9c1.2-0.1,2.4-0.1,3.5-0.1
				c10.5,0,16.6,3.6,18.4,10.8c0.4,1.7,0.6,3.5,0.6,5.3c0,9.2-4.4,18.5-13.2,28c-6.7,7.2-15.1,13.6-25,19.1
				c-11.9,6.6-25.6,9.9-41,9.9c-2.5,0-4.9-0.1-7.4-0.2c4.8-25.1,10.1-58.9,15.8-101.4c1.7-12,2.9-21.5,3.5-28.3
				c3.9-0.6,11.3-2.3,22.1-5c9.3-2.2,16.8-3.6,22.4-4.2C155.8,191.3,158,191.2,160.1,191.2L160.1,191.2z M133.4,252.1
				c9-5.5,15.3-11.9,19.1-19.1c0.9-1.6,1.3-2.9,1.3-3.9c0-2.1-1.6-3.1-4.8-3.1c-2.5,0-5.9,0.6-10.3,1.8c-1,4-1.9,8.1-2.8,12.1
				L133.4,252.1L133.4,252.1z M125.5,296.1c17.3-5.3,25.9-11.3,25.9-18c0-2.5-2.1-3.7-6.4-3.7c-3.8,0-9.3,0.9-16.4,2.8
				C127.6,281.8,126.6,288.1,125.5,296.1L125.5,296.1z M160.1,185c-2.2,0-4.4,0.1-6.8,0.2l-0.2,0l-0.2,0c-5.9,0.6-13.7,2.1-23.2,4.4
				l0,0l0,0c-10.6,2.6-17.8,4.3-21.5,4.9l-4.8,0.7l-0.4,4.8c-0.6,6.7-1.8,16.2-3.5,28l0,0l0,0c-5.7,42.2-11,76.2-15.8,101.1l-1.3,7
				l7.1,0.4c2.6,0.1,5.2,0.2,7.7,0.2c16.5,0,31.3-3.6,44-10.7c10.5-5.8,19.4-12.6,26.5-20.3c9.9-10.6,14.9-21.4,14.9-32.2
				c0-2.3-0.2-4.5-0.7-6.6l0-0.1l0-0.1c-1.3-5.2-4.3-9.3-8.8-12c-1.4-0.8-2.9-1.5-4.5-2c5.5-5.5,9.9-11,13.3-16.4
				c5.6-9.1,8.5-18.4,8.5-27.7c0.1-6.5-1.9-11.8-5.9-15.8C179.4,187.5,171.4,185,160.1,185L160.1,185z M143.9,232.9
				c0.6-0.1,1.2-0.3,1.7-0.3c-0.7,1.1-1.5,2.2-2.4,3.2C143.4,234.8,143.7,233.9,143.9,232.9L143.9,232.9z M133.9,282.2
				c4.7-1.1,7.8-1.5,9.8-1.6c-0.6,0.6-1.4,1.3-2.3,1.9c-2.1,1.5-4.9,2.9-8.3,4.3C133.4,285.2,133.7,283.6,133.9,282.2L133.9,282.2z
				 M146.9,280.7L146.9,280.7L146.9,280.7z"/>
		</g>
		<g>
			<linearGradient id="SVGID_3_" gradientUnits="userSpaceOnUse" x1="157.1337" y1="261.1124" x2="256.8622" y2="261.1124">
				<stop  offset="0" style="stop-color:#F7941D"/>
				<stop  offset="1" style="stop-color:#F9ED32"/>
			</linearGradient>
			<path class="st3" d="M157.1,332.3c18-46,32.6-90.3,43.8-133l55.9-9.4c-6.4,37.2-9.3,81.1-8.6,131.9l-39,9l2.8-23l-12.3,2.4
				l-3.9,16.2L157.1,332.3z M214.9,283.1l8.5-69.5h-0.2l-17.3,71.2L214.9,283.1z"/>
			<path class="st0" d="M256.9,189.9c-6.4,37.2-9.3,81.1-8.6,131.9l-39,9l2.8-23l-12.3,2.4l-3.9,16.2l-38.6,5.9
				c18-46,32.6-90.3,43.8-133L256.9,189.9L256.9,189.9z M223.4,213.6h-0.2l-17.3,71.2l9-1.8L223.4,213.6L223.4,213.6z M264.4,182.3
				l-8.6,1.4l-55.9,9.4l-4,0.7l-1,3.9c-11.1,42.3-25.7,86.8-43.6,132.3l-3.9,10l10.6-1.6l38.6-5.9l4.1-0.6l1-4.1l2.9-12.3l0.1,0
				l-1.7,14.6l-1.1,8.8l8.6-2l39-9l4.9-1.1l-0.1-5c-0.6-50.2,2.3-94.2,8.6-130.8L264.4,182.3L264.4,182.3z"/>
		</g>
		<g>
			<linearGradient id="SVGID_4_" gradientUnits="userSpaceOnUse" x1="246.5585" y1="266.5406" x2="350.8876" y2="266.5406">
				<stop  offset="0" style="stop-color:#F7941D"/>
				<stop  offset="1" style="stop-color:#F9ED32"/>
			</linearGradient>
			<path class="st4" d="M270.8,200.6l31.8-6.4c-0.2,3.8-0.4,9.2-0.4,16.2c0,16.7,0.6,31.3,1.7,44c0.6,7.2,1.5,13.1,2.8,17.5
				l12.5-71.8l31.6-5.9c-12.8,49.2-21.1,91.8-25,127.9l-29.1,8.1c-0.1-0.2-0.9-2.4-2.4-6.4l-9.6-27.2c-1.6-4.4-2.5-7.2-2.8-8.5
				c-2.6,14.5-4.6,28.5-6.1,42.1l-29.4,8.8L270.8,200.6z"/>
			<path class="st0" d="M350.9,194.1c-12.8,49.2-21.1,91.8-25,127.9l-29.1,8.1c-0.1-0.2-0.9-2.4-2.4-6.4l-9.6-27.2
				c-1.6-4.4-2.5-7.2-2.8-8.5c-2.6,14.5-4.6,28.5-6.1,42.1l-29.4,8.8l24.3-138.4l31.8-6.4c-0.2,3.8-0.4,9.2-0.4,16.2
				c0,16.7,0.6,31.3,1.7,44c0.6,7.2,1.5,13.1,2.8,17.5l12.5-71.8L350.9,194.1L350.9,194.1z M359.3,186.3l-9.6,1.8l-31.6,5.9
				l-4.2,0.8l-0.7,4.2l-4.5,25.7c-0.1-4.6-0.1-9.4-0.1-14.3c0-6.9,0.1-12.2,0.4-15.8l0.5-8.1l-7.9,1.6l-31.8,6.4l-4.1,0.8l-0.7,4.2
				l-24.3,138.4l-1.7,9.9l9.6-2.9l29.4-8.8l3.9-1.2l0.4-4.1c0.6-5.6,1.3-11.4,2.1-17.2l4.3,12.1l0,0l0,0c2.3,6.4,2.5,6.7,2.7,7.1
				l2.3,4.5l4.9-1.4l29.1-8.1l4-1.1l0.5-4.2c3.9-35.6,12.2-78.3,24.9-127L359.3,186.3L359.3,186.3z"/>
		</g>
		<g>
			<linearGradient id="SVGID_5_" gradientUnits="userSpaceOnUse" x1="334.1436" y1="262.6766" x2="434.4643" y2="262.6766">
				<stop  offset="0" style="stop-color:#F7941D"/>
				<stop  offset="1" style="stop-color:#F9ED32"/>
			</linearGradient>
			<path class="st5" d="M366,334.3c-13,0-22.2-7-27.6-21c-2.8-7-4.2-14.8-4.2-23.6c0-8.2,1.3-17.2,3.9-27c4.3-16.8,12-32.2,23-46.2
				c13.4-17,27.6-25.6,42.7-25.6c13.1,0,22.4,7.2,27.8,21.7l-20.4,21.9c-2.2-3.3-5.5-5-9.8-5c-8.3,0-16.2,5.8-23.6,17.3
				c-5.5,8.7-9.6,18.3-12.3,28.9c-1.1,4.2-1.7,7.9-1.7,11.2c0,5,1.3,9.1,3.9,12.1c2.8,3.4,6.7,5.2,11.8,5.2c5.8,0,11.1-2.6,16-7.9
				c3.9-4.2,7.1-9.4,9.6-15.8c-9.1,1.8-17.5,3.7-25.2,5.7l5.8-27l48.8-10.5c0.2,8-1.5,17.1-5.2,27.4c-3.3,9.1-7.4,17.4-12.3,25
				C402.6,323.3,385.6,334.3,366,334.3z"/>
			<path class="st0" d="M403.7,191c13.1,0,22.4,7.2,27.8,21.7l-20.4,21.9c-2.2-3.3-5.5-5-9.8-5c-8.3,0-16.2,5.8-23.6,17.3
				c-5.5,8.7-9.6,18.3-12.3,28.9c-1.1,4.2-1.7,7.9-1.7,11.2c0,5,1.3,9.1,3.9,12.1c2.8,3.4,6.7,5.2,11.8,5.2c5.8,0,11.1-2.6,16-7.9
				c3.9-4.2,7.1-9.4,9.6-15.8c-9.1,1.8-17.5,3.7-25.2,5.7l5.8-27l48.8-10.5c0.2,8-1.5,17.1-5.2,27.4c-3.3,9.1-7.4,17.4-12.3,25
				c-14.4,22.1-31.3,33.1-51,33.1c-13,0-22.2-7-27.6-21c-2.8-7-4.2-14.8-4.2-23.6c0-8.2,1.3-17.2,3.9-27c4.3-16.8,12-32.2,23-46.2
				C374.4,199.5,388.6,191,403.7,191L403.7,191z M403.7,184.8c-17,0-33,9.4-47.6,27.9c-11.5,14.6-19.6,30.9-24.1,48.5
				c-2.7,10.3-4.1,19.9-4.1,28.6c0,9.4,1.6,18.1,4.7,25.8c8,20.6,22.5,24.9,33.4,24.9c21.8,0,40.7-12.1,56.2-35.9
				c5.1-8,9.5-16.8,13-26.3l0,0l0,0c3.9-11,5.8-21,5.5-29.7l-0.2-7.4l-7.3,1.6l-48.8,10.5l-3.6,0.8c0.7-1.3,1.5-2.6,2.3-3.8
				c6.1-9.6,12.3-14.4,18.3-14.4c2.7,0,3.8,1.1,4.6,2.2l4.3,6.5l5.3-5.7l20.4-21.9l2.6-2.8l-1.3-3.6
				C429.3,189.3,414.6,184.8,403.7,184.8L403.7,184.8z M371.7,294.3c-1.2-1.8-1.7-4.2-1.7-7.3c0-2.8,0.5-6,1.5-9.6l0,0l0,0
				c2-8,5-15.5,8.8-22.4l-0.7,3.1l-5.8,27L371.7,294.3L371.7,294.3z M372,294.7l9.3-2.4c3.8-1,7.8-1.9,11.9-2.8
				c-0.7,1-1.5,1.9-2.3,2.7l0,0l0,0c-3.7,4-7.5,5.9-11.5,5.9c-4.1,0-5.9-1.5-7-2.9l0,0l0,0C372.2,295,372.1,294.9,372,294.7
				L372,294.7z"/>
		</g>
		<g>
			<linearGradient id="SVGID_6_" gradientUnits="userSpaceOnUse" x1="423.0165" y1="259.3997" x2="506.3691" y2="259.3997">
				<stop  offset="0" style="stop-color:#F7941D"/>
				<stop  offset="1" style="stop-color:#F9ED32"/>
			</linearGradient>
			<path class="st6" d="M447.1,299.9c4.3-0.6,8.1,0,11.4,1.8c3.9,2,5.9,5,5.9,9.2c0,5.6-3,10.8-9,15.5c-4.7,3.7-9.8,5.9-15.3,6.6
				c-4.4,0.6-8.2,0.1-11.4-1.5c-3.8-2-5.7-5-5.7-9.2c0-5.6,2.9-10.9,8.6-15.6C436.3,302.9,441.5,300.7,447.1,299.9z M467.9,185.5
				l38.5,6.4c-10.2,18.3-17.7,32.6-22.4,42.9c-6.5,14.1-12.3,29.4-17.3,45.8l-25.6-1.1L467.9,185.5z"/>
			<path class="st0" d="M467.9,185.5l38.5,6.4c-10.2,18.3-17.7,32.6-22.4,42.9c-6.5,14.1-12.3,29.4-17.3,45.8l-25.6-1.1L467.9,185.5
				L467.9,185.5z M450.2,299.7c3,0,5.8,0.7,8.3,2.1c3.9,2,5.9,5,5.9,9.2c0,5.6-3,10.8-9,15.5c-4.7,3.7-9.8,5.9-15.3,6.6
				c-1.2,0.2-2.4,0.3-3.5,0.3c-2.9,0-5.6-0.6-7.9-1.7c-3.8-2-5.7-5-5.7-9.2c0-5.6,2.9-10.9,8.6-15.6c4.7-3.8,9.8-6.1,15.5-6.8
				C448.2,299.8,449.2,299.7,450.2,299.7L450.2,299.7z M463.5,178.5l-1.5,5.3l-26.9,94l-2.2,7.6l7.8,0.3l25.6,1.1l4.8,0.2l1.4-4.6
				c4.9-16.1,10.6-31.3,17-45c4.7-10.1,12.2-24.4,22.2-42.5l4.3-7.7l-8.7-1.5l-38.5-6.4L463.5,178.5L463.5,178.5z M450.2,293.5
				L450.2,293.5c-1.3,0-2.6,0.1-4,0.3c-6.8,0.9-13,3.6-18.5,8.1l0,0l0,0c-7.2,6-10.9,12.9-10.9,20.4c0,6.5,3.2,11.7,9.1,14.7l0,0
				l0,0c3.2,1.6,6.7,2.4,10.6,2.4c1.4,0,2.9-0.1,4.4-0.3c6.6-0.9,12.7-3.5,18.3-7.9c7.6-5.9,11.4-12.7,11.4-20.3
				c0-6.5-3.3-11.7-9.2-14.7C458,294.4,454.3,293.5,450.2,293.5L450.2,293.5z"/>
		</g>
	</g>
	<path class="st7" d="M394.1,76.3c-0.1,0-0.1-0.1-0.2-0.1c0.2-2.5-0.5-5-2-7.2c0.2-2.3-0.9-4.7-3-6.1c-2.9-1.9-6.6-1.3-8.8,1.3
		c-1.4,0.3-2.7,0.8-3.8,1.6c-0.3-0.2-0.6-0.5-0.9-0.7c-4.9-3.2-11.4-2.2-14.4,2.4c-3,4.6-1.4,10.9,3.5,14.2c1.7,1.1,3.5,1.7,5.4,1.8
		l-21.6,68.4l35.3-67c0.1,0,0.2,0,0.3,0c0.5,1.2,1.4,2.3,2.6,3.1c3.2,2.1,7.6,1.2,9.7-2C398.2,82.7,397.3,78.4,394.1,76.3z"/>
	<g>
		<path class="st7" d="M260.3,149.7l-6.8-96.4c5.8,2.8,12.9,0.5,15.8-5.4c2.9-5.9,0.5-13-5.3-15.9c-2.2-1.1-4.7-1.5-7-1.1
			c-0.9-2.9-3-5.5-5.9-6.9c-5.8-2.9-12.9-0.5-15.8,5.3c-1.3,2.5-1.5,5.3-0.9,7.9c-4.3,0-8.4,2.4-10.4,6.5
			c-2.9,5.8-0.5,12.9,5.3,15.8c4.3,2.2,9.4,1.4,12.8-1.5L260.3,149.7z"/>
		<path class="st0" d="M260.2,60.6c6.2-0.5,11.7-4.2,14.6-9.9c2.2-4.3,2.5-9.2,1-13.8c-1.5-4.6-4.8-8.3-9.1-10.4
			c-1.6-0.8-3.3-1.3-5-1.6c-0.3,0-0.6-0.1-0.9-0.1c-1.7-2.7-4.1-4.8-7.1-6.3c-1.6-0.8-3.3-1.3-5-1.6c-7.9-1.3-15.5,2.6-19.1,9.7
			c-0.9,1.8-1.5,3.7-1.7,5.7c-4.1,1.6-7.6,4.6-9.6,8.7c-4.4,8.9-0.8,19.7,8.1,24.1c1.6,0.8,3.3,1.3,5,1.6c2,0.3,4.1,0.3,6,0
			l24.4,95.6L260.2,60.6z M232.4,60.5c-1.1-0.2-2.2-0.5-3.3-1.1c-5.8-2.9-8.2-10-5.3-15.8c2-4.1,6.1-6.5,10.4-6.5
			c-0.6-2.6-0.3-5.4,0.9-7.9c2.4-4.8,7.5-7.2,12.5-6.4c1.1,0.2,2.2,0.5,3.3,1.1c3,1.5,5,4,5.9,6.9c1.2-0.2,2.5-0.2,3.7,0
			c1.1,0.2,2.2,0.5,3.3,1.1c5.9,2.9,8.3,10.1,5.3,15.9c-2.4,4.8-7.6,7.3-12.6,6.4c-1.1-0.2-2.2-0.5-3.2-1l6.8,96.4L242,57.9
			C239.3,60.1,235.8,61.1,232.4,60.5z"/>
	</g>
	<g>
		<path class="st7" d="M96.4,402.1l59.7-59.1l-73.5,54.3c-1.4-2.1-3.8-3.5-6.5-3.5c-4.3,0-7.8,3.5-7.8,7.8c0,2.1,0.9,4.1,2.2,5.5
			c-2.4,1.7-3.9,4.4-3.9,7.5c0,5.1,4.1,9.2,9.2,9.2c1.1,0,2.1-0.2,3-0.5c2.3,1.9,5.3,3,8.6,3c7.6,0,13.7-6.1,13.7-13.7
			C101.1,408.4,99.3,404.6,96.4,402.1z"/>
		<path class="st0" d="M156.9,342.4l-74,47.1c-2.1-1.1-4.4-1.8-6.8-1.8c-7.7,0-14,6.3-14,14c0,1.6,0.3,3.2,0.8,4.7
			c-1.6,2.4-2.4,5.3-2.4,8.3c0,8.5,6.9,15.4,15.4,15.4c0.6,0,1.2,0,1.8-0.1c3,1.7,6.4,2.6,9.8,2.6c11,0,19.9-8.9,19.9-19.9
			c0-3.5-0.9-6.9-2.7-9.9L156.9,342.4z M101.1,412.5c0,7.6-6.1,13.7-13.7,13.7c-3.2,0-6.2-1.1-8.6-3c-0.9,0.3-2,0.5-3,0.5
			c-5.1,0-9.2-4.1-9.2-9.2c0-3.1,1.5-5.8,3.9-7.5c-1.4-1.4-2.2-3.3-2.2-5.5c0-4.3,3.5-7.8,7.8-7.8c2.7,0,5.1,1.4,6.5,3.5l58.1-41.1
			l-44.4,45.9C99.3,404.6,101.1,408.4,101.1,412.5z"/>
	</g>
	<g>
		<path class="st7" d="M432.3,424.4c-1-7-7.6-11.8-14.6-10.8c-3.6,0.5-6.6,2.5-8.5,5.2c-2.7-2-6.2-3-9.9-2.5
			c-0.8,0.1-1.6,0.3-2.4,0.6L323.1,343l66.9,95.9c-0.3,0.5-0.6,1-0.9,1.5c-1.5-0.5-3.2-0.7-4.9-0.4c-5.9,0.9-9.9,6.3-9,12.2
			c0.9,5.9,6.3,9.9,12.2,9c1.5-0.2,2.9-0.8,4.2-1.6c4.4,4.4,11.3,6.8,18.6,5.7c11.3-1.7,19.3-10.9,17.8-20.6
			c-0.4-2.5-1.3-4.8-2.8-6.8C430.1,435.6,433.2,430.1,432.3,424.4z"/>
		<path class="st0" d="M433,439.8c4.2-4.2,6.4-10.3,5.5-16.3c-0.7-4.5-3-8.7-6.4-11.6c-3.4-2.9-7.8-4.6-12.3-4.6
			c-0.9,0-1.9,0.1-2.8,0.2c-3.3,0.5-6.3,1.8-8.8,3.7c-2.1-0.8-4.4-1.2-6.7-1.2c-0.8,0-1.6,0-2.4,0.1l-82.2-74.8l62.8,99.4
			c-3,1.1-5.5,3.1-7.5,5.7c-2.7,3.6-3.8,8.1-3.1,12.6c1.2,8.2,8.4,14.4,16.7,14.4c0.8,0,1.7-0.1,2.5-0.2c0.8-0.1,1.5-0.3,2.2-0.5
			c4.5,3.2,10.2,4.9,16,4.9c1.5,0,3-0.1,4.5-0.3c14.6-2.2,25-14.6,23-27.7C433.8,442.4,433.4,441.1,433,439.8z M425.1,437.9
			c1.4,2,2.4,4.3,2.8,6.8c1.5,9.7-6.5,18.9-17.8,20.6c-1.2,0.2-2.4,0.3-3.6,0.3c-6,0-11.4-2.2-15-6c-1.2,0.8-2.6,1.3-4.2,1.6
			c-0.5,0.1-1.1,0.1-1.6,0.1c-5.2,0-9.8-3.8-10.6-9.2c-0.9-5.9,3.2-11.3,9-12.2c0.5-0.1,1.1-0.1,1.6-0.1c1.2,0,2.3,0.2,3.4,0.5
			c0.3-0.5,0.6-1,0.9-1.5L328.8,350L397,417c0.8-0.3,1.6-0.5,2.4-0.6c0.7-0.1,1.3-0.1,2-0.1c2.9,0,5.7,1,7.9,2.6
			c1.9-2.7,4.9-4.7,8.5-5.2c0.6-0.1,1.3-0.1,1.9-0.1c6.2,0,11.7,4.6,12.6,10.9C433.2,430.1,430.1,435.6,425.1,437.9z"/>
	</g>
	<g>
		<path class="st7" d="M52,138.6c2.1,6.9,8.8,11.1,15.7,10.3c-1.3,2.1-1.7,4.8-0.9,7.3c1.5,4.9,6.6,7.6,11.5,6.1
			c0.5-0.1,0.9-0.3,1.3-0.5c1.4,3,4.7,4.5,7.9,3.6c3.5-1.1,5.5-4.7,4.4-8.2c-0.9-3.1-4-5-7.2-4.6c-0.1-0.5-0.2-1.1-0.3-1.6
			c-1.1-3.6-4.2-6.1-7.7-6.5c3.5-3.7,5-9.1,3.4-14.3c-2.3-7.8-10.5-12.1-18.3-9.8C54,122.7,49.6,130.8,52,138.6z"/>
		<path class="st0" d="M66,119.7c6.3,0,12.1,4.1,14,10.4c1.6,5.2,0.1,10.6-3.4,14.3c3.5,0.4,6.7,2.9,7.7,6.5
			c0.2,0.5,0.3,1.1,0.3,1.6c0.3,0,0.6-0.1,0.8-0.1c2.8,0,5.5,1.8,6.3,4.7c1.1,3.5-0.9,7.2-4.4,8.2c-0.6,0.2-1.3,0.3-1.9,0.3
			c-2.5,0-4.9-1.5-6-3.8c-0.4,0.2-0.9,0.4-1.3,0.5c-0.9,0.3-1.8,0.4-2.7,0.4c-3.9,0-7.6-2.6-8.8-6.5c-0.8-2.6-0.4-5.2,0.9-7.3
			c-0.6,0.1-1.1,0.1-1.7,0.1c-6.3,0-12.1-4.1-14-10.4c-2.3-7.8,2-15.9,9.8-18.3C63.2,119.9,64.6,119.7,66,119.7L66,119.7z M66,113.5
			c-2,0-4.1,0.3-6,0.9c-11,3.3-17.3,15-13.9,26c1.3,4.4,4,8.1,7.6,10.8c2,1.4,4.2,2.5,6.5,3.2c0.1,1.2,0.3,2.4,0.6,3.6
			c2,6.5,7.9,10.9,14.7,10.9c0.6,0,1.1,0,1.7-0.1c2.3,1.9,5.2,3,8.3,3c1.3,0,2.5-0.2,3.7-0.5c6.8-2,10.6-9.2,8.6-16
			c-1.3-4.2-4.4-7.3-8.4-8.5c-1-2-2.3-3.7-4-5.1c1.6-4.3,1.8-9,0.5-13.5c-1.3-4.4-4-8.1-7.6-10.8C74.8,114.9,70.4,113.5,66,113.5
			L66,113.5z"/>
	</g>
	<g>
		<path class="st7" d="M520.4,314.6c-1.5,0-2.8,0.3-4.1,0.9c-1.2-0.9-2.7-1.5-4.4-1.5c-3.9,0-7.1,3.2-7.1,7.1c0,3.6,2.6,6.5,6.1,7
			c1.4,3.9,5.1,6.7,9.5,6.7c5.6,0,10.1-4.5,10.1-10.1C530.4,319.1,525.9,314.6,520.4,314.6z"/>
		<path class="st0" d="M511.9,314c1.7,0,3.2,0.6,4.4,1.5c1.3-0.6,2.6-0.9,4.1-0.9c5.6,0,10.1,4.5,10.1,10.1
			c0,5.6-4.5,10.1-10.1,10.1c-4.4,0-8.1-2.8-9.5-6.7c-3.4-0.5-6.1-3.4-6.1-7C504.8,317.2,508,314,511.9,314L511.9,314z M511.9,307.8
			c-7.3,0-13.3,6-13.3,13.3c0,5.3,3.2,10,7.9,12.1c2.9,4.7,8.1,7.8,13.9,7.8c9,0,16.3-7.3,16.3-16.3c0-9-7.3-16.3-16.3-16.3
			c-1.2,0-2.3,0.1-3.4,0.4C515.3,308.1,513.6,307.8,511.9,307.8L511.9,307.8z"/>
	</g>
	<path class="st0" d="M253.1,98l-8.6-50.8c-0.2-1.1,0.5-2.2,1.7-2.5l0,0c1.3-0.3,2.6,0.6,2.7,2L253.1,98z"/>
	<path class="st0" d="M356.4,133.6l20.4-51.4c0.5-1.1,1.7-1.6,2.8-1.1l0,0c1,0.5,1.5,1.8,0.9,2.8L356.4,133.6z"/>
	<path class="st0" d="M403.2,79.5c-0.5-2.4-1.6-4.5-3.2-6.2c-0.3-2.1-0.9-4.2-1.9-6.1c-0.4-3.8-2.5-7.3-5.7-9.5
		c-2.1-1.4-4.5-2.1-7.1-2.1c-3.1,0-6,1.1-8.3,3c-0.1,0-0.2,0.1-0.3,0.1c-2.3-1.1-4.8-1.7-7.4-1.7c-5.5,0-10.5,2.6-13.4,7.1
		c-2.4,3.7-3.1,8.1-2.1,12.5c1,4.2,3.6,7.8,7.3,10.3c0.3,0.2,0.7,0.4,1,0.6l-28.7,98.8l52-91.8c1.5,0.6,3.1,0.9,4.7,0.9
		c4.5,0,8.6-2.2,11-6C403.2,86.4,403.9,82.9,403.2,79.5z M396.1,86c-1.3,2-3.6,3.2-5.9,3.2c-1.3,0-2.7-0.4-3.8-1.2
		c-1.2-0.8-2.1-2.5-2.6-3.7l-35.4,67.6l20.3-64.4c1.9-0.6,4-1.7,6.4-3.8c0,0-2.3,0.3-5.1-0.2l0,0c-0.1,0-0.1,0-0.2,0
		c-1.7-0.3-3.6-0.8-5.2-1.8c-4.9-3.2-6.5-9.6-3.5-14.2c1.8-2.8,5-4.3,8.2-4.3c2.1,0,4.2,0.6,6.2,1.9c0.3,0.2,0.6,0.4,0.9,0.7
		c1.1-0.8,2.5-1.4,3.8-1.6c1.3-1.5,3.2-2.4,5.1-2.4c1.3,0,2.5,0.4,3.6,1.1c2.1,1.4,3.2,3.8,3,6.1c1.5,2.1,2.2,4.7,2,7.2
		c0.1,0,0.1,0.1,0.2,0.1C397.3,78.4,398.2,82.7,396.1,86z"/>
	<path class="st0" d="M120,373.6l-42.1,29.6c-0.6,0.4-0.7,1.2-0.3,1.8l0,0c0.4,0.6,1.3,0.7,1.9,0.3L120,373.6z"/>
	<path class="st0" d="M109.6,384.7l-22.8,19.1c-0.7,0.6-0.8,1.8-0.1,2.4l0,0c0.7,0.7,1.7,0.6,2.4,0L109.6,384.7z"/>
	<path class="st0" d="M349.4,376.5l41.2,57.6c1.1,1.5,3.3,1.5,4.4,0l0,0c0.7-1,0.7-2.4-0.1-3.3L349.4,376.5z"/>
	<path class="st0" d="M366.7,392.1l36.1,42.9c1.1,1.3,3.2,1.2,4.1-0.3l0,0c0.7-1,0.5-2.3-0.4-3.2L366.7,392.1z"/>
	<path class="st8" d="M458.1,232.1l12.7-42.8l19.4,3.5c0.7,0.1,0.6,1.2-0.1,1.2h-16.5l-14.3,38.5C459,233.3,457.9,232.9,458.1,232.1
		z"/>
	<path class="st8" d="M426.3,316.7c2.1-4.5,7.8-13.4,21.2-14.8c0.5-0.1,0.7,0.7,0.2,0.9c-4.7,1.7-13.3,5.8-20.7,14.4
		C426.7,317.6,426,317.2,426.3,316.7z"/>
	<path class="st8" d="M226.4,197.3l-23,3.6l-12.9,43.8c-0.3,0.9,1.1,1.4,1.5,0.5l15.3-39.4l19.5-7.1
		C227.5,198.4,227.2,197.2,226.4,197.3z"/>
	<path class="st8" d="M137.7,197.5l-24.5,5.4l-6.9,45.4c-0.2,1,1.2,1.3,1.5,0.4l11.5-40.6l19-9C139.1,198.6,138.7,197.3,137.7,197.5
		z"/>
	<path class="st8" d="M263.3,259.7l10.1-57.4l19.6-3.9c0.5-0.1,0.8,0.7,0.3,0.9l-16.4,6.5l-12.6,54.2
		C264,260.4,263.1,260.2,263.3,259.7z"/>
	<path class="st8" d="M311.9,259.7l10.1-57.4l19.6-3.9c0.5-0.1,0.8,0.7,0.3,0.9l-16.4,6.5l-12.6,54.2
		C312.7,260.4,311.8,260.2,311.9,259.7z"/>
	<path class="st8" d="M361.4,221.1c9.7-12.1,30.2-32.7,52.7-25.3c0.5,0.2,0.3,0.9-0.2,0.8c-8.2-0.6-29.1,0.7-51.9,25
		C361.7,222,361.1,221.5,361.4,221.1z"/>
	<path class="st8" d="M384.9,277.6l3-15.4l37.1-8.7c0.3-0.1,0.5,0.4,0.1,0.5l-34.8,11l-4.9,12.8
		C385.3,278.1,384.8,277.9,384.9,277.6z"/>
</g>
</svg>
