<?xml version="1.0" encoding="utf-8"?>
<!-- Generator: Adobe Illustrator 19.0.0, SVG Export Plug-In . SVG Version: 6.00 Build 0)  -->
<svg version="1.1" id="Capa_1" xmlns="http://www.w3.org/2000/svg" xmlns:xlink="http://www.w3.org/1999/xlink" x="0px" y="0px"
	 viewBox="-279 126.1 400.8 308.9" style="enable-background:new -279 126.1 400.8 308.9;" xml:space="preserve">
<style type="text/css">
	.st0{fill:#231F20;}
	.st1{fill:url(#XMLID_2_);}
	.st2{fill:url(#XMLID_3_);}
	.st3{fill:url(#XMLID_4_);}
	.st4{fill:url(#XMLID_5_);}
	.st5{fill:url(#XMLID_6_);}
	.st6{fill:url(#XMLID_7_);}
	.st7{opacity:0.47;fill:#FFFFFF;enable-background:new    ;}
	.st8{fill:url(#XMLID_8_);}
</style>
<g id="XMLID_397_">
	<g id="XMLID_295_">
		<g id="XMLID_404_">
			<circle id="XMLID_293_" class="st0" cx="29.1" cy="215.5" r="7.3"/>
			<circle id="XMLID_292_" class="st0" cx="41.1" cy="200.2" r="6.9"/>
			<circle id="XMLID_291_" class="st0" cx="53.1" cy="185" r="5.6"/>
			<circle id="XMLID_290_" class="st0" cx="64.2" cy="170.9" r="4.2"/>
			<circle id="XMLID_289_" class="st0" cx="45.4" cy="228.4" r="7.3"/>
			<circle id="XMLID_288_" class="st0" cx="57.5" cy="213.2" r="6.9"/>
			<circle id="XMLID_287_" class="st0" cx="69.5" cy="197.9" r="5.6"/>
			<circle id="XMLID_286_" class="st0" cx="62.3" cy="241.8" r="7.3"/>
			<circle id="XMLID_285_" class="st0" cx="74.4" cy="226.5" r="6.9"/>
			<circle id="XMLID_284_" class="st0" cx="-20.2" cy="175.8" r="7.3"/>
			<circle id="XMLID_283_" class="st0" cx="-8.2" cy="160.5" r="6.9"/>
			<circle id="XMLID_282_" class="st0" cx="3.9" cy="145.3" r="5.6"/>
			<circle id="XMLID_281_" class="st0" cx="-37.9" cy="161.8" r="7.3"/>
			<circle id="XMLID_280_" class="st0" cx="-25.8" cy="146.6" r="6.9"/>
			<circle id="XMLID_279_" class="st0" cx="-3.8" cy="188.7" r="7.3"/>
			<circle id="XMLID_278_" class="st0" cx="8.2" cy="173.5" r="6.9"/>
			<circle id="XMLID_277_" class="st0" cx="20.3" cy="158.2" r="5.6"/>
			<circle id="XMLID_276_" class="st0" cx="31.4" cy="144.1" r="4.2"/>
			<circle id="XMLID_275_" class="st0" cx="13.1" cy="202.1" r="7.3"/>
			<circle id="XMLID_274_" class="st0" cx="25.1" cy="186.8" r="6.9"/>
			<circle id="XMLID_188_" class="st0" cx="37.1" cy="171.6" r="5.6"/>
			<circle id="XMLID_183_" class="st0" cx="48.3" cy="157.5" r="4.2"/>
			<circle id="XMLID_182_" class="st0" cx="58.4" cy="144.6" r="2.8"/>
		</g>
		<g id="XMLID_380_">
			<circle id="XMLID_179_" class="st0" cx="-62.6" cy="350.3" r="7.3"/>
			<circle id="XMLID_174_" class="st0" cx="-60.1" cy="369.6" r="6.9"/>
			<circle id="XMLID_173_" class="st0" cx="-57.7" cy="388.8" r="5.6"/>
			<circle id="XMLID_171_" class="st0" cx="-55.5" cy="406.6" r="4.2"/>
			<circle id="XMLID_168_" class="st0" cx="-83.3" cy="352.9" r="7.3"/>
			<circle id="XMLID_167_" class="st0" cx="-80.8" cy="372.2" r="6.9"/>
			<circle id="XMLID_165_" class="st0" cx="-78.4" cy="391.5" r="5.6"/>
			<circle id="XMLID_160_" class="st0" cx="-104.6" cy="355.6" r="7.3"/>
			<circle id="XMLID_159_" class="st0" cx="-102.2" cy="374.9" r="6.9"/>
			<circle id="XMLID_156_" class="st0" cx="0.3" cy="343" r="7.3"/>
			<circle id="XMLID_151_" class="st0" cx="2.7" cy="362.3" r="6.9"/>
			<circle id="XMLID_150_" class="st0" cx="5.2" cy="381.6" r="5.6"/>
			<circle id="XMLID_149_" class="st0" cx="22.6" cy="340.2" r="7.3"/>
			<circle id="XMLID_142_" class="st0" cx="25.1" cy="359.5" r="6.9"/>
			<circle id="XMLID_141_" class="st0" cx="-20.4" cy="345.6" r="7.3"/>
			<circle id="XMLID_136_" class="st0" cx="-18" cy="364.9" r="6.9"/>
			<circle id="XMLID_135_" class="st0" cx="-15.5" cy="384.2" r="5.6"/>
			<circle id="XMLID_130_" class="st0" cx="-13.3" cy="402" r="4.2"/>
			<circle id="XMLID_129_" class="st0" cx="-41.8" cy="348.3" r="7.3"/>
			<circle id="XMLID_122_" class="st0" cx="-39.3" cy="367.6" r="6.9"/>
			<circle id="XMLID_121_" class="st0" cx="-36.9" cy="386.9" r="5.6"/>
			<circle id="XMLID_119_" class="st0" cx="-34.7" cy="404.7" r="4.2"/>
			<circle id="XMLID_118_" class="st0" cx="-32.6" cy="420.9" r="2.8"/>
		</g>
		<g id="XMLID_356_">
			<circle id="XMLID_117_" class="st0" cx="-173.6" cy="211.7" r="7.3"/>
			<circle id="XMLID_116_" class="st0" cx="-185.6" cy="196.4" r="6.9"/>
			<circle id="XMLID_115_" class="st0" cx="-197.6" cy="181.2" r="5.6"/>
			<circle id="XMLID_114_" class="st0" cx="-208.7" cy="167.1" r="4.2"/>
			<circle id="XMLID_113_" class="st0" cx="-189.9" cy="224.6" r="7.3"/>
			<circle id="XMLID_112_" class="st0" cx="-202" cy="209.4" r="6.9"/>
			<circle id="XMLID_111_" class="st0" cx="-214" cy="194.1" r="5.6"/>
			<circle id="XMLID_110_" class="st0" cx="-206.8" cy="238" r="7.3"/>
			<circle id="XMLID_109_" class="st0" cx="-218.9" cy="222.7" r="6.9"/>
			<circle id="XMLID_108_" class="st0" cx="-124.3" cy="172" r="7.3"/>
			<circle id="XMLID_107_" class="st0" cx="-136.3" cy="156.7" r="6.9"/>
			<circle id="XMLID_106_" class="st0" cx="-148.4" cy="141.5" r="5.6"/>
			<circle id="XMLID_105_" class="st0" cx="-106.6" cy="158" r="7.3"/>
			<circle id="XMLID_104_" class="st0" cx="-118.7" cy="142.8" r="6.9"/>
			<circle id="XMLID_103_" class="st0" cx="-140.7" cy="184.9" r="7.3"/>
			<circle id="XMLID_102_" class="st0" cx="-152.7" cy="169.7" r="6.9"/>
			<circle id="XMLID_101_" class="st0" cx="-164.8" cy="154.4" r="5.6"/>
			<circle id="XMLID_100_" class="st0" cx="-175.9" cy="140.3" r="4.2"/>
			<circle id="XMLID_99_" class="st0" cx="-157.6" cy="198.2" r="7.3"/>
			<circle id="XMLID_98_" class="st0" cx="-169.6" cy="183" r="6.9"/>
			<circle id="XMLID_97_" class="st0" cx="-181.6" cy="167.7" r="5.6"/>
			<circle id="XMLID_96_" class="st0" cx="-192.8" cy="153.7" r="4.2"/>
			<circle id="XMLID_95_" class="st0" cx="-202.9" cy="140.8" r="2.8"/>
		</g>
		<path id="XMLID_94_" class="st0" d="M50.9,233.1c-1,0-2,0-3,0.1c-6.1-20.3-23.2-35-43.4-35c-7.4,0-14.4,2-20.6,5.5
			c-11.4-22.7-35.5-38.4-63.4-38.4c-32.4,0-59.7,21.1-67.8,49.7c-20.3,1.2-36.4,18.3-36.4,39.2c0,2.2,0.2,4.4,0.5,6.5
			c-12.1,1.1-21.6,13.7-21.6,29.2c0,16.2,10.4,29.2,23.3,29.2c1.5,0,3.1-0.2,4.5-0.6c2.6,19.3,18.6,34.2,38,34.2
			c8.6,0,16.5-2.9,22.8-7.8c11.3,16.3,30.9,27,53.2,27c21.2,0,39.9-9.7,51.4-24.5c5.4,3.8,11.8,6.1,18.6,6.1
			c17,0,31.1-13.6,34.2-31.7c3.1,0.8,6.3,1.3,9.6,1.3c22.6,0,40.9-20.2,40.9-45.1C91.8,253.3,73.5,233.1,50.9,233.1z"/>
		<g id="XMLID_350_">
			
				<linearGradient id="XMLID_2_" gradientUnits="userSpaceOnUse" x1="-58.3074" y1="203.2025" x2="-78.4645" y2="403.2205" gradientTransform="matrix(1 0 0 -1 0 562.2)">
				<stop  offset="0" style="stop-color:#F7941D"/>
				<stop  offset="1" style="stop-color:#F9ED32"/>
			</linearGradient>
			<path id="XMLID_93_" class="st1" d="M40.6,222.8c-1,0-2,0-3,0.1c-6.1-20.3-23.2-35-43.4-35c-7.4,0-14.4,2-20.6,5.5
				c-11.4-22.6-35.5-38.3-63.5-38.3c-32.4,0-59.7,21.1-67.8,49.7c-20.3,1.3-36.4,18.3-36.4,39.2c0,2.2,0.2,4.4,0.5,6.5
				c-12.1,1.1-21.6,13.7-21.6,29.2c0,16.2,10.4,29.2,23.3,29.2c1.5,0,3.1-0.2,4.5-0.6c2.6,19.3,18.6,34.2,38,34.2
				c8.6,0,16.5-2.9,22.8-7.8c11.3,16.3,30.9,27,53.2,27c21.2,0,39.9-9.7,51.4-24.5c5.4,3.8,11.8,6.1,18.6,6.1
				c17,0,31.1-13.6,34.2-31.7c3.1,0.8,6.3,1.3,9.6,1.3c22.6,0,40.9-20.2,40.9-45.1C81.5,243,63.2,222.8,40.6,222.8z"/>
			<path id="XMLID_351_" class="st0" d="M-89.9,155.1c27.9,0,52.1,15.7,63.4,38.4c6.2-3.5,13.2-5.5,20.6-5.5
				c20.2,0,37.3,14.6,43.4,35c1-0.1,2-0.1,3-0.1c22.6,0,40.9,20.2,40.9,45.1s-18.3,45.1-40.9,45.1c-3.3,0-6.5-0.4-9.6-1.3
				c-3.1,18.1-17.2,31.7-34.2,31.7c-6.9,0-13.2-2.2-18.6-6.1c-11.5,14.8-30.2,24.5-51.4,24.5c-22.3,0-42-10.8-53.2-27
				c-6.4,4.9-14.3,7.8-22.8,7.8c-19.4,0-35.4-14.9-38-34.2c-1.5,0.4-3,0.6-4.5,0.6c-12.9,0-23.3-13.1-23.3-29.2
				c0-15.4,9.5-28.1,21.6-29.2c-0.3-2.1-0.5-4.3-0.5-6.5c0-20.9,16.1-38,36.4-39.2C-149.5,176.2-122.3,155.1-89.9,155.1L-89.9,155.1
				z M-89.9,149.9c-16.8,0-32.8,5.2-46.1,15.1c-12,8.9-21,21.2-25.7,35c-21.3,3.1-37.6,21.8-37.6,44c0,0.8,0,1.6,0.1,2.4
				c-5.3,1.7-10.1,5.2-13.9,10.2c-4.7,6.3-7.3,14.5-7.3,23c0,9,2.8,17.5,8,23.9c5.4,6.9,12.7,10.6,20.5,10.6c0.1,0,0.2,0,0.4,0
				c2.2,8.6,6.8,16.5,13.4,22.5c8,7.2,18.2,11.2,28.8,11.2c7.7,0,15.1-2,21.7-5.9c12.9,15.8,32.9,25.2,54.4,25.2
				c11,0,21.9-2.5,31.6-7.2c8-3.9,15.1-9.3,20.9-15.7c5.4,2.9,11.4,4.5,17.5,4.5c17.5,0,32.9-12.7,38.1-30.8
				c1.9,0.3,3.8,0.4,5.7,0.4c12.4,0,24-5.3,32.8-14.9c8.6-9.5,13.3-22,13.3-35.3c0-13.3-4.7-25.9-13.3-35.3
				c-8.6-9.4-19.9-14.7-32.1-14.9c-7.8-21-26.3-34.9-47-34.9c-6.3,0-12.6,1.3-18.5,3.8c-6.1-10.2-14.6-18.9-24.9-25.3
				C-61.3,153.9-75.4,149.9-89.9,149.9L-89.9,149.9z"/>
		</g>
		<path id="XMLID_90_" class="st0" d="M-98.7,337.5l-54.7,80c-5.4,7.9-17.7,1.8-14.6-7.3l0,0c0.4-1.2,1-2.2,1.9-3.1L-98.7,337.5z"/>
		<path id="XMLID_88_" class="st0" d="M-175.2,240.4l-58.1-25.4c-5.7-2.5-3.3-11.1,2.9-10.3l0,0c0.8,0.1,1.5,0.4,2.2,0.8
			L-175.2,240.4z"/>
		<path id="XMLID_87_" class="st0" d="M-94.4,339.2l-17.1,66.9c-1.7,6.6-11.4,5.5-11.5-1.3l0,0c0-0.9,0.2-1.7,0.5-2.5L-94.4,339.2z"
			/>
		<path id="XMLID_86_" class="st0" d="M7.1,315L63,355.5c5.5,4,0.9,12.6-5.5,10.2l0,0c-0.8-0.3-1.5-0.8-2.2-1.4L7.1,315z"/>
		<path id="XMLID_85_" class="st0" d="M19.5,318.4l66.1,20c6.5,2,5,11.6-1.8,11.5l0,0c-0.9,0-1.7-0.2-2.5-0.6L19.5,318.4z"/>
		<path id="XMLID_84_" class="st0" d="M-129,358.1l-30.7,27.5c-3,2.7-7.5-1.1-5.3-4.5l0,0c0.3-0.4,0.6-0.8,1.1-1.1L-129,358.1z"/>
		<path id="XMLID_83_" class="st0" d="M-172.5,306.6l-36.8,18.4c-3.6,1.8-6.9-3-3.9-5.7l0,0c0.4-0.3,0.8-0.6,1.3-0.8L-172.5,306.6z"
			/>
		<g id="XMLID_321_">
			<g id="XMLID_336_">
				
					<linearGradient id="XMLID_3_" gradientUnits="userSpaceOnUse" x1="-162.6" y1="303" x2="-86.5" y2="303" gradientTransform="matrix(1 0 0 -1 0 562.2)">
					<stop  offset="0" style="stop-color:#BE093D"/>
					<stop  offset="1" style="stop-color:#FF0049"/>
				</linearGradient>
				<path id="XMLID_340_" class="st2" d="M-111.2,205.2l24.7,4.3c-22.1,38.8-39.6,73.9-52.5,105.3l-23.6-1.5l16.3-34.2l-12.9-61.7
					l29.9-13.8c-0.3,4.7-0.5,10.6-0.6,17.6c-0.1,7.1,0.3,14.1,1.1,21.2L-111.2,205.2z"/>
				<path id="XMLID_337_" class="st0" d="M-129.3,203.5c-0.3,4.7-0.5,10.6-0.6,17.6c-0.1,7.1,0.3,14.1,1.1,21.2l17.6-37.1l24.7,4.3
					c-22.1,38.8-39.6,73.9-52.5,105.3l-23.6-1.5l16.3-34.2l-12.9-61.7L-129.3,203.5L-129.3,203.5z M-123.6,195.2l-7.9,3.6
					l-29.9,13.8l-3.7,1.7l0.8,4l12.5,60l-15.5,32.7l-3.3,6.9l7.6,0.5l23.6,1.5l3.7,0.2l1.4-3.4c12.7-31.1,30.3-66.3,52.2-104.7
					l3.6-6.4l-7.2-1.3l-24.6-4.2l-3.9-0.7l-1.7,3.5l-8.9,18.7c0-0.2,0-0.3,0-0.5c0.1-6.9,0.3-12.8,0.6-17.4L-123.6,195.2
					L-123.6,195.2z"/>
			</g>
			<g id="XMLID_330_">
				
					<linearGradient id="XMLID_4_" gradientUnits="userSpaceOnUse" x1="-110.8603" y1="304.85" x2="-41.4603" y2="304.85" gradientTransform="matrix(1 0 0 -1 0 562.2)">
					<stop  offset="0" style="stop-color:#BE093D"/>
					<stop  offset="1" style="stop-color:#FF0049"/>
				</linearGradient>
				<path id="XMLID_334_" class="st3" d="M-71.1,230.3c-0.8,3-1.5,5.9-2.1,8.8l-1.7,8.5l24.6-5.2l-1.4,21.2
					c-11.6,2-20.8,3.8-27.4,5.4c-0.4,2-0.8,4.1-1.1,6.1l-1.1,6l28.6-4.1l-2,28.5c-14.7,1.2-33.4,4.8-56,10.6l18.3-110l51.1-7.5
					l-2,28.5C-53.5,227.9-62.7,229-71.1,230.3z"/>
				<path id="XMLID_331_" class="st0" d="M-41.5,198.4l-2,28.5c-10,0.9-19.2,2-27.6,3.4c-0.8,3-1.5,5.9-2.1,8.8l-1.7,8.5l24.6-5.2
					l-1.4,21.2c-11.6,2-20.8,3.8-27.4,5.4c-0.4,2-0.8,4.1-1.1,6.1l-1.1,6l28.6-4.1l-2,28.5c-14.7,1.2-33.4,4.8-56,10.6l18.3-110
					L-41.5,198.4L-41.5,198.4z M-35.9,192.4l-6.4,0.9l-51.1,7.5l-3.7,0.5l-0.6,3.7L-116,315.1l-1.3,7.8l7.7-2
					c22.2-5.7,40.8-9.2,55.2-10.4l4.4-0.4l0.3-4.4l2-28.5l0.4-6.4l-6.3,0.9l-21.4,3.1c0.1-0.6,0.2-1.1,0.3-1.7
					c6.2-1.3,14.2-2.9,23.8-4.6l4-0.7l0.3-4.1l1.4-21.2l0.4-6.8l-6.7,1.4l-16.9,3.6l0.1-0.7c0.4-1.7,0.8-3.5,1.2-5.2
					c7.4-1.1,15.4-2,24-2.8l4.4-0.4l0.3-4.4l2-28.5L-35.9,192.4L-35.9,192.4z"/>
			</g>
			<g id="XMLID_322_">
				
					<linearGradient id="XMLID_5_" gradientUnits="userSpaceOnUse" x1="-50.5586" y1="302.1675" x2="20.9635" y2="302.1675" gradientTransform="matrix(1 0 0 -1 0 562.2)">
					<stop  offset="0" style="stop-color:#BE093D"/>
					<stop  offset="1" style="stop-color:#FF0049"/>
				</linearGradient>
				<path id="XMLID_328_" class="st4" d="M20.2,234.7c-3.3,1.2-7.2,2.7-11.7,4.4L-3,243.6c0-4.8-1.3-7.2-4-7.2
					c-3.8,0-7.6,2.1-11.4,6.4c-2.7,3.2-3.8,6.2-3.4,9.2c0.3,1.9,2.2,2.9,5.8,2.9c1.9,0,4.5-0.3,7.7-0.9c4.4-0.9,8.3-1.4,11.7-1.4
					c8.6,0,13.6,3,15,8.9c0.4,1.8,0.6,3.8,0.6,5.8c0,6.5-2.5,13.6-7.4,21.2c-6.3,9.9-15.2,18.3-26.7,25c-6,3.6-12,5.4-17.8,5.4
					c-5.3,0-10.5-1.5-15.7-4.5c2.6-6.1,6.7-15.2,12.3-27.2c3.3,2.3,6.8,3.4,10.4,3.4c1.6,0,3.3-0.3,5.1-0.8c3.2-0.8,6.2-2,9.1-3.5
					c4.1-2.2,6.1-4.6,6.1-6.9c0-2.6-2.1-3.8-6.3-3.8c-2.9,0-7,0.6-12.5,1.8s-9.6,1.8-12.5,1.8c-3.8,0-6.7-0.7-8.7-2.1
					c-4-2.7-5.6-6.8-4.9-12.4c1.3-11.4,8.6-24.5,21.9-39.4C-15,210-3.3,201.9,6.5,201.2c9.5-0.6,14.3,6.5,14.3,21.5
					C21,226.1,20.7,230.1,20.2,234.7z"/>
				<path id="XMLID_323_" class="st0" d="M7.8,201c8.8,0,13.2,7.2,13.2,21.5c0,3.6-0.3,7.6-0.8,12.1c-3.3,1.2-7.2,2.7-11.7,4.4
					L-3,243.5c0-4.8-1.3-7.2-4-7.2c-3.8,0-7.6,2.1-11.4,6.4c-2.7,3.2-3.8,6.2-3.4,9.2c0.3,1.9,2.2,2.9,5.8,2.9
					c1.9,0,4.5-0.3,7.7-0.9c4.4-0.9,8.3-1.4,11.7-1.4c8.6,0,13.6,3,15,8.9c0.4,1.8,0.6,3.8,0.6,5.8c0,6.5-2.5,13.6-7.4,21.2
					c-6.3,9.9-15.2,18.3-26.7,25c-6,3.6-12,5.4-17.8,5.4c-5.3,0-10.5-1.5-15.7-4.5c2.6-6.1,6.7-15.2,12.3-27.2
					c3.3,2.3,6.8,3.4,10.4,3.4c1.6,0,3.3-0.3,5.1-0.8c3.2-0.8,6.2-2,9.1-3.5c4.1-2.2,6.1-4.6,6.1-6.9c0-2.6-2.1-3.8-6.3-3.8
					c-2.9,0-7,0.6-12.5,1.8s-9.6,1.8-12.5,1.8c-3.8,0-6.7-0.7-8.7-2.1c-4-2.7-5.6-6.8-4.9-12.4c1.3-11.4,8.6-24.5,21.9-39.4
					c13.6-15.3,25.3-23.4,35.1-24.1C7.1,201,7.4,201,7.8,201L7.8,201z M7.8,195.8L7.8,195.8c-0.5,0-1,0-1.4,0l0,0l0,0
					c-11.3,0.8-24,9.3-38.6,25.8c-14.1,15.9-21.7,29.7-23.2,42.2c-1.2,9.5,3.2,14.7,7.1,17.3c2.2,1.5,4.8,2.5,8.1,2.8l-0.5,1
					c-5.6,12-9.8,21.2-12.4,27.4l-1.7,4.2l3.9,2.3c5.9,3.4,12,5.1,18.2,5.1c6.7,0,13.6-2.1,20.4-6.1c12.1-7.1,21.7-16.1,28.4-26.7
					c5.4-8.4,8.2-16.4,8.2-24c0-2.4-0.2-4.7-0.7-6.9l0,0l0,0c-1-4.3-3.5-7.7-7.2-9.9c-3.3-2-7.5-2.9-12.8-2.9c-0.8,0-1.5,0-2.3,0.1
					l9.3-3.6c4.6-1.8,8.4-3.2,11.6-4.4l3-1.1l0.4-3.1c0.5-4.7,0.8-9,0.8-12.7c0-8.2-1.3-14.4-4.1-18.8
					C18.9,198.6,14,195.8,7.8,195.8L7.8,195.8z M-14.4,246.2c1.6-1.8,3.8-3.9,6.1-4.5c0.1,0.4,0.1,1.1,0.1,1.9v5.2
					c-0.4,0.1-0.7,0.1-1.1,0.2c-2.8,0.5-5.1,0.8-6.7,0.8c-0.2,0-0.4,0-0.6,0C-16.2,248.7-15.5,247.5-14.4,246.2L-14.4,246.2z
					 M-31.7,284c2.4-0.3,5.3-0.8,8.5-1.5c4.7-1,8.3-1.6,10.8-1.6c-0.4,0.3-1,0.6-1.7,1c-2.5,1.3-5.1,2.4-7.9,3.1h-0.1h-0.1
					c-1.3,0.4-2.5,0.6-3.6,0.6C-27.8,285.5-29.8,285-31.7,284L-31.7,284z"/>
			</g>
		</g>
		<g id="XMLID_311_">
			
				<linearGradient id="XMLID_6_" gradientUnits="userSpaceOnUse" x1="-145.9655" y1="228.7167" x2="-104.8642" y2="228.7167" gradientTransform="matrix(0.9879 -0.1551 -0.1551 -0.9879 238.6836 584.8345)">
				<stop  offset="0" style="stop-color:#F7941D"/>
				<stop  offset="1" style="stop-color:#F9ED32"/>
			</linearGradient>
			<polygon id="XMLID_68_" class="st5" points="76.3,359 84.6,370.7 98.9,370.6 90.3,382.1 94.9,395.7 81.3,391.1 69.8,399.6 
				70,385.3 58.3,377 72,372.7 			"/>
			<path id="XMLID_312_" class="st0" d="M76.3,359l8.3,11.7l14.4-0.2L90.4,382l4.6,13.6L81.4,391l-11.5,8.6l0.2-14.4l-11.7-8.3
				l13.7-4.2L76.3,359L76.3,359z M74.5,347.5l-3.1,10l-3.5,11.1L56.8,372l-10,3.1l8.5,6.1l9.5,6.7l-0.2,11.6L64.5,410l8.4-6.3l9.3-7
				l11,3.8l9.9,3.4l-3.3-9.9l-3.7-11l7-9.3l6.3-8.4l-10.5,0.1l-11.6,0.1l-6.7-9.5L74.5,347.5L74.5,347.5z"/>
		</g>
		<polygon id="XMLID_65_" class="st0" points="97.1,343.5 101.9,346.4 106.9,344 105.7,349.5 109.4,353.6 103.9,354.1 101.2,358.9 
			99,353.8 93.5,352.7 97.7,349 		"/>
		<polygon id="XMLID_64_" class="st0" points="-252.4,182.9 -248.4,193.7 -237.4,196.6 -246.4,203.6 -245.7,215.1 -255.2,208.6 
			-265.9,212.8 -262.7,201.8 -270,193 -258.5,192.6 		"/>
		<polygon id="XMLID_63_" class="st0" points="-222.8,322.6 -222.7,327.5 -218.7,330.2 -223.3,331.7 -224.6,336.4 -227.5,332.5 
			-232.4,332.7 -229.6,328.7 -231.3,324.2 -226.6,325.6 		"/>
		<g id="XMLID_303_">
			
				<linearGradient id="XMLID_7_" gradientUnits="userSpaceOnUse" x1="-189.6454" y1="290.9015" x2="-159.7483" y2="290.9015" gradientTransform="matrix(0.9247 0.3806 0.3806 -0.9247 -148.2559 720.3434)">
				<stop  offset="0" style="stop-color:#F7941D"/>
				<stop  offset="1" style="stop-color:#F9ED32"/>
			</linearGradient>
			<polygon id="XMLID_62_" class="st6" points="-193.7,371.7 -192.9,382.1 -184,387.4 -193.6,391.3 -195.9,401.5 -202.6,393.5 
				-213,394.5 -207.5,385.6 -211.6,376 -201.5,378.6 			"/>
			<path id="XMLID_304_" class="st0" d="M-193.7,371.7l0.7,10.4l9,5.3l-9.7,3.9l-2.3,10.2l-6.7-8l-10.4,1l5.5-8.8l-4.1-9.6l10.1,2.5
				L-193.7,371.7L-193.7,371.7z M-189.2,360.9l-7.9,6.9l-5.8,5.1l-7.5-1.9l-10.2-2.6l4.2,9.6l3.1,7.1l-4.1,6.5l-5.6,8.9l10.4-1
				l7.7-0.7l5,5.9l6.7,8l2.3-10.2l1.7-7.5l7.2-2.9l9.7-3.9l-9-5.3l-6.6-3.9l-0.5-7.7L-189.2,360.9L-189.2,360.9z"/>
		</g>
		<path id="XMLID_59_" class="st7" d="M-139.4,211.1l-17,8l7.5,36.2c0.1,0.7,1.2,0.5,1.1-0.2l-4.2-33.3l13.1-9.8
			C-138.3,211.6-138.8,210.8-139.4,211.1z"/>
		<path id="XMLID_58_" class="st7" d="M-70.8,205.6l-19.2,3l-6.5,39.1c-0.1,0.6,0.8,0.8,1,0.2l8.7-35.2l16.3-5.9
			C-69.8,206.5-70.1,205.5-70.8,205.6z"/>
		<path id="XMLID_57_" class="st7" d="M-114.6,257.1l-26.9,55h-6l31.9-55.6C-115.2,256-114.3,256.5-114.6,257.1z"/>
		<path id="XMLID_56_" class="st7" d="M-33.7,236.5c7.5-9.8,26.6-32.9,40.3-33.5l0,0c6.1,0.2,8.6,3.9,9.6,7.2
			c0.1,0.3-0.3,0.5-0.5,0.2c-1.4-2-4.7-5.2-10.5-4.3c-10.3,1.6-30.3,21.9-38.5,30.6C-33.5,237.1-33.9,236.8-33.7,236.5z"/>
		<path id="XMLID_55_" class="st0" d="M-146.1,193c0,0,15.5-32.4,58.9-34.1C-87.2,158.9-121.5,163.8-146.1,193z"/>
		<path id="XMLID_54_" class="st0" d="M72.9,249.4c0,0,7.6,44.4-32,60.5C40.9,309.8,88.4,299.9,72.9,249.4z"/>
		<path id="XMLID_53_" class="st0" d="M-210.8,269.7c0,0-6.9,19.7,9.6,34.1C-201.2,303.8-212.3,289.7-210.8,269.7z"/>
	</g>
	<g id="XMLID_367_">
		
			<linearGradient id="XMLID_8_" gradientUnits="userSpaceOnUse" x1="52.3493" y1="251.8581" x2="62.2635" y2="373.306" gradientTransform="matrix(1 0 0 -1 0 562.2)">
			<stop  offset="0" style="stop-color:#BE093D"/>
			<stop  offset="1" style="stop-color:#FF0049"/>
		</linearGradient>
		<path id="XMLID_373_" class="st8" d="M39.4,296.5c4.3-0.6,8.1,0,11.4,1.8c3.9,2,5.9,5,5.9,9.2c0,5.6-3,10.8-9,15.5
			c-4.7,3.7-9.8,5.9-15.3,6.6c-4.4,0.6-8.2,0.1-11.4-1.5c-3.8-2-5.7-5-5.7-9.2c0-5.6,2.9-10.9,8.6-15.6
			C28.6,299.6,33.7,297.3,39.4,296.5z M60.2,182.1l38.5,6.4c-10.3,18.3-17.7,32.6-22.5,42.9c-6.5,14.1-12.3,29.4-17.3,45.8
			l-25.6-1.1L60.2,182.1z"/>
		<path id="XMLID_368_" class="st0" d="M60.2,182.1l38.5,6.4c-10.3,18.3-17.7,32.6-22.5,42.9c-6.5,14.1-12.3,29.4-17.3,45.8
			l-25.6-1.1L60.2,182.1L60.2,182.1z M42.5,296.3c3,0,5.8,0.7,8.3,2.1c3.9,2,5.9,5,5.9,9.2c0,5.6-3,10.8-9,15.5
			c-4.7,3.7-9.8,5.9-15.3,6.6c-1.2,0.2-2.4,0.3-3.5,0.3c-2.9,0-5.6-0.6-7.9-1.7c-3.8-2-5.7-5-5.7-9.2c0-5.6,2.9-10.9,8.6-15.6
			c4.7-3.8,9.8-6.1,15.5-6.8C40.4,296.4,41.5,296.3,42.5,296.3L42.5,296.3z M55.7,175.1l-1.5,5.3l-26.9,94l-2.2,7.6l7.8,0.3
			l25.6,1.1l4.8,0.2l1.4-4.6c4.9-16.1,10.6-31.3,17-45c4.7-10.1,12.2-24.4,22.2-42.5l4.3-7.7l-8.7-1.5L61,175.9L55.7,175.1
			L55.7,175.1z M42.5,290.1L42.5,290.1c-1.3,0-2.6,0.1-4,0.3c-6.8,0.9-13,3.6-18.5,8.1l0,0l0,0c-7.2,6-10.9,12.9-10.9,20.4
			c0,6.5,3.2,11.7,9.1,14.7l0,0l0,0c3.2,1.6,6.7,2.4,10.6,2.4c1.4,0,2.9-0.1,4.4-0.3c6.6-0.9,12.7-3.5,18.3-7.9
			c7.6-5.9,11.4-12.7,11.4-20.3c0-6.5-3.3-11.7-9.2-14.7C50.3,291.1,46.5,290.1,42.5,290.1L42.5,290.1z"/>
	</g>
</g>
<path id="XMLID_376_" class="st7" d="M49.1,228.2l12.7-42.8l19.4,3.5c0.7,0.1,0.6,1.2-0.1,1.2H64.6l-14.3,38.5
	C50,229.3,48.9,229,49.1,228.2z"/>
</svg>
