<?xml version="1.0" encoding="utf-8"?>
<!-- Generator: Adobe Illustrator 19.0.0, SVG Export Plug-In . SVG Version: 6.00 Build 0)  -->
<svg version="1.1" id="Capa_1" xmlns="http://www.w3.org/2000/svg" xmlns:xlink="http://www.w3.org/1999/xlink" x="0px" y="0px"
	 viewBox="0 0 475.8 309.7" style="enable-background:new 0 0 475.8 309.7;" xml:space="preserve">
<style type="text/css">
	.st0{fill:#231F20;}
	.st1{fill:url(#XMLID_275_);}
	.st2{fill:url(#XMLID_276_);}
	.st3{fill:url(#XMLID_277_);}
	.st4{fill:url(#XMLID_278_);}
	.st5{fill:url(#XMLID_279_);}
	.st6{fill:url(#XMLID_280_);}
	.st7{fill:url(#XMLID_281_);}
	.st8{opacity:0.47;fill:#FFFFFF;}
	.st9{fill:url(#XMLID_282_);}
</style>
<g id="XMLID_121_">
	<g id="XMLID_188_">
		<circle id="XMLID_119_" class="st0" cx="208.7" cy="104.3" r="6.5"/>
		<circle id="XMLID_118_" class="st0" cx="199" cy="89.8" r="6.2"/>
		<circle id="XMLID_117_" class="st0" cx="189.3" cy="75.3" r="5"/>
		<circle id="XMLID_116_" class="st0" cx="180.4" cy="61.9" r="3.7"/>
		<circle id="XMLID_115_" class="st0" cx="224.3" cy="93.9" r="6.5"/>
		<circle id="XMLID_114_" class="st0" cx="214.6" cy="79.4" r="6.2"/>
		<circle id="XMLID_113_" class="st0" cx="204.9" cy="64.9" r="5"/>
		<circle id="XMLID_112_" class="st0" cx="240.3" cy="83.2" r="6.5"/>
		<circle id="XMLID_111_" class="st0" cx="230.6" cy="68.7" r="6.2"/>
		<circle id="XMLID_110_" class="st0" cx="161.2" cy="135.4" r="6.5"/>
		<circle id="XMLID_109_" class="st0" cx="151.5" cy="120.9" r="6.2"/>
		<circle id="XMLID_108_" class="st0" cx="141.8" cy="106.4" r="5"/>
		<circle id="XMLID_107_" class="st0" cx="144.4" cy="146.6" r="6.5"/>
		<circle id="XMLID_106_" class="st0" cx="134.7" cy="132.1" r="6.2"/>
		<circle id="XMLID_105_" class="st0" cx="176.7" cy="124.9" r="6.5"/>
		<circle id="XMLID_104_" class="st0" cx="167.1" cy="110.5" r="6.2"/>
		<circle id="XMLID_103_" class="st0" cx="157.4" cy="96" r="5"/>
		<circle id="XMLID_102_" class="st0" cx="148.4" cy="82.6" r="3.7"/>
		<circle id="XMLID_101_" class="st0" cx="192.8" cy="114.2" r="6.5"/>
		<circle id="XMLID_100_" class="st0" cx="183.1" cy="99.7" r="6.2"/>
		<circle id="XMLID_99_" class="st0" cx="173.4" cy="85.2" r="5"/>
		<circle id="XMLID_98_" class="st0" cx="164.5" cy="71.9" r="3.7"/>
		<circle id="XMLID_97_" class="st0" cx="156.3" cy="59.6" r="2.5"/>
	</g>
	<g id="XMLID_122_">
		<polygon id="XMLID_96_" class="st0" points="196.3,112.6 229.1,126 266.8,60.4 285.3,133.2 356.3,114.7 340.8,161.5 454.1,185.4 
			341.7,206.8 362.3,247.6 310.5,244 324.4,298.9 259.2,251.2 231.9,287.6 207,238.5 127.3,271 167,206.4 73.9,176.9 165.2,155.4 
			140.3,135.7 201.7,148.7 		"/>
		<g id="XMLID_182_">
			<linearGradient id="XMLID_275_" gradientUnits="userSpaceOnUse" x1="261.393" y1="259.737" x2="243.5096" y2="86.2685">
				<stop  offset="0" style="stop-color:#F7941D"/>
				<stop  offset="1" style="stop-color:#F9ED32"/>
			</linearGradient>
			<polygon id="XMLID_95_" class="st1" points="184.4,100.7 217.2,114.1 254.9,48.5 273.4,121.3 344.4,102.8 328.9,149.5 
				442.2,173.5 329.8,194.9 350.4,235.7 298.6,232 312.5,286.9 247.3,239.3 220,275.7 195.1,226.6 115.3,259 155.1,194.4 62,165 
				153.3,143.5 128.4,123.8 189.8,136.8 			"/>
			<path id="XMLID_183_" class="st0" d="M254.9,48.5l18.5,72.8l71-18.5l-15.5,46.7l113.3,24l-112.4,21.4l20.6,40.8l-51.9-3.6
				l14,54.9l-65.2-47.6L220,275.7l-24.9-49.1L115.3,259l39.7-64.6L62,165l91.3-21.5l-24.9-19.7l61.4,13l-5.3-36l32.8,13.4
				L254.9,48.5L254.9,48.5z M256.5,36.3l-5.7,9.9l-35.7,62.1l-29-11.9l-7.5-3.1l1.2,8.1l4.4,29.5l-54.9-11.6l-19.3-4.1l15.5,12.3
				l17.4,13.8l-82,19.3l-16.4,3.9l16,5.1l87.5,27.6l-36.6,59.5l-7.4,12.1l13.1-5.3l75.8-30.8l22.9,45.3l3.4,6.7l4.5-6l24.6-32.7
				l61.5,44.9l10.4,7.6l-3.2-12.5l-12.4-48.7l45.5,3.2l8.1,0.6l-3.7-7.3l-17.8-35.3L443,178.1l22.7-4.3l-22.6-4.8l-108.2-22.9
				l13.8-41.8l2.7-8.1l-8.3,2.2l-66.5,17.3l-17.4-68.3L256.5,36.3L256.5,36.3z"/>
		</g>
		<g id="XMLID_149_">
			<g id="XMLID_173_">
				<linearGradient id="XMLID_276_" gradientUnits="userSpaceOnUse" x1="104.351" y1="178.6277" x2="181.1694" y2="178.6277">
					<stop  offset="0" style="stop-color:#27AAE1"/>
					<stop  offset="1" style="stop-color:#52E5EC"/>
				</linearGradient>
				<path id="XMLID_179_" class="st2" d="M157.4,123.1c9.7,0,16.6,5.4,20.6,16.2c2.1,5.6,3.2,11.7,3.2,18.4c0,6.4-1,13.4-2.9,20.9
					c-3.4,12.9-9.3,24.7-17.6,35.5c-10.2,13.2-21,19.8-32.4,19.8c-9.8,0-16.8-5.4-20.9-16.2c-2-5.3-3-11.3-3-17.9
					c0-6.5,1-13.6,3-21.2c3.4-12.9,9.2-24.8,17.5-35.7C135.1,129.8,145.9,123.1,157.4,123.1z M152.4,157.3c-5,0-10.2,4.1-15.4,12.4
					c-4.2,6.5-7.2,12.9-8.8,19.1c-0.8,3.3-1.2,6.3-1.2,8.9c0,3.8,0.9,6.8,2.8,9.2c2.1,2.7,5,4,8.8,4c5.1,0,9.8-2.7,13.9-8.1
					c3.3-4.3,5.7-9.4,7.2-15.3c1.7-6.9,2.1-13.7,1.1-20.4C159.6,160.6,156.8,157.3,152.4,157.3z"/>
				<path id="XMLID_174_" class="st0" d="M157.4,123.1c9.7,0,16.6,5.4,20.6,16.2c2.1,5.6,3.2,11.7,3.2,18.4c0,6.4-1,13.4-2.9,20.9
					c-3.4,12.9-9.3,24.7-17.6,35.5c-10.2,13.2-21,19.8-32.4,19.8c-9.8,0-16.8-5.4-20.9-16.2c-2-5.3-3-11.3-3-17.9
					c0-6.5,1-13.6,3-21.2c3.4-12.9,9.2-24.8,17.5-35.7C135.1,129.8,145.9,123.1,157.4,123.1L157.4,123.1z M138.5,211
					c5.1,0,9.8-2.7,13.9-8.1c3.3-4.3,5.7-9.4,7.2-15.3c1.7-6.9,2.1-13.7,1.1-20.4c-1.1-6.6-3.9-9.9-8.3-9.9c-5,0-10.2,4.1-15.4,12.4
					c-4.2,6.5-7.2,12.9-8.8,19.1c-0.8,3.3-1.2,6.3-1.2,8.9c0,3.8,0.9,6.8,2.8,9.2C131.8,209.7,134.7,211,138.5,211L138.5,211z
					 M157.4,118.5c-12.9,0-25.1,7.3-36.2,21.8c-8.6,11.3-14.8,23.8-18.3,37.3c-2.1,8-3.2,15.5-3.2,22.4c0,7.1,1.1,13.7,3.3,19.5
					c6.1,15.9,17.1,19.2,25.3,19.2c12.8,0,25-7.3,36-21.6c8.7-11.3,14.9-23.8,18.4-37.2l0,0l0,0c2-7.9,3-15.3,3-22.1
					c0-7.2-1.2-14-3.5-20.1C176.4,121.9,165.5,118.5,157.4,118.5L157.4,118.5z M132.7,190c1.5-5.7,4.3-11.7,8.2-17.8l0,0l0,0
					c4.2-6.6,8.3-10.2,11.5-10.2c0.7,0,2.7,0,3.7,6c0.9,6,0.6,12.3-1,18.5c-1.3,5.2-3.4,9.8-6.3,13.6c-3.2,4.2-6.6,6.3-10.2,6.3
					c-2.3,0-3.9-0.7-5.2-2.2c-1.2-1.6-1.8-3.6-1.8-6.4C131.6,195.5,131.9,192.9,132.7,190L132.7,190z"/>
			</g>
			<g id="XMLID_167_">
				<linearGradient id="XMLID_277_" gradientUnits="userSpaceOnUse" x1="164.6495" y1="183.1025" x2="265.6967" y2="183.1025">
					<stop  offset="0" style="stop-color:#27AAE1"/>
					<stop  offset="1" style="stop-color:#52E5EC"/>
				</linearGradient>
				<path id="XMLID_171_" class="st3" d="M164.6,231.6c12.4-31.4,21.8-63.3,28.4-95.8l32.9-5.4l-4.7,50.5l12.9-46.7l31.6-5.5
					c-3.8,29.9-5.6,56.9-5.6,80.9c0,4.8,0,9.5,0,14.2l-28.1,5l5-60.3l-18,66.8l-15.1,2.1l9.1-84.8l-19.5,75.2L164.6,231.6z"/>
				<path id="XMLID_168_" class="st0" d="M265.7,128.8c-3.8,29.9-5.6,56.9-5.6,80.9c0,4.8,0,9.5,0,14.2l-28.1,5l5-60.3l-18,66.8
					l-15.1,2.1l9.1-84.8l-19.5,75.2l-28.6,3.9c12.4-31.4,21.8-63.3,28.4-95.8l32.9-5.4l-4.7,50.5l12.9-46.7L265.7,128.8L265.7,128.8
					z M271.1,123.2l-6.2,1.1l-31.6,5.5l-2.7,0.5l0.5-5.3l-5.9,1l-32.9,5.4l-3.2,0.5l-0.6,3.1c-6.4,32.1-15.9,64-28.1,95l-2.9,7.4
					l7.8-1.1l28.6-3.9l3.1-0.4l0.8-3l3.8-14.5l-2.4,22.5l-0.6,5.9l5.9-0.8l15.1-2.1l3-0.4l0.8-3l4.8-17.7l-0.8,9.6l-0.5,6l5.9-1
					l28.1-5l3.8-0.7v-3.9v-14.2c0-23.8,1.9-50.8,5.6-80.4L271.1,123.2L271.1,123.2z"/>
			</g>
			<g id="XMLID_159_">
				<linearGradient id="XMLID_278_" gradientUnits="userSpaceOnUse" x1="261.0155" y1="180.4864" x2="336.0741" y2="180.4864">
					<stop  offset="0" style="stop-color:#27AAE1"/>
					<stop  offset="1" style="stop-color:#52E5EC"/>
				</linearGradient>
				<path id="XMLID_165_" class="st4" d="M284.8,234.1c-9.7,0-16.6-5.2-20.7-15.7c-2.1-5.2-3.2-11.1-3.2-17.6c0-6.1,1-12.9,2.9-20.2
					c3.2-12.6,8.9-24.1,17.2-34.6c10-12.8,20.7-19.1,31.9-19.1c9.8,0,16.7,5.4,20.8,16.2l-15.3,16.4c-1.7-2.5-4.1-3.7-7.3-3.7
					c-6.2,0-12.1,4.3-17.6,12.9c-4.1,6.5-7.2,13.7-9.2,21.6c-0.8,3.1-1.2,5.9-1.2,8.4c0,3.8,1,6.8,2.9,9.1c2.1,2.6,5,3.9,8.8,3.9
					c4.3,0,8.3-2,12-5.9c2.9-3.1,5.3-7.1,7.2-11.8c-6.8,1.4-13.1,2.8-18.9,4.3l4.4-20.2l36.5-7.8c0.2,6-1.1,12.8-3.9,20.5
					c-2.5,6.8-5.6,13-9.2,18.7C312.2,225.9,299.5,234.1,284.8,234.1z"/>
				<path id="XMLID_160_" class="st0" d="M313.1,126.9c9.8,0,16.7,5.4,20.8,16.2l-15.3,16.4c-1.7-2.5-4.1-3.7-7.3-3.7
					c-6.2,0-12.1,4.3-17.6,12.9c-4.1,6.5-7.2,13.7-9.2,21.6c-0.8,3.1-1.2,5.9-1.2,8.4c0,3.8,1,6.8,2.9,9.1c2.1,2.6,5,3.9,8.8,3.9
					c4.3,0,8.3-2,12-5.9c2.9-3.1,5.3-7.1,7.2-11.8c-6.8,1.4-13.1,2.8-18.9,4.3l4.4-20.2l36.5-7.8c0.2,6-1.1,12.8-3.9,20.5
					c-2.5,6.8-5.6,13-9.2,18.7c-10.7,16.5-23.5,24.8-38.1,24.8c-9.7,0-16.6-5.2-20.7-15.7c-2.1-5.2-3.2-11.1-3.2-17.6
					c0-6.1,1-12.9,2.9-20.2c3.2-12.6,8.9-24.1,17.2-34.6C291.1,133.2,301.8,126.9,313.1,126.9L313.1,126.9z M313.1,122.2
					c-12.7,0-24.7,7-35.6,20.9c-8.6,10.9-14.7,23.1-18,36.3c-2,7.7-3,14.9-3,21.4c0,7.1,1.2,13.6,3.5,19.3c6,15.4,16.9,18.6,25,18.6
					c16.3,0,30.4-9,42-26.9c3.8-6,7.1-12.6,9.7-19.6l0,0l0,0c2.9-8.2,4.3-15.7,4.1-22.2l-0.2-5.6l-5.4,1.2l-36.5,7.8l-2.7,0.6
					c0.5-1,1.1-1.9,1.7-2.8c4.6-7.2,9.2-10.8,13.7-10.8c2.1,0,2.9,0.8,3.4,1.7l3.2,4.9l4-4.3l15.3-16.4l2-2.1l-1-2.7
					C332.2,125.6,321.2,122.2,313.1,122.2L313.1,122.2z M289.1,204.2c-0.9-1.4-1.3-3.2-1.3-5.4c0-2.1,0.4-4.5,1.1-7.2l0,0l0,0
					c1.5-6,3.7-11.6,6.6-16.8L295,177l-4.4,20.2L289.1,204.2L289.1,204.2z M289.3,204.4l7-1.8c2.8-0.7,5.8-1.4,8.9-2.1
					c-0.5,0.7-1.1,1.4-1.7,2l0,0l0,0c-2.8,3-5.6,4.4-8.6,4.4c-3.1,0-4.4-1.2-5.2-2.2l0,0l0,0C289.5,204.7,289.4,204.6,289.3,204.4
					L289.3,204.4z"/>
			</g>
			<g id="XMLID_150_">
				<linearGradient id="XMLID_279_" gradientUnits="userSpaceOnUse" x1="327.5085" y1="178.0348" x2="389.8718" y2="178.0348">
					<stop  offset="0" style="stop-color:#27AAE1"/>
					<stop  offset="1" style="stop-color:#52E5EC"/>
				</linearGradient>
				<path id="XMLID_156_" class="st5" d="M345.5,208.4c3.2-0.5,6.1,0,8.5,1.4c2.9,1.5,4.4,3.8,4.4,6.9c0,4.2-2.2,8.1-6.7,11.6
					c-3.5,2.8-7.3,4.4-11.4,5c-3.3,0.5-6.1,0.1-8.5-1.1c-2.8-1.5-4.3-3.8-4.3-6.9c0-4.2,2.2-8.1,6.5-11.7
					C337.5,210.6,341.3,208.9,345.5,208.4z M361.1,122.7l28.8,4.8c-7.6,13.7-13.2,24.4-16.8,32.1c-4.9,10.6-9.2,22-12.9,34.3
					l-19.1-0.8L361.1,122.7z"/>
				<path id="XMLID_151_" class="st0" d="M361.1,122.7l28.8,4.8c-7.6,13.7-13.2,24.4-16.8,32.1c-4.9,10.6-9.2,22-12.9,34.3
					l-19.1-0.8L361.1,122.7L361.1,122.7z M347.9,208.2c2.3,0,4.3,0.5,6.2,1.5c2.9,1.5,4.4,3.8,4.4,6.9c0,4.2-2.2,8.1-6.7,11.6
					c-3.5,2.8-7.3,4.4-11.4,5c-0.9,0.1-1.8,0.2-2.6,0.2c-2.2,0-4.2-0.4-5.9-1.3c-2.8-1.5-4.3-3.8-4.3-6.9c0-4.2,2.2-8.1,6.5-11.7
					c3.5-2.8,7.3-4.5,11.6-5.1C346.3,208.2,347.1,208.2,347.9,208.2L347.9,208.2z M357.8,117.5l-1.1,4l-20.1,70.3l-1.6,5.7l5.9,0.3
					l19.1,0.8l3.6,0.2l1-3.4c3.7-12,8-23.4,12.7-33.7c3.5-7.6,9.1-18.3,16.6-31.8l3.2-5.7l-6.5-1.1l-28.8-4.8L357.8,117.5
					L357.8,117.5z M347.9,203.6L347.9,203.6c-1,0-2,0.1-3,0.2c-5.1,0.7-9.7,2.7-13.9,6.1l0,0l0,0c-5.4,4.5-8.1,9.6-8.1,15.3
					c0,4.8,2.4,8.7,6.8,11l0,0l0,0c2.4,1.2,5,1.8,8,1.8c1.1,0,2.2-0.1,3.3-0.2c4.9-0.7,9.5-2.6,13.7-5.9c5.7-4.4,8.5-9.5,8.5-15.2
					c0-4.8-2.4-8.7-6.9-11C353.7,204.3,350.9,203.6,347.9,203.6L347.9,203.6z"/>
			</g>
		</g>
		<path id="XMLID_72_" class="st0" d="M112.6,130.5L70.2,87.7c-3.2-3.2-0.3-8.6,4.1-7.8l0,0c1.2,0.2,2.2,0.9,2.9,1.8L112.6,130.5z"
			/>
		<path id="XMLID_71_" class="st0" d="M90.7,147.1l-78.8-21c-5.9-1.6-6.3-9.8-0.6-11.9l0,0c1.5-0.6,3.2-0.5,4.7,0.1L90.7,147.1z"/>
		<path id="XMLID_70_" class="st0" d="M262.9,98.3l37.4-47.2c2.8-3.5,8.5-1.4,8.2,3.1l0,0c-0.1,1.2-0.6,2.3-1.5,3.1L262.9,98.3z"/>
		<g id="XMLID_141_">
			
				<linearGradient id="XMLID_280_" gradientUnits="userSpaceOnUse" x1="240.6208" y1="350.5461" x2="322.7187" y2="350.5461" gradientTransform="matrix(0.3249 0.9458 -0.9458 0.3249 508.1277 -318.259)">
				<stop  offset="0" style="stop-color:#27AAE1"/>
				<stop  offset="1" style="stop-color:#52E5EC"/>
			</linearGradient>
			<path id="XMLID_69_" class="st6" d="M244.4,113.6l35.3-95.9c0.5-1.4,1.5-2.7,2.7-3.6l0,0c6.7-4.9,15.5,2.8,11.4,10.1L244.4,113.6
				z"/>
			<path id="XMLID_142_" class="st0" d="M286.9,12.6c5.4,0,10,5.9,6.8,11.6l-49.4,89.4l35.3-95.9c0.5-1.4,1.5-2.7,2.7-3.6l0,0
				C283.8,13.1,285.4,12.6,286.9,12.6L286.9,12.6z M286.9,7.9C286.9,7.9,286.9,7.9,286.9,7.9c-2.6,0-5.1,0.9-7.3,2.5
				c-2,1.5-3.5,3.4-4.3,5.7L240,112c-0.8,2.3,0.2,4.8,2.4,5.8c0.6,0.3,1.3,0.4,1.9,0.4c1.6,0,3.2-0.9,4.1-2.4l49.4-89.4
				c2.2-3.9,2.1-8.5-0.1-12.3C295.5,10.3,291.3,7.9,286.9,7.9L286.9,7.9z"/>
		</g>
		<path id="XMLID_66_" class="st0" d="M292.7,220.8l55.9,65.5c4.2,4.9-0.4,12.3-6.7,10.7l0,0c-1.7-0.4-3.1-1.5-4-2.9L292.7,220.8z"
			/>
		<g id="XMLID_135_">
			
				<linearGradient id="XMLID_281_" gradientUnits="userSpaceOnUse" x1="1053.5175" y1="1128.4485" x2="1102.1333" y2="1128.4485" gradientTransform="matrix(-0.9917 0.1285 -0.1285 -0.9917 1571.2516 1250.9647)">
				<stop  offset="0" style="stop-color:#27AAE1"/>
				<stop  offset="1" style="stop-color:#52E5EC"/>
			</linearGradient>
			<path id="XMLID_65_" class="st7" d="M330.3,250.5l51.4,31.8c0.8,0.5,1.4,1.2,1.8,2l0,0c2.1,4.5-3.4,8.7-7.2,5.4L330.3,250.5z"/>
			<path id="XMLID_136_" class="st0" d="M330.3,250.5l51.4,31.8c0.8,0.5,1.4,1.2,1.8,2l0,0c1.6,3.4-1.2,6.6-4.2,6.6
				c-1,0-2-0.3-3-1.1L330.3,250.5L330.3,250.5z M330.3,245.9c-1.4,0-2.8,0.7-3.7,1.9c-1.4,2-1.1,4.7,0.7,6.3l46,39.3
				c1.7,1.5,3.8,2.3,6,2.3c3.1,0,6.2-1.7,7.9-4.3c1.7-2.7,1.9-5.9,0.6-8.8c-0.8-1.7-2-3-3.5-4l-51.4-31.8
				C332,246.1,331.1,245.9,330.3,245.9L330.3,245.9z"/>
		</g>
		<path id="XMLID_62_" class="st8" d="M124.3,146.9c7.3-9.1,22.6-24.4,39.5-18.9c0.4,0.1,0.3,0.7-0.1,0.6
			c-6.1-0.4-21.8,0.5-38.9,18.7C124.5,147.7,124,147.3,124.3,146.9z"/>
		<g id="XMLID_129_">
			
				<linearGradient id="XMLID_282_" gradientUnits="userSpaceOnUse" x1="69.0802" y1="139.1177" x2="151.1817" y2="139.1177" gradientTransform="matrix(0.9778 -0.2097 0.2097 0.9778 -59.6997 8.0249)">
				<stop  offset="0" style="stop-color:#27AAE1"/>
				<stop  offset="1" style="stop-color:#52E5EC"/>
			</linearGradient>
			<path id="XMLID_61_" class="st9" d="M125.5,150.7l-91-46.5c-1.4-0.7-2.5-1.8-3.3-3.1l0,0c-4.1-7.3,4.6-15.1,11.4-10.2
				L125.5,150.7z"/>
			<path id="XMLID_130_" class="st0" d="M38.1,89.4c1.5,0,3.1,0.5,4.6,1.5l82.8,59.7l-91-46.5c-1.4-0.7-2.5-1.8-3.3-3.1h0
				C28.1,95.4,32.7,89.4,38.1,89.4L38.1,89.4z M38.1,84.8L38.1,84.8c-4.4,0-8.6,2.4-10.8,6.3c-2.2,3.8-2.2,8.4,0,12.3
				c1.2,2.1,3,3.9,5.2,5l91,46.5c0.7,0.3,1.4,0.5,2.1,0.5c1.6,0,3.1-0.8,4-2.2c1.3-2.1,0.7-4.8-1.2-6.2L45.4,87.2
				C43.2,85.6,40.7,84.8,38.1,84.8L38.1,84.8z"/>
		</g>
		<path id="XMLID_58_" class="st8" d="M353.7,157.3l9.5-32l14.5,2.6c0.6,0.1,0.5,0.9-0.1,0.9h-12.3l-10.7,28.8
			C354.4,158.2,353.6,157.9,353.7,157.3z"/>
		<path id="XMLID_57_" class="st8" d="M329.9,220.7c1.6-3.4,5.9-10.1,15.9-11.1c0.4,0,0.5,0.5,0.2,0.7c-3.5,1.3-9.9,4.3-15.5,10.8
			C330.2,221.3,329.7,221,329.9,220.7z"/>
		<path id="XMLID_56_" class="st8" d="M281.4,149.1c7.3-9.1,22.6-24.4,39.5-18.9c0.4,0.1,0.3,0.7-0.1,0.6
			c-6.1-0.4-21.8,0.5-38.9,18.7C281.6,149.8,281.1,149.4,281.4,149.1z"/>
		<path id="XMLID_55_" class="st8" d="M298.9,191.4l2.2-11.5l27.8-6.5c0.3-0.1,0.4,0.3,0.1,0.4L303,182l-3.7,9.6
			C299.2,191.7,298.9,191.6,298.9,191.4z"/>
		<path id="XMLID_54_" class="st8" d="M189.6,164l6.1-25.7l16.5-2.9c0.5-0.1,0.7,0.6,0.2,0.8l-14.6,5.4l-7.4,22.6
			C190.2,164.7,189.5,164.5,189.6,164z"/>
		<path id="XMLID_53_" class="st8" d="M229,161.5l6.1-25.7l16.5-2.9c0.5-0.1,0.7,0.6,0.2,0.8l-14.6,5.4l-7.4,22.6
			C229.6,162.2,228.9,162,229,161.5z"/>
	</g>
</g>
</svg>
