<?xml version="1.0" encoding="utf-8"?>
<!-- Generator: Adobe Illustrator 19.0.0, SVG Export Plug-In . SVG Version: 6.00 Build 0)  -->
<svg version="1.1" id="Capa_1" xmlns="http://www.w3.org/2000/svg" xmlns:xlink="http://www.w3.org/1999/xlink" x="0px" y="0px"
	 viewBox="0 0 414.5 285.5" style="enable-background:new 0 0 414.5 285.5;" xml:space="preserve">
<style type="text/css">
	.st0{fill:#231F20;}
	.st1{fill:url(#XMLID_242_);}
	.st2{fill:url(#XMLID_243_);}
	.st3{fill:url(#XMLID_244_);}
	.st4{fill:url(#XMLID_245_);}
	.st5{fill:url(#XMLID_246_);}
	.st6{fill:#FFFFFF;}
	.st7{opacity:0.47;fill:#FFFFFF;}
</style>
<g id="XMLID_137_">
	<g id="XMLID_236_">
		<circle id="XMLID_135_" class="st0" cx="262.3" cy="227.7" r="6"/>
		<circle id="XMLID_134_" class="st0" cx="273.6" cy="238.9" r="5.7"/>
		<circle id="XMLID_133_" class="st0" cx="284.9" cy="250.2" r="4.6"/>
		<circle id="XMLID_132_" class="st0" cx="295.3" cy="260.6" r="3.4"/>
		<circle id="XMLID_131_" class="st0" cx="250.2" cy="239.8" r="6"/>
		<circle id="XMLID_130_" class="st0" cx="261.5" cy="251.1" r="5.7"/>
		<circle id="XMLID_129_" class="st0" cx="272.8" cy="262.3" r="4.6"/>
		<circle id="XMLID_128_" class="st0" cx="237.7" cy="252.3" r="6"/>
		<circle id="XMLID_127_" class="st0" cx="249" cy="263.5" r="5.7"/>
		<circle id="XMLID_126_" class="st0" cx="299.4" cy="191.4" r="6"/>
		<circle id="XMLID_125_" class="st0" cx="310.7" cy="202.6" r="5.7"/>
		<circle id="XMLID_124_" class="st0" cx="321.9" cy="213.9" r="4.6"/>
		<circle id="XMLID_123_" class="st0" cx="312.4" cy="178.3" r="6"/>
		<circle id="XMLID_122_" class="st0" cx="323.7" cy="189.6" r="5.7"/>
		<circle id="XMLID_121_" class="st0" cx="287.3" cy="203.5" r="6"/>
		<circle id="XMLID_120_" class="st0" cx="298.5" cy="214.7" r="5.7"/>
		<circle id="XMLID_119_" class="st0" cx="309.8" cy="226" r="4.6"/>
		<circle id="XMLID_118_" class="st0" cx="320.2" cy="236.4" r="3.4"/>
		<circle id="XMLID_117_" class="st0" cx="274.8" cy="215.9" r="6"/>
		<circle id="XMLID_116_" class="st0" cx="286.1" cy="227.2" r="5.7"/>
		<circle id="XMLID_115_" class="st0" cx="297.3" cy="238.5" r="4.6"/>
		<circle id="XMLID_114_" class="st0" cx="307.7" cy="248.9" r="3.4"/>
		<circle id="XMLID_113_" class="st0" cx="317.3" cy="258.4" r="2.3"/>
	</g>
	<g id="XMLID_212_">
		<circle id="XMLID_112_" class="st0" cx="156.1" cy="68.2" r="6"/>
		<circle id="XMLID_111_" class="st0" cx="144.8" cy="56.9" r="5.7"/>
		<circle id="XMLID_110_" class="st0" cx="133.6" cy="45.6" r="4.6"/>
		<circle id="XMLID_109_" class="st0" cx="123.2" cy="35.2" r="3.4"/>
		<circle id="XMLID_108_" class="st0" cx="168.2" cy="56.1" r="6"/>
		<circle id="XMLID_107_" class="st0" cx="156.9" cy="44.8" r="5.7"/>
		<circle id="XMLID_106_" class="st0" cx="145.7" cy="33.5" r="4.6"/>
		<circle id="XMLID_105_" class="st0" cx="180.7" cy="43.6" r="6"/>
		<circle id="XMLID_104_" class="st0" cx="169.4" cy="32.3" r="5.7"/>
		<circle id="XMLID_103_" class="st0" cx="119" cy="104.5" r="6"/>
		<circle id="XMLID_102_" class="st0" cx="107.8" cy="93.2" r="5.7"/>
		<circle id="XMLID_101_" class="st0" cx="96.5" cy="82" r="4.6"/>
		<circle id="XMLID_100_" class="st0" cx="106" cy="117.5" r="6"/>
		<circle id="XMLID_99_" class="st0" cx="94.7" cy="106.3" r="5.7"/>
		<circle id="XMLID_98_" class="st0" cx="131.1" cy="92.4" r="6"/>
		<circle id="XMLID_97_" class="st0" cx="119.9" cy="81.1" r="5.7"/>
		<circle id="XMLID_96_" class="st0" cx="108.6" cy="69.9" r="4.6"/>
		<circle id="XMLID_95_" class="st0" cx="98.2" cy="59.5" r="3.4"/>
		<circle id="XMLID_94_" class="st0" cx="143.6" cy="79.9" r="6"/>
		<circle id="XMLID_93_" class="st0" cx="132.3" cy="68.6" r="5.7"/>
		<circle id="XMLID_92_" class="st0" cx="121.1" cy="57.4" r="4.6"/>
		<circle id="XMLID_91_" class="st0" cx="110.7" cy="47" r="3.4"/>
		<circle id="XMLID_90_" class="st0" cx="101.2" cy="37.5" r="2.3"/>
	</g>
	<path id="XMLID_89_" class="st0" d="M33.4,107.8c0,0,89.1,15.5,98-8c6.3-15.4-0.2-28.8-0.2-28.8s30.1,26.8,44,16.2
		c13.9-10.6,21.6-67.3,21.6-67.3s7.2,63.5,22.4,66.5c16.5,3.3,57.2-57.6,57.2-57.6s-30.8,74.1,7.9,67.4c19.9-3.4,26.7-7.2,26.7-7.2
		s-13.2,22.4-3.9,41.3c9.7,19.7,100.7,25.5,100.7,25.5s-75.4,1.7-82.1,21.4c-6.6,19.2,11.7,36.2,11.7,36.2s-33.6-21.7-46.1-9.8
		c-12.6,11.9,18.8,59.2,18.8,59.2s-39.9-42.7-55.8-35.5c-15.9,7.3-21.4,50.8-21.4,50.8s-7-41.3-24.7-42.7
		c-17.7-1.4-36.2,33.1-36.2,33.1s-4.3-30-21.4-39c-17.4-9.2-58.6,5.8-85.8,18.3c0,0,51.4-34.7,43.4-59.6
		c-5.6-17.4-22.3-17.6-22.3-17.6s14.4-11.3,15-26.1C101.3,129.8,33.4,107.8,33.4,107.8z"/>
	<g id="XMLID_206_">
		<linearGradient id="XMLID_242_" gradientUnits="userSpaceOnUse" x1="217.0547" y1="260.0094" x2="203.4921" y2="56.5713">
			<stop  offset="0" style="stop-color:#27AAE1"/>
			<stop  offset="1" style="stop-color:#52E5EC"/>
		</linearGradient>
		<path id="XMLID_88_" class="st1" d="M20.5,94.9c0,0,89.1,15.5,98-8c6.3-15.4-0.2-28.8-0.2-28.8s30.1,26.8,44,16.2
			c13.9-10.6,21.6-67.3,21.6-67.3s7.2,63.5,22.4,66.5c16.5,3.3,57.2-57.6,57.2-57.6s-30.8,74.1,7.9,67.4c19.9-3.4,26.7-7.2,26.7-7.2
			s-13.2,22.4-3.9,41.3c9.7,19.7,100.7,25.5,100.7,25.5s-75.4,1.7-82.1,21.4c-6.6,19.2,11.7,36.2,11.7,36.2s-33.6-21.7-46.1-9.8
			C265.7,202.7,297,250,297,250s-39.9-42.7-55.8-35.5c-15.9,7.3-21.4,50.8-21.4,50.8s-7-41.3-24.7-42.7
			c-17.7-1.4-36.2,33.1-36.2,33.1s-4.3-30-21.4-39c-17.4-9.2-58.6,5.8-85.8,18.3c0,0,51.4-34.7,43.4-59.6
			c-5.6-17.4-22.3-17.6-22.3-17.6s14.4-11.3,15-26.1C88.4,116.9,20.5,94.9,20.5,94.9z"/>
		<path id="XMLID_207_" class="st0" d="M183.6,32.3c0.5,2.5,1,5.1,1.6,7.7c7.2,31.5,14.9,36.6,20.2,37.6c0.7,0.1,1.4,0.2,2.2,0.2
			c5.1,0,11.2-3.3,18.8-10.1c5.5-4.9,11.9-11.8,18.8-20.3c2-2.5,4-4.9,5.8-7.3c-4.8,19.1-4.6,32.7,0.6,40.4
			c2.3,3.4,6.7,7.5,15.1,7.5c1.7,0,3.4-0.2,5.3-0.5c7.8-1.3,13.7-2.7,18-4c-3.2,9-6,22.9,0.3,35.8c2.8,5.6,10,10.3,22.3,14.4
			c9,3,20.7,5.7,34.8,8c1.7,0.3,3.4,0.5,5.1,0.8c-26.2,4.2-40.6,10.9-43.8,20.4c-3.3,9.6-1.3,18.6,2.1,25.6c-6.9-3-14.9-5.6-22-5.6
			c-5.6,0-10.1,1.6-13.4,4.7c-6.8,6.4-5.5,19.2,3.8,38.9c0.2,0.4,0.3,0.7,0.5,1.1c-6-5-11.5-9.1-16.5-12c-7-4.2-12.8-6.3-17.7-6.3
			c-2.2,0-4.2,0.4-5.9,1.2c-7.8,3.6-14.2,13.9-19,30.8c-0.5,1.6-0.9,3.2-1.3,4.7c-0.4-1.1-0.7-2.1-1.2-3.2
			c-5.9-15.6-13.5-23.9-22.6-24.6c-0.4,0-0.9-0.1-1.4-0.1c-8.6,0-17.8,6.1-27.4,18.2c-2.2,2.8-4.2,5.6-5.9,8.1
			c-3-10.3-9.2-25.3-21.3-31.7c-4.2-2.2-9.7-3.3-16.2-3.3c-13.8,0-31.1,4.8-46.4,10.4c0.9-0.8,1.7-1.7,2.6-2.5
			C96.4,200.6,103,186,99.1,174c-3.4-10.5-10.3-15.5-15.5-17.9c-0.7-0.3-1.5-0.6-2.2-0.9c4.6-5.2,10.2-13.5,10.6-23.4
			c0.2-5.1-3.7-10.1-12.2-15.7c-5.8-3.8-13.8-7.9-23.8-12.3c-0.4-0.2-0.9-0.4-1.3-0.6c6.8,0.5,14,0.9,21.1,0.9
			c27.4,0,42.6-5.1,46.7-15.7c3-7.2,3.4-14,2.9-19.5c7.9,5.6,19.3,12.1,29,12.1c4.1,0,7.7-1.1,10.6-3.3c6.7-5.1,12.4-18.2,17.6-40
			C182.8,35.8,183.2,34,183.6,32.3L183.6,32.3z M183.9,6.9c0,0-7.7,56.7-21.6,67.3c-2.3,1.7-5,2.5-8,2.5c-15,0-36-18.7-36-18.7
			s6.6,13.5,0.2,28.8c-3.8,10.2-22.6,13-42.7,13c-26.5,0-55.3-5-55.3-5s67.9,22,67.3,36.8c-0.6,14.8-15,26.1-15,26.1
			s16.7,0.2,22.3,17.6c8,24.9-43.4,59.6-43.4,59.6c21.3-9.8,51.2-21.1,71.5-21.1c5.6,0,10.5,0.9,14.2,2.9c17.1,9.1,21.4,39,21.4,39
			s17.7-33.2,35.1-33.2c0.3,0,0.7,0,1,0c17.7,1.4,24.7,42.7,24.7,42.7s5.5-43.5,21.4-50.8c1.2-0.6,2.6-0.8,4.2-0.8
			c17.8,0,51.6,36.3,51.6,36.3s-31.4-47.2-18.8-59.2c2.7-2.6,6.4-3.6,10.5-3.6c15,0,35.6,13.3,35.6,13.3s-18.2-17-11.7-36.2
			c6.7-19.7,82.1-21.4,82.1-21.4s-91-5.8-100.7-25.5c-9.3-18.9,3.9-41.3,3.9-41.3s-6.7,3.8-26.7,7.2c-1.7,0.3-3.2,0.4-4.6,0.4
			c-31.5,0-3.3-67.9-3.3-67.9s-38.6,57.7-55.9,57.7c-0.5,0-0.9,0-1.3-0.1C191.1,70.4,183.9,6.9,183.9,6.9L183.9,6.9z"/>
	</g>
	<g id="XMLID_175_">
		<g id="XMLID_200_">
			<linearGradient id="XMLID_243_" gradientUnits="userSpaceOnUse" x1="88.6016" y1="141.2255" x2="175.9378" y2="141.2255">
				<stop  offset="0" style="stop-color:#BE093D"/>
				<stop  offset="1" style="stop-color:#FF0049"/>
			</linearGradient>
			<path id="XMLID_204_" class="st2" d="M175.9,96.7c-11.3,30-19.8,59.3-25.3,87.8l-28.2,4.8l4.7-46.2L115.4,186l-26.8,4.9
				c4-31.5,6-60.5,5.9-86.8l23.9-4.5l-4.9,55.1l16.4-61.2l12.9-1.9l-8.8,77.6l17.5-68.7L175.9,96.7z"/>
			<path id="XMLID_201_" class="st0" d="M142.7,91.6l-8.8,77.6l17.5-68.7l24.4-3.8c-11.3,30-19.8,59.3-25.3,87.8l-28.2,4.8l4.7-46.2
				L115.4,186l-26.8,4.9c4-31.5,6-60.5,5.9-86.8l23.9-4.5l-4.9,55.1l16.4-61.2L142.7,91.6L142.7,91.6z M147.6,86.6l-5.4,0.8
				l-12.9,1.9l-2.8,0.4l-0.7,2.7l-3.7,13.8l0.6-6.3l0.5-5.6l-5.5,1l-23.9,4.5l-3.5,0.7l0,3.5c0.1,26-1.9,55.1-5.9,86.3l-0.7,5.7
				l5.7-1l26.8-4.9l2-0.4l-0.5,4.7l5.5-0.9l28.2-4.8l2.9-0.5l0.6-2.9c5.5-28.2,13.9-57.5,25.1-87.2l2.6-6.8l-7.2,1.1l-24.4,3.8
				l-2.8,0.4l-0.7,2.7l-2.3,8.9l1.8-16.4L147.6,86.6L147.6,86.6z"/>
		</g>
		<g id="XMLID_191_">
			<linearGradient id="XMLID_244_" gradientUnits="userSpaceOnUse" x1="160.0812" y1="142.6745" x2="230.3027" y2="142.6745">
				<stop  offset="0" style="stop-color:#BE093D"/>
				<stop  offset="1" style="stop-color:#FF0049"/>
			</linearGradient>
			<path id="XMLID_197_" class="st3" d="M208.5,92c8.9,0,15.2,5,18.9,14.8c1.9,5.1,2.9,10.7,2.9,16.9c0,5.9-0.9,12.3-2.6,19.1
				c-3.1,11.7-8.5,22.6-16.1,32.5c-9.3,12.1-19.2,18.1-29.6,18.1c-9,0-15.4-4.9-19.1-14.9c-1.8-4.9-2.8-10.3-2.8-16.4
				c0-6,0.9-12.4,2.8-19.4c3.1-11.8,8.4-22.7,16-32.6C188.1,98,198,92,208.5,92z M204,123.2c-4.6,0-9.3,3.8-14.1,11.3
				c-3.9,6-6.5,11.8-8.1,17.5c-0.8,3-1.1,5.7-1.1,8.2c0,3.4,0.8,6.3,2.5,8.4c1.9,2.4,4.6,3.6,8.1,3.6c4.7,0,8.9-2.5,12.7-7.4
				c3-3.9,5.2-8.6,6.5-14c1.6-6.3,1.9-12.5,1-18.6C210.5,126.2,208,123.2,204,123.2z"/>
			<path id="XMLID_192_" class="st0" d="M208.5,92c8.9,0,15.2,5,18.9,14.8c1.9,5.1,2.9,10.7,2.9,16.9c0,5.9-0.9,12.3-2.6,19.1
				c-3.1,11.7-8.5,22.6-16.1,32.5c-9.3,12.1-19.2,18.1-29.6,18.1c-9,0-15.4-4.9-19.1-14.9c-1.8-4.9-2.8-10.3-2.8-16.4
				c0-6,0.9-12.4,2.8-19.4c3.1-11.8,8.4-22.7,16-32.6C188.1,98,198,92,208.5,92L208.5,92z M191.3,172.2c4.7,0,8.9-2.5,12.7-7.4
				c3-3.9,5.2-8.6,6.5-14c1.6-6.3,1.9-12.5,1-18.6c-1-6-3.5-9.1-7.6-9.1c-4.6,0-9.3,3.8-14.1,11.3c-3.9,6-6.5,11.8-8.1,17.5
				c-0.8,3-1.1,5.7-1.1,8.2c0,3.4,0.8,6.3,2.5,8.4C185.2,171,187.8,172.2,191.3,172.2L191.3,172.2z M208.5,87.7
				c-11.8,0-22.9,6.7-33.1,19.9c-7.9,10.3-13.5,21.8-16.7,34.1c-1.9,7.3-2.9,14.2-2.9,20.5c0,6.5,1,12.5,3,17.9
				c5.5,14.5,15.6,17.6,23.1,17.6c11.7,0,22.8-6.7,32.9-19.8c7.9-10.3,13.6-21.7,16.8-34l0,0l0,0c1.8-7.2,2.8-14,2.8-20.2
				c0-6.6-1.1-12.8-3.2-18.4C225.9,90.8,216,87.7,208.5,87.7L208.5,87.7z M186,153c1.4-5.2,3.9-10.7,7.5-16.2l0,0l0,0
				c3.8-6,7.6-9.4,10.5-9.4c0.7,0,2.4,0,3.4,5.5c0.8,5.5,0.5,11.2-0.9,16.9c-1.2,4.8-3.1,9-5.8,12.4c-3,3.9-6,5.8-9.3,5.8
				c-2.1,0-3.6-0.6-4.7-2c-1.1-1.4-1.6-3.3-1.6-5.8C185,158.1,185.3,155.7,186,153L186,153z"/>
		</g>
		<g id="XMLID_185_">
			<linearGradient id="XMLID_245_" gradientUnits="userSpaceOnUse" x1="225.1432" y1="141.2255" x2="312.4796" y2="141.2255">
				<stop  offset="0" style="stop-color:#BE093D"/>
				<stop  offset="1" style="stop-color:#FF0049"/>
			</linearGradient>
			<path id="XMLID_189_" class="st4" d="M312.5,96.7c-11.3,30-19.8,59.3-25.3,87.8l-28.2,4.8l4.7-46.2L252,186l-26.8,4.9
				c4-31.5,6-60.5,5.9-86.8l23.9-4.5l-4.9,55.1l16.4-61.2l12.9-1.9l-8.8,77.6l17.5-68.7L312.5,96.7z"/>
			<path id="XMLID_186_" class="st0" d="M279.3,91.6l-8.8,77.6l17.5-68.7l24.4-3.8c-11.3,30-19.8,59.3-25.3,87.8l-28.2,4.8l4.7-46.2
				L252,186l-26.8,4.9c4-31.5,6-60.5,5.9-86.8l23.9-4.5l-4.9,55.1l16.4-61.2L279.3,91.6L279.3,91.6z M284.1,86.6l-5.4,0.8l-12.9,1.9
				l-2.8,0.4l-0.7,2.7l-3.7,13.8l0.6-6.3l0.5-5.6l-5.5,1l-23.9,4.5l-3.5,0.7l0,3.5c0.1,26-1.9,55.1-5.9,86.3l-0.7,5.7l5.7-1
				l26.8-4.9l2-0.4l-0.5,4.7l5.5-0.9l28.2-4.8l2.9-0.5l0.6-2.9c5.5-28.2,13.9-57.5,25.1-87.2l2.6-6.8l-7.2,1.1l-24.4,3.8l-2.8,0.4
				l-0.7,2.7l-2.3,8.9l1.8-16.4L284.1,86.6L284.1,86.6z"/>
		</g>
		<g id="XMLID_176_">
			<linearGradient id="XMLID_246_" gradientUnits="userSpaceOnUse" x1="295.8679" y1="142.1325" x2="352.8757" y2="142.1325">
				<stop  offset="0" style="stop-color:#BE093D"/>
				<stop  offset="1" style="stop-color:#FF0049"/>
			</linearGradient>
			<path id="XMLID_182_" class="st5" d="M312.4,169.9c2.9-0.4,5.5,0,7.8,1.3c2.7,1.3,4,3.4,4,6.3c0,3.9-2.1,7.4-6.2,10.6
				c-3.2,2.5-6.7,4-10.4,4.5c-3,0.4-5.6,0.1-7.8-1c-2.6-1.3-3.9-3.4-3.9-6.3c0-3.9,2-7.4,5.9-10.7
				C305,171.9,308.5,170.4,312.4,169.9z M326.6,91.6l26.3,4.4c-7,12.5-12.1,22.3-15.4,29.3c-4.4,9.6-8.4,20.1-11.8,31.3l-17.5-0.8
				L326.6,91.6z"/>
			<path id="XMLID_177_" class="st0" d="M326.6,91.6l26.3,4.4c-7,12.5-12.1,22.3-15.4,29.3c-4.4,9.6-8.4,20.1-11.8,31.3l-17.5-0.8
				L326.6,91.6L326.6,91.6z M314.5,169.7c2.1,0,4,0.5,5.7,1.4c2.7,1.3,4,3.4,4,6.3c0,3.9-2.1,7.4-6.2,10.6c-3.2,2.5-6.7,4-10.4,4.5
				c-0.8,0.1-1.6,0.2-2.4,0.2c-2,0-3.8-0.4-5.4-1.2c-2.6-1.3-3.9-3.4-3.9-6.3c0-3.9,2-7.4,5.9-10.7c3.2-2.6,6.7-4.2,10.6-4.7
				C313.1,169.8,313.8,169.7,314.5,169.7L314.5,169.7z M323.5,86.8l-1,3.6l-18.4,64.3l-1.5,5.2l5.4,0.2l17.5,0.8l3.3,0.1l1-3.1
				c3.4-11,7.3-21.4,11.6-30.8c3.2-6.9,8.3-16.7,15.2-29l2.9-5.2l-5.9-1l-26.3-4.4L323.5,86.8L323.5,86.8z M314.5,165.5L314.5,165.5
				c-0.9,0-1.8,0.1-2.7,0.2c-4.6,0.6-8.9,2.5-12.7,5.6l0,0l0,0c-4.9,4.1-7.4,8.8-7.4,14c0,4.4,2.2,8,6.2,10.1l0,0l0,0
				c2.2,1.1,4.6,1.6,7.3,1.6c1,0,2-0.1,3-0.2c4.5-0.6,8.7-2.4,12.5-5.4c5.2-4,7.8-8.7,7.8-13.9c0-4.4-2.2-8-6.3-10
				C319.8,166.1,317.3,165.5,314.5,165.5L314.5,165.5z"/>
		</g>
	</g>
	<g id="XMLID_167_">
		<g id="XMLID_170_">
			<path id="XMLID_67_" class="st6" d="M373.5,239.3c-1.8-4.5-6.9-6.6-11.4-4.8c-2.3,0.9-4,2.7-4.8,4.8c-2.1-0.9-4.6-1-7-0.1
				c-0.5,0.2-1,0.5-1.5,0.8l-61-37.3l59.9,53c-0.1,0.4-0.3,0.7-0.4,1.1c-1.1-0.1-2.3,0.1-3.4,0.5c-3.8,1.5-5.6,5.8-4.1,9.6
				c1.5,3.8,5.8,5.6,9.6,4.1c1-0.4,1.8-1,2.5-1.7c3.6,2.2,8.6,2.7,13.3,0.8c7.2-2.9,11.1-10.3,8.5-16.6c-0.7-1.6-1.7-3-2.9-4.1
				C373.7,247.1,374.9,243,373.5,239.3z"/>
			<path id="XMLID_171_" class="st0" d="M376.4,249.5c2.1-3.5,2.6-7.8,1-11.7c-1.2-2.9-3.4-5.3-6.1-6.7c-2.8-1.4-5.9-1.8-8.9-1.1
				c-0.6,0.2-1.2,0.3-1.8,0.6c-2.1,0.8-3.9,2.2-5.2,3.9c-1.5-0.2-3.1-0.1-4.7,0.3c-0.5,0.1-1.1,0.3-1.6,0.5l-66.6-36.5l57.7,56
				c-1.8,1.2-3.2,2.9-4,5c-1.2,2.8-1.2,6-0.1,8.9c2.1,5.3,7.9,8.2,13.4,6.9c0.6-0.1,1.1-0.3,1.6-0.5c0.5-0.2,1-0.4,1.4-0.7
				c3.5,1.4,7.5,1.7,11.5,0.7c1-0.2,2-0.6,2.9-0.9c9.4-3.8,14.3-13.7,10.9-22.1C377.3,251.1,376.9,250.2,376.4,249.5z M370.8,249.5
				c1.3,1.1,2.3,2.5,2.9,4.1c2.5,6.2-1.3,13.6-8.5,16.6c-0.8,0.3-1.5,0.6-2.3,0.7c-4,1-7.9,0.3-10.9-1.6c-0.7,0.7-1.5,1.3-2.5,1.7
				c-0.3,0.1-0.7,0.3-1,0.3c-3.5,0.8-7.1-1-8.5-4.4c-1.5-3.8,0.3-8,4.1-9.6c0.3-0.1,0.7-0.2,1-0.3c0.8-0.2,1.6-0.2,2.3-0.2
				c0.1-0.4,0.2-0.7,0.4-1.1l-54.9-49.3l56.1,33.6c0.5-0.3,1-0.6,1.5-0.8c0.4-0.2,0.9-0.3,1.3-0.4c1.9-0.5,3.9-0.3,5.7,0.5
				c0.9-2.1,2.5-3.9,4.8-4.8c0.4-0.2,0.8-0.3,1.2-0.4c4.1-1,8.5,1.2,10.2,5.2C374.9,243,373.7,247.1,370.8,249.5z"/>
		</g>
		<path id="XMLID_64_" class="st0" d="M310.7,220.8l36.6,31.7c1,0.8,2.5,0.5,2.9-0.7l0,0c0.3-0.8,0.1-1.7-0.6-2.2L310.7,220.8z"/>
		<path id="XMLID_63_" class="st0" d="M324.6,228.4l30.9,22.7c0.9,0.7,2.3,0.3,2.7-0.8l0,0c0.3-0.8,0-1.6-0.7-2.1L324.6,228.4z"/>
	</g>
	<g id="XMLID_162_">
		<path id="XMLID_62_" class="st6" d="M77,243.6l40.8-40.4l-50.3,37.2c-1-1.4-2.6-2.4-4.5-2.4c-2.9,0-5.3,2.4-5.3,5.3
			c0,1.5,0.6,2.8,1.5,3.7c-1.6,1.1-2.7,3-2.7,5.1c0,3.5,2.8,6.3,6.3,6.3c0.7,0,1.4-0.1,2.1-0.4c1.6,1.3,3.6,2,5.9,2
			c5.2,0,9.4-4.2,9.4-9.4C80.3,247.9,79,245.3,77,243.6z"/>
		<path id="XMLID_163_" class="st0" d="M118.4,202.7l-50.6,32.2c-1.4-0.8-3-1.2-4.7-1.2c-5.3,0-9.6,4.3-9.6,9.6
			c0,1.1,0.2,2.2,0.5,3.2c-1.1,1.7-1.7,3.6-1.7,5.7c0,5.8,4.7,10.5,10.5,10.5c0.4,0,0.8,0,1.2-0.1c2,1.1,4.4,1.8,6.7,1.8
			c7.5,0,13.6-6.1,13.6-13.6c0-2.4-0.6-4.8-1.8-6.8L118.4,202.7z M80.3,250.7c0,5.2-4.2,9.4-9.4,9.4c-2.2,0-4.2-0.8-5.9-2
			c-0.6,0.2-1.3,0.4-2.1,0.4c-3.5,0-6.3-2.8-6.3-6.3c0-2.1,1.1-4,2.7-5.1c-0.9-1-1.5-2.3-1.5-3.7c0-2.9,2.4-5.3,5.3-5.3
			c1.9,0,3.5,1,4.5,2.4l39.8-28.1L77,243.6C79,245.3,80.3,247.9,80.3,250.7z"/>
	</g>
	<path id="XMLID_59_" class="st0" d="M96.2,221.7l-28.8,20.3c-0.4,0.3-0.5,0.8-0.2,1.2l0,0c0.3,0.4,0.9,0.5,1.3,0.2L96.2,221.7z"/>
	<path id="XMLID_58_" class="st0" d="M80,237.1l-15.6,13c-0.5,0.4-0.5,1.2-0.1,1.7l0,0c0.4,0.4,1.2,0.4,1.6,0L80,237.1z"/>
	<path id="XMLID_57_" class="st6" d="M361.9,28.4c0,0-0.1-0.1-0.1-0.1c0.7-1.6,0.7-3.4,0.2-5.1c0.6-1.5,0.4-3.3-0.7-4.6
		c-1.5-1.8-4.1-2.2-6-0.9c-1-0.1-1.9,0-2.8,0.3c-0.1-0.2-0.3-0.4-0.5-0.6c-2.6-3.1-7-3.7-9.9-1.3c-2.9,2.4-3.2,6.8-0.6,10
		c0.9,1.1,2,1.8,3.1,2.3l-28,40.3l36.6-36.6c0.1,0,0.1,0,0.2,0.1c0.1,0.9,0.4,1.8,1.1,2.5c1.7,2,4.7,2.3,6.7,0.7
		C363.3,33.5,363.6,30.5,361.9,28.4z"/>
	<path id="XMLID_56_" class="st0" d="M325.6,58.2l23.7-29.4c0.5-0.6,1.5-0.7,2-0.1l0,0c0.6,0.5,0.6,1.5,0,2L325.6,58.2z"/>
	<path id="XMLID_155_" class="st0" d="M367.2,32.3c0.2-1.6-0.1-3.3-0.8-4.7c0.3-1.4,0.3-2.9,0-4.3c0.5-2.6-0.1-5.3-1.8-7.4
		c-1.1-1.3-2.5-2.3-4.2-2.8c-2-0.6-4.1-0.5-6,0.3c-0.1,0-0.2,0-0.2,0c-1.3-1.2-2.8-2.1-4.5-2.6c-3.6-1.1-7.4-0.4-10.2,1.9
		c-2.3,1.9-3.7,4.6-3.9,7.7c-0.2,3,0.8,5.9,2.7,8.2c0.2,0.2,0.4,0.4,0.5,0.6L300,88l52.6-49.4c0.9,0.7,1.8,1.2,2.9,1.5
		c2.9,0.9,6.1,0.3,8.4-1.6C365.8,36.9,366.9,34.7,367.2,32.3z M361.2,35.2c-1.3,1.1-3,1.3-4.5,0.9c-0.9-0.3-1.7-0.8-2.3-1.5
		c-0.6-0.8-0.9-2.1-1-3l-36.9,37L343,30.6c1.3,0,3-0.3,4.9-1.2c0,0-1.6-0.3-3.3-1.2l0,0c0,0-0.1,0-0.1-0.1c-1.1-0.5-2.2-1.3-3-2.2
		c-2.6-3.1-2.3-7.6,0.6-10c1.8-1.5,4.1-1.8,6.2-1.1c1.4,0.4,2.6,1.3,3.6,2.5c0.2,0.2,0.3,0.4,0.5,0.6c0.9-0.3,1.9-0.4,2.8-0.3
		c1.2-0.7,2.6-0.9,3.8-0.5c0.8,0.3,1.6,0.7,2.2,1.5c1.1,1.3,1.3,3.1,0.7,4.6c0.5,1.7,0.5,3.5-0.2,5.1c0,0,0.1,0.1,0.1,0.1
		C363.6,30.5,363.3,33.5,361.2,35.2z"/>
	<path id="XMLID_53_" class="st7" d="M111.4,103.1l-15.1,3.1l-0.8,30.3c0,0.6,0.8,0.6,0.9,0.1l2.9-27.3l12.3-5.3
		C112.2,103.7,112,103,111.4,103.1z"/>
	<path id="XMLID_52_" class="st7" d="M169.6,99.9l-17.2,2.9l-8.5,32.9c-0.1,0.4,0.5,0.6,0.7,0.2l10.3-29.7l14.9-5.7
		C170.1,100.4,170,99.8,169.6,99.9z"/>
	<g id="XMLID_145_">
		<g id="XMLID_148_">
			<path id="XMLID_51_" class="st6" d="M17.3,74.3c1.9,4.4,7.1,6.5,11.5,4.6c2.3-1,3.9-2.8,4.7-4.9c2.2,0.9,4.6,0.9,7-0.1
				c0.5-0.2,1-0.5,1.5-0.8l61.8,36l-61-51.7c0.1-0.4,0.3-0.7,0.4-1.1c1.1,0.1,2.3-0.1,3.3-0.6c3.7-1.6,5.4-5.9,3.8-9.7
				c-1.6-3.7-5.9-5.4-9.7-3.8c-1,0.4-1.8,1-2.5,1.8c-3.7-2.2-8.6-2.5-13.3-0.5c-7.2,3.1-10.8,10.6-8.2,16.7c0.7,1.6,1.7,2.9,3,4
				C16.8,66.5,15.7,70.6,17.3,74.3z"/>
			<path id="XMLID_149_" class="st0" d="M14.2,64.2c-2.1,3.5-2.4,7.9-0.8,11.8c1.2,2.9,3.5,5.2,6.3,6.6c2.8,1.3,6,1.6,9,0.9
				c0.6-0.2,1.2-0.4,1.8-0.6c2.1-0.9,3.8-2.3,5.2-4c1.5,0.2,3.1,0,4.6-0.4c0.5-0.1,1-0.3,1.6-0.5l67.4,35.1L50.4,58.2
				c1.8-1.3,3.1-3,3.9-5.1c1.1-2.9,1.1-6-0.1-8.9c-2.3-5.2-8.1-8.1-13.6-6.6c-0.6,0.1-1.1,0.3-1.6,0.6c-0.5,0.2-0.9,0.4-1.4,0.7
				c-3.5-1.3-7.6-1.5-11.5-0.5c-1,0.3-2,0.6-2.9,1c-9.3,4-14,14-10.4,22.3C13.2,62.6,13.6,63.4,14.2,64.2z M19.7,64.1
				c-1.3-1.1-2.3-2.4-3-4c-2.7-6.2,1-13.7,8.2-16.7c0.8-0.3,1.5-0.6,2.3-0.8c3.9-1,7.9-0.5,11,1.3c0.7-0.7,1.5-1.3,2.5-1.8
				c0.3-0.1,0.7-0.3,1-0.4c3.5-0.9,7.2,0.8,8.6,4.2c1.6,3.7-0.1,8-3.8,9.7c-0.3,0.1-0.7,0.3-1,0.4c-0.8,0.2-1.6,0.3-2.3,0.2
				c-0.1,0.4-0.2,0.8-0.4,1.1l56,48.1L42,73c-0.5,0.3-1,0.6-1.5,0.8c-0.4,0.2-0.8,0.3-1.3,0.4c-1.9,0.5-3.9,0.3-5.7-0.4
				c-0.8,2.1-2.5,4-4.7,4.9c-0.4,0.2-0.8,0.3-1.2,0.4c-4.1,1.1-8.5-1-10.3-5C15.7,70.6,16.8,66.5,19.7,64.1z"/>
		</g>
		<path id="XMLID_48_" class="st0" d="M80.5,91.4L43.2,60.5c-1-0.8-2.5-0.4-2.9,0.8l0,0c-0.3,0.8,0,1.7,0.7,2.2L80.5,91.4z"/>
		<path id="XMLID_47_" class="st0" d="M66.3,84.1L35,62.1c-1-0.7-2.3-0.2-2.7,0.9l0,0c-0.3,0.8,0.1,1.6,0.8,2.1L66.3,84.1z"/>
	</g>
	<path id="XMLID_46_" class="st7" d="M248.2,102.6l-15.1,3.1l-0.8,30.3c0,0.6,0.8,0.6,0.9,0.1l2.9-27.3l12.3-5.3
		C248.9,103.3,248.7,102.5,248.2,102.6z"/>
	<path id="XMLID_45_" class="st7" d="M306.3,99.4l-17.2,2.9l-8.5,32.9c-0.1,0.4,0.5,0.6,0.7,0.2l10.3-29.7l14.9-5.7
		C306.9,99.9,306.7,99.3,306.3,99.4z"/>
	<path id="XMLID_44_" class="st7" d="M179,114.3c6.6-8.3,20.6-22.3,36.1-17.3c0.3,0.1,0.2,0.6-0.1,0.6c-5.6-0.4-19.9,0.5-35.5,17.1
		C179.2,114.9,178.7,114.6,179,114.3z"/>
	<path id="XMLID_43_" class="st7" d="M319.3,124.5l8.7-29.3l13.3,2.4c0.5,0.1,0.4,0.8-0.1,0.8h-11.3l-9.8,26.3
		C319.9,125.3,319.2,125,319.3,124.5z"/>
	<path id="XMLID_42_" class="st7" d="M297.5,182.4c1.4-3.1,5.4-9.2,14.5-10.1c0.4,0,0.5,0.5,0.1,0.6c-3.2,1.2-9.1,4-14.1,9.9
		C297.8,183,297.4,182.7,297.5,182.4z"/>
	<path id="XMLID_41_" class="st0" d="M139,209.2c0,0,20.2,9.6,22.5,25.8c0,0,14.3-23.8,34.6-20c0,0-15.1-5.9-32.6,12.3
		C158.7,219.1,149.3,212.2,139,209.2z"/>
	<path id="XMLID_40_" class="st0" d="M194.5,74.2c0,0,9.4,16.5,28.1,0c15.7-13.9,22.9-22.9,22.9-22.9s-22.1,30.3-32.6,32.3
		C202.4,85.6,197.1,78.8,194.5,74.2z"/>
</g>
</svg>
